<?xml version="1.0"?>
<svg width="764.98669" height="657.58667" xmlns="http://www.w3.org/2000/svg" xmlns:svg="http://www.w3.org/2000/svg">
 <metadata id="metadata8">image/svg+xml</metadata>

 <g class="layer">
  <title>Layer 1</title>
  <g id="g12" transform="matrix(0.133333, 0, 0, -0.147458, -2.73994, 710.32)">
   <path d="m1819.484826,-739.900693c0,7.519 -1.08,14 -3.31,19.3c-2.15,5.391 -5.19,9.539 -9.1,12.469c-3.89,2.84 -8.18,4.301 -12.91,4.301c-7.5,0 -13.84,-3.16 -18.99,-9.289c-5.16,-6.211 -7.74,-15.262 -7.74,-27.2619c0,-11.3203 2.58,-20.1094 7.66,-26.3086c5.16,-6.3086 11.52,-9.4688 19.07,-9.4688c4.5,0 8.73,1.3672 12.59,4.1485c3.8,2.7304 6.9,6.8281 9.24,12.2617c2.35,5.5273 3.49,12.0976 3.49,19.8481zm-53.31,41.378l0,-3.418c5.11,6.54 10.39,11.442 15.9,14.481c5.53,3.109 11.82,4.668 18.8,4.668c8.35,0 16.06,-2.27 23.11,-6.777c7.02,-4.512 12.58,-11.063 16.69,-19.77c4.08,-8.684 6.09,-18.91 6.09,-30.781c0,-8.7112 -1.14,-16.8322 -3.5,-24.0393c-2.35,-7.3203 -5.6,-13.5117 -9.71,-18.4531c-4.12,-4.9492 -9.02,-8.7891 -14.59,-11.418c-5.65,-2.7187 -11.7,-4.0312 -18.09,-4.0312c-7.81,0 -14.34,1.6211 -19.62,4.8906c-5.33,3.25 -10.33,8 -15.08,14.3203l0,-42.5898c0,-12.50003 -4.36,-18.7305 -13.06,-18.7305c-5.12,0 -8.53,1.60156 -10.14,4.80078c-1.68,3.23828 -2.5,7.94922 -2.5,14.09762l0,122.5626c0,5.398 1.09,9.449 3.37,12.109c2.3,2.649 5.38,4.008 9.27,4.008c3.85,0 6.99,-1.359 9.41,-4.137c2.42,-2.75 3.65,-6.703 3.65,-11.793" fill="#100f0d" fill-rule="nonzero" id="path14"/>
   <path d="m1939.304826,-781.998793l0,3.5781c-3.27,-4.2812 -6.68,-7.8711 -10.28,-10.7695c-3.59,-2.961 -7.5,-5.1094 -11.74,-6.5c-4.29,-1.4219 -9.13,-2.1407 -14.58,-2.1407c-6.54,0 -12.43,1.4297 -17.66,4.25c-5.23,2.8321 -9.28,6.7618 -12.09,11.7422c-3.44,6.0391 -5.09,14.7071 -5.09,25.9688l0,56.2692c0,5.649 1.22,9.918 3.69,12.719c2.46,2.801 5.7,4.211 9.74,4.211c4.13,0 7.43,-1.41 9.97,-4.281c2.53,-2.848 3.78,-7.078 3.78,-12.649l0,-45.4802c0,-6.5312 0.52,-12.0781 1.55,-16.5117c1.12,-4.4883 3.02,-7.9883 5.8,-10.5586c2.7,-2.4882 6.46,-3.7578 11.17,-3.7578c4.63,0 8.94,1.4375 12.96,4.2696c4.09,2.8085 7.05,6.5078 8.89,11.0898c1.53,4.0273 2.29,12.8281 2.29,26.4099l0,34.539c0,5.571 1.26,9.801 3.81,12.649c2.5,2.871 5.74,4.281 9.82,4.281c4.06,0 7.31,-1.41 9.77,-4.211c2.43,-2.801 3.64,-7.07 3.64,-12.719l0,-82.238c0,-5.4023 -1.13,-9.4726 -3.49,-12.1406c-2.34,-2.7422 -5.37,-4.0625 -9.11,-4.0625c-3.71,0 -6.76,1.4414 -9.21,4.1719c-2.42,2.8476 -3.63,6.7383 -3.63,11.8711" fill="#100f0d" fill-rule="nonzero" id="path16"/>
   <path d="m2018.204826,-741.022293c0,-11.289 2.46,-19.9375 7.39,-26.0273c4.97,-6.0391 11.47,-9.1094 19.52,-9.1094c6.85,0 12.7,3.1172 17.69,9.3086c4.97,6.2305 7.45,15.0586 7.45,26.6602c0,7.5585 -1.04,13.9685 -3.1,19.3595c-2.09,5.441 -5.02,9.621 -8.77,12.539c-3.84,2.941 -8.2,4.461 -13.27,4.461c-5.23,0 -9.77,-1.52 -13.85,-4.461c-4.09,-2.918 -7.24,-7.207 -9.59,-12.801c-2.33,-5.539 -3.47,-12.156 -3.47,-19.9296zm-1.28,84.3826l0,-43.39c5.04,5.597 10.29,9.8 15.6,12.808c5.32,2.93 11.92,4.43 19.74,4.43c9.05,0 16.95,-2.27 23.76,-6.688c6.8,-4.55 12.11,-10.992 15.85,-19.48c3.79,-8.481 5.64,-18.563 5.64,-30.199c0,-8.6136 -1.03,-16.4807 -3.11,-23.7112c-2.1,-7.1406 -5.11,-13.332 -9.12,-18.6602c-4.02,-5.2422 -8.86,-9.2695 -14.51,-12.25c-5.71,-2.8203 -11.96,-4.2812 -18.8,-4.2812c-4.15,0 -8.12,0.5312 -11.83,1.5508c-3.67,1.0507 -6.84,2.4101 -9.37,4.1601c-2.63,1.6016 -4.84,3.4102 -6.67,5.168c-1.81,1.8398 -4.21,4.5117 -7.18,8.1211l0,-2.7774c0,-5.3632 -1.26,-9.3906 -3.73,-12.1406c-2.42,-2.7422 -5.6,-4.082 -9.34,-4.082c-3.88,0 -6.93,1.3398 -9.25,4.082c-2.27,2.8086 -3.41,6.7969 -3.41,12.1406l0,123.969c0,5.711 1.1,10.07 3.36,13.008c2.21,2.961 5.29,4.421 9.3,4.421c4.16,0 7.4,-1.398 9.63,-4.23c2.28,-2.781 3.44,-6.762 3.44,-11.969" fill="#100f0d" fill-rule="nonzero" id="path18"/>
   <path d="m2116.714826,-780.780093l0,123.0894c0,5.711 1.2,9.981 3.59,12.911c2.47,2.879 5.73,4.339 9.85,4.339c4.12,0 7.42,-1.41 9.96,-4.308c2.48,-2.863 3.8,-7.211 3.8,-12.942l0,-123.0894c0,-5.7617 -1.32,-10.1015 -3.86,-13c-2.54,-2.8203 -5.86,-4.2812 -9.9,-4.2812c-3.99,0 -7.19,1.5 -9.7,4.4804c-2.49,2.9805 -3.74,7.2305 -3.74,12.8008" fill="#100f0d" fill-rule="nonzero" id="path20"/>
   <path d="m2199.184826,-698.791693l0,-81.9884c0,-5.7187 -1.33,-10.0195 -3.86,-12.9297c-2.61,-2.8515 -5.92,-4.3515 -9.87,-4.3515c-4,0 -7.25,1.5 -9.72,4.4492c-2.47,3.0117 -3.76,7.2617 -3.76,12.832l0,81.1794c0,5.571 1.29,9.801 3.76,12.649c2.47,2.871 5.72,4.281 9.72,4.281c3.95,0 7.26,-1.41 9.87,-4.281c2.53,-2.848 3.86,-6.778 3.86,-11.84zm-13.46,29.351c-3.78,0 -6.99,1.211 -9.75,3.7c-2.61,2.41 -4,5.871 -4,10.32c0,3.988 1.39,7.281 4.15,9.922c2.76,2.609 5.95,3.828 9.6,3.828c3.52,0 6.66,-1.141 9.37,-3.488c2.71,-2.352 4.09,-5.821 4.09,-10.262c0,-4.41 -1.34,-7.82 -4,-10.238c-2.66,-2.461 -5.78,-3.782 -9.46,-3.782" fill="#100f0d" fill-rule="nonzero" id="path22"/>
   <path d="m2324.704826,-762.908993c0,-3.5234 -1,-7.3125 -3.01,-11.3398c-2.06,-4.0117 -5.14,-7.8203 -9.31,-11.4727c-4.12,-3.6289 -9.36,-6.5508 -15.67,-8.75c-6.3,-2.2773 -13.43,-3.3594 -21.31,-3.3594c-16.82,0 -29.92,5.129 -39.37,15.3321c-9.41,10.2265 -14.13,23.8984 -14.13,41.0976c0,11.6405 2.14,21.9685 6.44,30.8785c4.31,8.891 10.61,15.864 18.75,20.723c8.15,4.918 17.95,7.359 29.26,7.359c7.07,0 13.54,-1.101 19.42,-3.218c5.87,-2.172 10.85,-4.953 14.93,-8.313c4.09,-3.41 7.2,-7.051 9.37,-10.859c2.18,-3.84 3.23,-7.442 3.23,-10.77c0,-3.351 -1.23,-6.238 -3.63,-8.609c-2.44,-2.383 -5.34,-3.539 -8.8,-3.539c-2.29,0 -4.14,0.648 -5.67,1.859c-1.45,1.168 -3.14,3.078 -5.02,5.84c-3.3,5.25 -6.8,9.231 -10.41,11.918c-3.63,2.602 -8.23,3.949 -13.76,3.949c-8.08,0 -14.56,-3.328 -19.46,-9.867c-4.93,-6.582 -7.35,-15.539 -7.35,-26.9101c0,-5.3007 0.63,-10.2695 1.9,-14.6992c1.25,-4.5 3.07,-8.2929 5.45,-11.4726c2.4,-3.1485 5.26,-5.5274 8.67,-7.1602c3.38,-1.6601 7.11,-2.4492 11.13,-2.4492c5.49,0 10.13,1.2891 14.02,3.9297c3.9,2.6601 7.34,6.6914 10.32,12.0312c1.66,3.2696 3.45,5.7383 5.38,7.5703c1.95,1.8008 4.31,2.6602 7.09,2.6602c3.32,0 6.07,-1.2813 8.29,-3.9102c2.15,-2.6992 3.25,-5.4726 3.25,-8.4492" fill="#100f0d" fill-rule="nonzero" id="path24"/>
   <path d="m2369.504826,-740.190193c0,-7.6992 1.15,-14.1992 3.43,-19.6407c2.31,-5.4179 5.4,-9.4492 9.38,-12.1796c4.01,-2.7813 8.37,-4.1485 13.04,-4.1485c4.8,0 9.16,1.3281 13.1,3.8867c3.98,2.6133 7.09,6.6329 9.49,11.9922c2.36,5.3477 3.53,12.0782 3.53,20.0899c0,7.5975 -1.17,14.0585 -3.53,19.5315c-2.4,5.449 -5.56,9.597 -9.56,12.527c-4.03,2.84 -8.41,4.301 -13.19,4.301c-4.97,0 -9.41,-1.52 -13.35,-4.461c-3.89,-2.918 -6.97,-7.199 -9.11,-12.707c-2.14,-5.524 -3.23,-11.863 -3.23,-19.1915zm53.46,-41.6485l0,2.7774c-3.66,-4.3711 -7.26,-7.9102 -10.85,-10.6094c-3.5,-2.7695 -7.37,-4.8398 -11.52,-6.2695c-4.14,-1.3789 -8.67,-2.1211 -13.58,-2.1211c-6.5,0 -12.57,1.4609 -18.09,4.2812c-5.52,2.9805 -10.32,7.0313 -14.38,12.3594c-4.04,5.3516 -7.11,11.6211 -9.22,18.8516c-2.12,7.1797 -3.14,14.9765 -3.14,23.4104c0,17.699 4.16,31.59 12.46,41.5c8.33,9.918 19.23,14.867 32.76,14.867c7.83,0 14.45,-1.43 19.82,-4.289c5.37,-2.762 10.63,-7.078 15.74,-12.949l0,41.918c0,5.839 1.1,10.23 3.34,13.203c2.22,3 5.36,4.468 9.49,4.468c4.11,0 7.28,-1.378 9.53,-4.082c2.21,-2.726 3.36,-6.777 3.36,-12.117l0,-125.199c0,-5.4023 -1.21,-9.4726 -3.61,-12.1406c-2.4,-2.7422 -5.46,-4.082 -9.28,-4.082c-3.67,0 -6.79,1.4023 -9.22,4.1914c-2.4,2.8086 -3.61,6.7812 -3.61,12.0312" fill="#100f0d" fill-rule="nonzero" id="path26"/>
   <path d="m2550.494826,-740.420693c0,11.531 -2.48,20.578 -7.33,27.02c-4.89,6.41 -11.47,9.66 -19.69,9.66c-5.34,0 -10,-1.45 -14.05,-4.321c-4.05,-2.918 -7.16,-7.148 -9.36,-12.769c-2.18,-5.559 -3.3,-12.07 -3.3,-19.59c0,-7.4297 1.12,-13.8906 3.24,-19.4102c2.15,-5.5507 5.26,-9.8007 9.3,-12.75c4,-2.9414 8.76,-4.3789 14.17,-4.3789c8.22,0 14.8,3.211 19.69,9.6875c4.85,6.4532 7.33,15.4414 7.33,26.8516zm27.28,0c0,-8.4102 -1.27,-16.2109 -3.78,-23.3984c-2.53,-7.0821 -6.18,-13.2305 -10.93,-18.3828c-4.82,-5.129 -10.53,-8.9688 -17.16,-11.7774c-6.64,-2.7422 -14.17,-4.082 -22.43,-4.082c-8.21,0 -15.64,1.3398 -22.19,4.1523c-6.58,2.7696 -12.3,6.7266 -17.12,11.9102c-4.79,5.1679 -8.43,11.2265 -10.96,18.2578c-2.48,7.082 -3.72,14.8086 -3.72,23.3711c0,8.5902 1.28,16.4492 3.77,23.5582c2.53,7.18 6.13,13.243 10.86,18.332c4.72,5.047 10.42,8.95 17.17,11.68c6.72,2.75 14.08,4.129 22.19,4.129c8.25,0 15.73,-1.379 22.43,-4.168c6.68,-2.762 12.43,-6.754 17.21,-11.871c4.81,-5.121 8.43,-11.262 10.88,-18.332c2.54,-7.051 3.78,-14.848 3.78,-23.379" fill="#100f0d" fill-rule="nonzero" id="path28"/>
   <path d="m2692.634826,-716.971693c-2.04,-4.801 -3.01,-13.258 -3.01,-25.4607l0,-37.7188c0,-5.9297 -1.27,-10.4492 -3.89,-13.4297c-2.58,-2.9804 -6.04,-4.4804 -10.28,-4.4804c-4.09,0 -7.42,1.5 -9.96,4.4804c-2.56,2.9805 -3.81,7.5 -3.81,13.4297l0,45.2815c0,7.121 -0.27,12.64 -0.74,16.648c-0.47,3.903 -1.71,7.172 -3.78,9.699c-2.02,2.551 -5.29,3.813 -9.72,3.813c-8.9,0 -14.75,-3.191 -17.59,-9.609c-2.85,-6.34 -4.19,-15.5 -4.19,-27.4536l0,-38.3789c0,-5.9179 -1.32,-10.3906 -3.84,-13.3398c-2.59,-3.0703 -5.95,-4.5703 -10.09,-4.5703c-4.15,0 -7.56,1.5 -10.16,4.5703c-2.65,2.9492 -3.89,7.4219 -3.89,13.332l0,81.2183c0,5.348 1.12,9.411 3.45,12.168c2.4,2.762 5.5,4.18 9.38,4.18c3.71,0 6.83,-1.289 9.29,-3.887c2.49,-2.589 3.73,-6.171 3.73,-10.761l0,-2.692c4.7,5.903 9.77,10.242 15.12,12.981c5.37,2.769 11.42,4.16 17.94,4.16c6.82,0 12.68,-1.43 17.6,-4.289c4.93,-2.809 8.96,-7.121 12.13,-12.852c4.59,5.774 9.51,10.133 14.77,12.934c5.25,2.816 11.05,4.207 17.4,4.207c7.5,0 13.89,-1.5 19.23,-4.59c5.4,-3.051 9.4,-7.398 12.07,-13.09c2.34,-5.129 3.48,-13.199 3.48,-24.25l0,-55.4295c0,-5.9297 -1.29,-10.4492 -3.84,-13.4297c-2.65,-2.9804 -6.03,-4.4804 -10.29,-4.4804c-4.13,0 -7.49,1.5 -10.1,4.5703c-2.65,2.9492 -3.97,7.4219 -3.97,13.3398l0,47.7695c0,6.102 -0.24,10.973 -0.72,14.66c-0.51,3.711 -1.86,6.742 -4.07,9.25c-2.18,2.5 -5.52,3.762 -9.93,3.762c-3.58,0 -7,-1.121 -10.17,-3.289c-3.28,-2.242 -5.72,-5.223 -7.55,-8.973l0,0" fill="#100f0d" fill-rule="nonzero" id="path30"/>
   <path d="m2846.654826,-740.959793c-4.01,-1.5625 -9.81,-3.1211 -17.41,-4.8515c-7.61,-1.6992 -12.88,-2.9375 -15.8,-3.75c-2.93,-0.8203 -5.72,-2.3594 -8.34,-4.6602c-2.69,-2.3906 -4.03,-5.6094 -4.03,-9.7695c0,-4.3399 1.59,-7.9609 4.67,-10.9883c3.15,-3.0625 7.24,-4.5312 12.29,-4.5312c5.37,0 10.37,1.25 14.89,3.7109c4.55,2.4375 7.92,5.6484 10.01,9.5c2.46,4.3203 3.72,11.3672 3.72,21.3008l0,4.039zm1.76,-41.1093c-6.59,-5.3516 -12.94,-9.3321 -19.08,-11.961c-6.12,-2.7187 -13.05,-4.0312 -20.65,-4.0312c-7.02,0 -13.09,1.4609 -18.41,4.2812c-5.31,2.8985 -9.34,6.8086 -12.21,11.7813c-2.82,4.9101 -4.29,10.1875 -4.29,15.9765c0,7.7735 2.42,14.3633 7.12,19.8516c4.67,5.4492 11.14,9.129 19.38,11.012c1.72,0.418 6.04,1.316 12.83,2.777c6.92,1.492 12.72,2.793 17.67,4c4.84,1.191 10.16,2.68 15.88,4.402c-0.35,7.52 -1.79,13 -4.33,16.579c-2.59,3.46 -7.92,5.171 -15.91,5.171c-6.95,0 -12.11,-0.972 -15.65,-2.98c-3.46,-1.992 -6.47,-5.031 -8.92,-9.109c-2.53,-3.993 -4.25,-6.661 -5.28,-7.922c-1.06,-1.309 -3.28,-1.891 -6.61,-1.891c-3.1,0 -5.72,1.012 -7.92,3.031c-2.25,2.059 -3.36,4.641 -3.36,7.879c0,4.973 1.7,9.86 5.07,14.512c3.39,4.738 8.68,8.598 15.84,11.711c7.17,3.047 16.13,4.558 26.83,4.558c11.92,0 21.34,-1.511 28.22,-4.441c6.82,-2.918 11.6,-7.551 14.45,-13.98c2.85,-6.34 4.24,-14.829 4.24,-25.36c0,-6.64 0,-12.328 -0.04,-16.9373c-0.05,-4.6914 -0.08,-9.8398 -0.14,-15.5234c0,-5.3086 0.84,-10.8985 2.55,-16.6602c1.65,-5.789 2.5,-9.5273 2.5,-11.1562c0,-2.9219 -1.33,-5.5899 -3.94,-7.9727c-2.57,-2.3789 -5.58,-3.5898 -8.87,-3.5898c-2.84,0 -5.53,1.3398 -8.3,4.082c-2.72,2.75 -5.6,6.7383 -8.67,11.9102" fill="#100f0d" fill-rule="nonzero" id="path32"/>
   <path d="m2928.154826,-698.791693l0,-81.9884c0,-5.7187 -1.31,-10.0195 -3.86,-12.9297c-2.59,-2.8515 -5.85,-4.3515 -9.85,-4.3515c-3.97,0 -7.26,1.5 -9.71,4.4492c-2.53,3.0117 -3.78,7.2617 -3.78,12.832l0,81.1794c0,5.571 1.25,9.801 3.78,12.649c2.45,2.871 5.74,4.281 9.71,4.281c4,0 7.26,-1.41 9.85,-4.281c2.55,-2.848 3.86,-6.778 3.86,-11.84zm-13.45,29.351c-3.74,0 -6.96,1.211 -9.66,3.7c-2.69,2.41 -4.09,5.871 -4.09,10.32c0,3.988 1.41,7.281 4.18,9.922c2.73,2.609 5.97,3.828 9.57,3.828c3.54,0 6.69,-1.141 9.42,-3.488c2.68,-2.352 4.03,-5.821 4.03,-10.262c0,-4.41 -1.31,-7.82 -3.98,-10.238c-2.65,-2.461 -5.81,-3.782 -9.47,-3.782" fill="#100f0d" fill-rule="nonzero" id="path34"/>
   <path d="m2981.004826,-698.381693l0,-3.391c4.75,6.571 9.97,11.403 15.61,14.481c5.7,3.07 12.23,4.621 19.63,4.621c7.13,0 13.58,-1.621 19.26,-4.91c5.59,-3.238 9.83,-7.82 12.59,-13.762c1.81,-3.488 2.94,-7.269 3.51,-11.277c0.49,-3.973 0.8,-9.11 0.8,-15.371l0,-52.7894c0,-5.7187 -1.29,-10.0195 -3.76,-12.9297c-2.5,-2.8515 -5.74,-4.3515 -9.7,-4.3515c-4.05,0 -7.36,1.5 -9.78,4.4804c-2.56,2.9805 -3.86,7.2305 -3.86,12.8008l0,47.2574c0,9.411 -1.21,16.551 -3.69,21.493c-2.54,4.949 -7.52,7.468 -14.96,7.468c-4.83,0 -9.24,-1.531 -13.22,-4.558c-3.98,-2.981 -6.9,-7.141 -8.75,-12.422c-1.33,-4.231 -2.03,-12.09 -2.03,-23.7384l0,-35.5c0,-5.7617 -1.25,-10.1015 -3.83,-13c-2.56,-2.8203 -5.86,-4.2812 -9.9,-4.2812c-3.89,0 -7.14,1.5 -9.65,4.4492c-2.56,3.0117 -3.8,7.2617 -3.8,12.832l0,81.9884c0,5.43 1.11,9.43 3.41,12.101c2.21,2.68 5.37,4.02 9.27,4.02c2.34,0 4.54,-0.629 6.43,-1.762c1.98,-1.168 3.47,-2.988 4.65,-5.258c1.12,-2.41 1.77,-5.289 1.77,-8.691" fill="#100f0d" fill-rule="nonzero" id="path36"/>
   <path d="m3096.054826,-700.330693l21.96,-64.4416l23.72,67.2496c1.88,5.422 3.7,9.204 5.52,11.473c1.82,2.238 4.5,3.379 8.13,3.379c3.46,0 6.39,-1.211 8.87,-3.68c2.37,-2.398 3.59,-5.16 3.59,-8.429c0,-1.231 -0.23,-2.661 -0.66,-4.282c-0.39,-1.699 -0.89,-3.257 -1.49,-4.757c-0.56,-1.391 -1.15,-3.082 -1.94,-4.942l-26.08,-67.5702c-0.73,-1.9296 -1.7,-4.4179 -2.83,-7.4101c-1.19,-2.9688 -2.5,-5.4609 -3.89,-7.6602c-1.47,-2.0898 -3.2,-3.6914 -5.27,-4.8789c-2.13,-1.1797 -4.68,-1.7812 -7.67,-1.7812c-3.85,0 -6.91,0.9101 -9.23,2.7187c-2.28,1.8516 -3.98,3.8438 -5.07,6.0703c-1.07,2.1407 -2.96,6.4922 -5.52,12.9414l-25.92,66.8402c-0.6,1.629 -1.24,3.308 -1.89,4.98c-0.59,1.66 -1.08,3.32 -1.55,5.09c-0.42,1.762 -0.66,3.25 -0.66,4.441c0,1.981 0.56,3.899 1.71,5.797c1.14,1.922 2.7,3.5 4.68,4.684c2.02,1.199 4.13,1.828 6.51,1.828c4.47,0 7.58,-1.34 9.29,-4.102c1.7,-2.668 3.61,-7.199 5.69,-13.558" fill="#100f0d" fill-rule="nonzero" id="path38"/>
   <path d="m3207.284826,-731.150693l49.28,0c-0.62,9.671 -3.11,16.921 -7.5,21.718c-4.36,4.793 -10.09,7.203 -17.21,7.203c-6.73,0 -12.32,-2.441 -16.64,-7.3c-4.35,-4.86 -6.96,-12.09 -7.93,-21.621zm53.2,-16.1489l-53.2,0c0.01,-6.4727 1.31,-12.1406 3.69,-17.1016c2.46,-4.8789 5.66,-8.5976 9.7,-11.1211c4,-2.5195 8.45,-3.7187 13.31,-3.7187c3.24,0 6.25,0.3906 8.89,1.1601c2.68,0.8399 5.32,2.0821 7.86,3.75c2.48,1.711 4.79,3.4805 6.94,5.5c2.1,1.9415 4.93,4.5196 8.27,7.8711c1.41,1.3086 3.42,1.8985 5.97,1.8985c2.84,0 5.06,-0.7696 6.8,-2.4102c1.73,-1.5976 2.54,-3.8203 2.54,-6.7304c0,-2.5704 -0.94,-5.5704 -2.88,-9.0391c-1.9,-3.3711 -4.76,-6.6992 -8.71,-9.8906c-3.9,-3.1172 -8.77,-5.6875 -14.65,-7.8282c-5.85,-2.0703 -12.58,-3.1015 -20.28,-3.1015c-17.43,0 -31.04,5.2422 -40.7,15.582c-9.68,10.4492 -14.51,24.5078 -14.51,42.2891c0,8.4885 1.23,16.2105 3.57,23.3595c2.39,7.199 5.86,13.332 10.46,18.449c4.59,5.16 10.19,9.121 16.92,11.82c6.74,2.75 14.14,4.121 22.34,4.121c10.55,0 19.7,-2.332 27.3,-7.039c7.63,-4.679 13.31,-10.691 17.09,-18.089c3.79,-7.461 5.68,-14.981 5.68,-22.731c0,-7.082 -1.9,-11.7108 -5.86,-13.8124c-3.95,-2.1484 -9.43,-3.1875 -16.54,-3.1875" fill="#100f0d" fill-rule="nonzero" id="path40"/>
   <path d="m3403.364826,-762.908993c0,-3.5234 -1.01,-7.3125 -3.08,-11.3398c-2.03,-4.0117 -5.05,-7.8203 -9.24,-11.4727c-4.13,-3.6289 -9.41,-6.5508 -15.74,-8.75c-6.27,-2.2773 -13.41,-3.3594 -21.25,-3.3594c-16.86,0 -29.97,5.129 -39.38,15.3321c-9.4,10.2265 -14.15,23.8984 -14.15,41.0976c0,11.6405 2.14,21.9685 6.49,30.8785c4.33,8.891 10.51,15.864 18.71,20.723c8.14,4.918 17.93,7.359 29.31,7.359c7.03,0 13.47,-1.101 19.4,-3.218c5.85,-2.172 10.8,-4.953 14.94,-8.313c4.08,-3.41 7.16,-7.051 9.35,-10.859c2.14,-3.84 3.22,-7.442 3.22,-10.77c0,-3.351 -1.19,-6.238 -3.69,-8.609c-2.39,-2.383 -5.32,-3.539 -8.78,-3.539c-2.25,0 -4.13,0.648 -5.59,1.859c-1.53,1.168 -3.19,3.078 -5.07,5.84c-3.32,5.25 -6.77,9.231 -10.39,11.918c-3.62,2.602 -8.22,3.949 -13.82,3.949c-7.99,0 -14.48,-3.328 -19.39,-9.867c-4.96,-6.582 -7.41,-15.539 -7.41,-26.9101c0,-5.3007 0.68,-10.2695 1.89,-14.6992c1.27,-4.5 3.11,-8.2929 5.52,-11.4726c2.38,-3.1485 5.29,-5.5274 8.67,-7.1602c3.33,-1.6601 7.07,-2.4492 11.15,-2.4492c5.43,0 10.12,1.2891 14,3.9297c3.87,2.6601 7.34,6.6914 10.33,12.0312c1.67,3.2696 3.42,5.7383 5.38,7.5703c1.9,1.8008 4.23,2.6602 7.07,2.6602c3.27,0 6.07,-1.2813 8.18,-3.9102c2.25,-2.6992 3.37,-5.4726 3.37,-8.4492" fill="#100f0d" fill-rule="nonzero" id="path42"/>
   <path d="m3428.614826,-685.061693l2.99,0l0,17.063c0,4.539 0.13,8.168 0.37,10.75c0.23,2.609 0.82,4.789 1.95,6.699c1.02,1.91 2.56,3.5 4.59,4.738c1.97,1.18 4.19,1.762 6.65,1.762c3.44,0 6.57,-1.332 9.34,-4.019c1.82,-1.821 3.03,-3.993 3.53,-6.571c0.51,-2.609 0.73,-6.351 0.73,-11.101l0,-19.321l10,0c3.85,0 6.8,-0.961 8.82,-2.871c2.06,-1.91 3.05,-4.328 3.05,-7.308c0,-3.821 -1.44,-6.532 -4.37,-8.02c-2.87,-1.5 -7.01,-2.269 -12.38,-2.269l-5.12,0l0,-52.2699c0,-4.4609 0.17,-7.8711 0.45,-10.3008c0.35,-2.3984 1.19,-4.3398 2.45,-5.789c1.26,-1.5 3.37,-2.2696 6.32,-2.2696c1.58,0 3.73,0.2696 6.48,0.8985c2.66,0.5703 4.8,0.8789 6.35,0.8789c2.18,0 4.22,-0.961 5.95,-2.7071c1.72,-1.8906 2.63,-4.1211 2.63,-6.8515c0,-4.5508 -2.35,-8.0508 -7.16,-10.4805c-4.84,-2.4297 -11.69,-3.6406 -20.62,-3.6406c-8.5,0 -14.97,1.5 -19.35,4.4804c-4.36,2.9805 -7.28,7.0821 -8.59,12.4102c-1.39,5.2617 -2.07,12.2891 -2.07,21.0898l0,54.5512l-3.61,0c-3.85,0 -6.85,0.968 -8.93,2.918c-2.07,1.941 -3.07,4.371 -3.07,7.371c0,2.98 1.05,5.398 3.19,7.308c2.19,1.91 5.3,2.871 9.43,2.871" fill="#100f0d" fill-rule="nonzero" id="path44"/>
   <path d="m3573.814826,-740.420693c0,11.531 -2.46,20.578 -7.31,27.02c-4.94,6.41 -11.43,9.66 -19.69,9.66c-5.33,0 -10,-1.45 -14.03,-4.321c-4.08,-2.918 -7.19,-7.148 -9.37,-12.769c-2.19,-5.559 -3.31,-12.07 -3.31,-19.59c0,-7.4297 1.12,-13.8906 3.27,-19.4102c2.15,-5.5507 5.22,-9.8007 9.23,-12.75c4,-2.9414 8.75,-4.3789 14.21,-4.3789c8.26,0 14.75,3.211 19.69,9.6875c4.85,6.4532 7.31,15.4414 7.31,26.8516zm27.3,0c0,-8.4102 -1.25,-16.2109 -3.81,-23.3984c-2.5,-7.0821 -6.18,-13.2305 -10.93,-18.3828c-4.8,-5.129 -10.52,-8.9688 -17.13,-11.7774c-6.67,-2.7422 -14.09,-4.082 -22.43,-4.082c-8.27,0 -15.69,1.3398 -22.23,4.1523c-6.56,2.7696 -12.28,6.7266 -17.09,11.9102c-4.79,5.1679 -8.46,11.2265 -10.91,18.2578c-2.48,7.082 -3.7,14.8086 -3.7,23.3711c0,8.5902 1.22,16.4492 3.7,23.5582c2.58,7.18 6.16,13.243 10.86,18.332c4.76,5.047 10.45,8.95 17.14,11.68c6.78,2.75 14.16,4.129 22.23,4.129c8.26,0 15.69,-1.379 22.43,-4.168c6.7,-2.762 12.42,-6.754 17.22,-11.871c4.72,-5.121 8.43,-11.262 10.91,-18.332c2.49,-7.051 3.74,-14.848 3.74,-23.379" fill="#100f0d" fill-rule="nonzero" id="path46"/>
   <path d="m3649.564826,-757.158993l0,-23.6211c0,-5.7617 -1.31,-10.1015 -3.9,-13c-2.6,-2.8203 -5.87,-4.2812 -9.9,-4.2812c-3.86,0 -7.12,1.5 -9.63,4.3515c-2.52,2.9102 -3.76,7.211 -3.76,12.9297l0,78.9884c0,12.769 4.4,19.121 13.24,19.121c4.47,0 7.74,-1.512 9.77,-4.461c1.96,-2.98 3.01,-7.391 3.27,-13.199c3.24,5.808 6.62,10.219 10.04,13.199c3.42,2.949 7.96,4.461 13.65,4.461c5.76,0 11.27,-1.512 16.68,-4.461c5.35,-2.98 8.07,-6.949 8.07,-11.848c0,-3.461 -1.18,-6.371 -3.47,-8.589c-2.26,-2.231 -4.74,-3.411 -7.44,-3.411c-0.97,0 -3.4,0.668 -7.2,1.981c-3.85,1.258 -7.22,1.918 -10.16,1.918c-3.94,0 -7.19,-1.051 -9.69,-3.289c-2.54,-2.223 -4.51,-5.41 -5.9,-9.699c-1.39,-4.34 -2.4,-9.43 -2.9,-15.391c-0.5,-5.8907 -0.77,-13.0899 -0.77,-21.6993" fill="#100f0d" fill-rule="nonzero" id="path48"/>
   <path d="m3794.424826,-760.979293c0,-7.8516 -1.83,-14.543 -5.52,-20.1211c-3.67,-5.6094 -9.05,-9.7812 -16.2,-12.6914c-7.17,-2.8086 -15.82,-4.2695 -26.11,-4.2695c-9.67,0 -18.09,1.5508 -25.08,4.6992c-6.98,3.1133 -12.13,6.9805 -15.42,11.6523c-3.36,4.6602 -5.07,9.3594 -5.07,14.0508c0,3.1172 1.09,5.7969 3.27,8.0078c2.11,2.2696 4.81,3.3203 8.03,3.3203c2.87,0 5.09,-0.7382 6.61,-2.1484c1.52,-1.543 2.95,-3.543 4.38,-6.1797c2.79,-5.0703 6.11,-8.8515 10.05,-11.3398c3.82,-2.5235 9.12,-3.7735 15.89,-3.7735c5.42,0 9.89,1.293 13.39,3.8204c3.46,2.5312 5.26,5.4101 5.26,8.6796c0,5.0118 -1.83,8.6719 -5.43,10.9297c-3.67,2.3438 -9.6,4.5117 -17.9,6.5703c-9.35,2.4414 -17,4.9922 -22.89,7.6329c-5.87,2.6877 -10.62,6.2307 -14.11,10.5977c-3.53,4.293 -5.31,9.703 -5.31,16.082c0,5.719 1.64,11.09 4.9,16.121c3.23,5.066 8.11,9.098 14.42,12.117c6.33,3.039 13.98,4.551 22.99,4.551c7,0 13.33,-0.781 18.98,-2.301c5.59,-1.508 10.34,-3.578 14.03,-6.109c3.75,-2.578 6.64,-5.418 8.58,-8.52c2,-3.148 2.96,-6.199 2.96,-9.16c0,-3.269 -1.02,-5.879 -3.16,-8.051c-2.1,-2 -5.1,-3.05 -8.89,-3.05c-2.82,0 -5.18,0.82 -7.19,2.519c-1.91,1.641 -4.19,4.121 -6.69,7.402c-2.07,2.782 -4.47,5.02 -7.29,6.68c-2.79,1.629 -6.57,2.5 -11.33,2.5c-4.93,0 -9.05,-1.09 -12.24,-3.289c-3.29,-2.172 -4.93,-4.91 -4.93,-8.172c0,-2.988 1.21,-5.429 3.57,-7.328c2.42,-1.91 5.62,-3.492 9.7,-4.75c4.08,-1.25 9.63,-2.801 16.74,-4.59c8.46,-2.133 15.33,-4.672 20.69,-7.679c5.34,-2.954 9.38,-6.4926 12.14,-10.5434c2.8,-4.0898 4.18,-8.707 4.18,-13.8672" fill="#100f0d" fill-rule="nonzero" id="path50"/>
   <path d="m3825.294826,-798.061293c-4.12,0 -7.68,1.3398 -10.63,4.1523c-3.04,2.7696 -4.51,6.668 -4.51,11.6172c0,4.2109 1.39,7.8594 4.23,10.9219c2.86,3.039 6.4,4.5195 10.59,4.5195c4.16,0 7.75,-1.4805 10.64,-4.5117c2.99,-2.9688 4.48,-6.6797 4.48,-10.9297c0,-4.9101 -1.49,-8.7695 -4.48,-11.5781c-2.89,-2.7891 -6.34,-4.1914 -10.32,-4.1914" fill="#100f0d" fill-rule="nonzero" id="path52"/>
   <path d="m3945.554826,-740.420693c0,11.531 -2.45,20.578 -7.34,27.02c-4.88,6.41 -11.41,9.66 -19.64,9.66c-5.33,0 -9.96,-1.45 -14.03,-4.321c-4.06,-2.918 -7.18,-7.148 -9.35,-12.769c-2.17,-5.559 -3.28,-12.07 -3.28,-19.59c0,-7.4297 1.04,-13.8906 3.19,-19.4102c2.23,-5.5507 5.27,-9.8007 9.31,-12.75c4,-2.9414 8.72,-4.3789 14.16,-4.3789c8.23,0 14.76,3.211 19.64,9.6875c4.89,6.4532 7.34,15.4414 7.34,26.8516zm27.32,0c0,-8.4102 -1.25,-16.2109 -3.81,-23.3984c-2.54,-7.0821 -6.15,-13.2305 -10.94,-18.3828c-4.83,-5.129 -10.47,-8.9688 -17.13,-11.7774c-6.62,-2.7422 -14.09,-4.082 -22.42,-4.082c-8.23,0 -15.63,1.3398 -22.2,4.1523c-6.58,2.7696 -12.25,6.7266 -17.05,11.9102c-4.89,5.1679 -8.52,11.2265 -11.04,18.2578c-2.44,7.082 -3.69,14.8086 -3.69,23.3711c0,8.5902 1.25,16.4492 3.79,23.5582c2.57,7.18 6.13,13.243 10.82,18.332c4.72,5.047 10.44,8.95 17.17,11.68c6.7,2.75 14.05,4.129 22.2,4.129c8.23,0 15.7,-1.379 22.42,-4.168c6.74,-2.762 12.46,-6.754 17.25,-11.871c4.75,-5.121 8.38,-11.262 10.9,-18.332c2.48,-7.051 3.73,-14.848 3.73,-23.379" fill="#100f0d" fill-rule="nonzero" id="path54"/>
   <path d="m4021.314826,-757.158993l0,-23.6211c0,-5.7617 -1.3,-10.1015 -3.89,-13c-2.55,-2.8203 -5.88,-4.2812 -9.83,-4.2812c-3.97,0 -7.15,1.5 -9.69,4.3515c-2.56,2.9102 -3.8,7.211 -3.8,12.9297l0,78.9884c0,12.769 4.48,19.121 13.26,19.121c4.53,0 7.76,-1.512 9.74,-4.461c1.96,-2.98 3.13,-7.391 3.36,-13.199c3.19,5.808 6.52,10.219 9.94,13.199c3.44,2.949 8.01,4.461 13.67,4.461c5.81,0 11.35,-1.512 16.67,-4.461c5.38,-2.98 8.1,-6.949 8.1,-11.848c0,-3.461 -1.15,-6.371 -3.43,-8.589c-2.31,-2.231 -4.74,-3.411 -7.47,-3.411c-0.96,0 -3.35,0.668 -7.17,1.981c-3.83,1.258 -7.2,1.918 -10.15,1.918c-3.96,0 -7.19,-1.051 -9.79,-3.289c-2.48,-2.223 -4.44,-5.41 -5.86,-9.699c-1.36,-4.34 -2.33,-9.43 -2.85,-15.391c-0.53,-5.8907 -0.81,-13.0899 -0.81,-21.6993" fill="#100f0d" fill-rule="nonzero" id="path56"/>
   <path d="m4099.834826,-739.440693c0,-11.4917 2.42,-20.1987 7.25,-26.1206c4.78,-5.8477 11.05,-8.8203 18.63,-8.8203c4.5,0 8.82,1.3007 12.82,3.832c4.02,2.5273 7.29,6.3398 9.82,11.4375c2.56,5.1133 3.78,11.2617 3.78,18.5312c0,11.5822 -2.46,20.5702 -7.33,27.0002c-4.87,6.5 -11.3,9.75 -19.26,9.75c-7.75,0 -13.99,-3.16 -18.65,-9.289c-4.71,-6.199 -7.06,-14.949 -7.06,-26.321zm78.83,35.989l0,-82.469c0,-9.4609 -1.03,-17.5586 -2.92,-24.3086c-1.93,-6.832 -5.01,-12.4531 -9.25,-16.8711c-4.25,-4.42186 -9.85,-7.71092 -16.67,-9.85936c-6.89,-2.10938 -15.45,-3.21094 -25.67,-3.21094c-9.38,0 -17.77,1.32813 -25.1,4.07031c-7.39,2.80078 -13.08,6.30079 -17.05,10.66019c-3.98,4.289 -5.99,8.75 -5.99,13.3515c0,3.4766 1.1,6.2774 3.43,8.4571c2.22,2.2304 4.96,3.3203 8.13,3.3203c4,0 7.44,-1.8594 10.49,-5.5078c1.46,-1.9297 2.99,-3.8008 4.5,-5.6797c1.56,-1.9219 3.3,-3.5938 5.18,-4.9102c1.91,-1.3828 4.2,-2.3828 6.86,-3.0429c2.6,-0.6602 5.7,-0.9883 9.17,-0.9883c6.98,0 12.51,1.0508 16.37,3.0703c3.88,2.039 6.62,4.8984 8.2,8.5586c1.49,3.6797 2.49,7.6015 2.65,11.789c0.32,4.2813 0.51,10.9532 0.69,20.2813c-4.18,-6.0899 -9.09,-10.7383 -14.51,-13.918c-5.48,-3.2109 -12.03,-4.7617 -19.54,-4.7617c-9.18,0 -17.13,2.3789 -23.89,7.2695c-6.84,4.8399 -12.08,11.6211 -15.72,20.3789c-3.6,8.711 -5.48,18.793 -5.48,30.2306c0,8.582 1.09,16.281 3.36,23.152c2.18,6.821 5.33,12.617 9.52,17.34c4.07,4.719 8.85,8.277 14.22,10.68c5.41,2.359 11.25,3.578 17.75,3.578c7.67,0 14.34,-1.559 19.97,-4.668c5.73,-3.039 10.91,-7.941 15.78,-14.481l0,3.801c0,4.957 1.2,8.739 3.49,11.52c2.3,2.668 5.31,4.027 8.95,4.027c5.26,0 8.75,-1.758 10.5,-5.34c1.69,-3.578 2.58,-8.777 2.58,-15.519" fill="#100f0d" fill-rule="nonzero" id="path58"/>
   <path d="m2999.964826,-427.068693l40.33,0c-2.85,-21.75 -11.75,-38.723 -26.58,-50.942c-13.71,-11.969 -30.32,-17.871 -49.72,-17.871c-26.35,0 -47.38,9.262 -63.08,27.731c-14.87,17.562 -22.3,40.25 -22.3,67.96c0,28.391 7.38,51.09 22.09,68.282c14.71,17.117 35.5,25.718 62.39,25.718c19.99,0 36.91,-5.41 50.62,-16.14c14.54,-11.61 23.44,-27.899 26.58,-48.77l-40.33,0c-3.49,18.211 -14.6,27.258 -33.52,27.258c-31.17,0 -46.79,-18.457 -46.79,-55.418c0,-17.32 4.01,-31.449 12.03,-42.461c8.02,-11.058 19.32,-16.59 33.9,-16.59c21.74,0 33.21,10.43 34.38,31.243zm-158.8,25.449c0,-36.102 11.45,-66.66 34.31,-91.563c22.9,-24.898 50.9,-37.359 84.15,-37.359c33.1,0 61.13,12.461 83.98,37.359c22.92,24.903 34.3,55.461 34.3,91.563c0,36.07 -11.38,66.609 -34.3,91.508c-22.85,24.953 -50.88,37.39 -83.98,37.39c-33.25,0 -61.25,-12.437 -84.15,-37.39c-22.86,-24.899 -34.31,-55.438 -34.31,-91.508zm-40.98,0c0,45.937 15.55,85.148 46.66,117.711c31.15,32.519 68.76,48.789 112.78,48.789c43.92,0 81.47,-16.27 112.65,-48.789c31.13,-32.563 46.73,-71.774 46.73,-117.711c0,-45.981 -15.6,-85.242 -46.73,-117.742c-31.18,-32.547 -68.73,-48.829 -112.65,-48.829c-44.02,0 -81.63,16.282 -112.78,48.829c-31.11,32.5 -46.66,71.761 -46.66,117.742" fill="#100f0d" fill-rule="nonzero" id="path60"/>
   <path d="m2864.694826,-506.041693l23.26,-19.731l170.95,219.532l-23.24,19.699l-170.97,-219.5" fill="#100f0d" fill-rule="nonzero" id="path62"/>
   <path d="m770.544826,2615.249307l-157.356,-416.36c-124.219,-328.69 25.438,-685.33 390.461,-857.38c569.095,-268.22 1219.575,-362.73 1875.305,-362.73c655.73,0 1306.22,94.51 1875.32,362.73c365.02,172.05 514.67,528.69 390.45,857.38l-157.35,416.36l-2108.42,-148.43l-2108.41,148.43" fill="#ff7f00" fill-rule="evenodd" id="path64"/>
   <path d="m850.825826,2895.959307l-123.477,141.53c-29.105,33.37 -72.469,50.71 -116.551,46.62l-504.5074,0c-30.582,0 -59.3398,-14.57 -77.4218,-39.24c-18.089894,-24.66 -23.3438,-56.47 -14.14849,-85.64c43.32029,-137.44 168.96869,-232.35 313.02769,-236.42l244.75,0c62.726,0 121.121,32.01 154.851,84.91c5.227,8.19 13.793,13.66 23.422,14.94c9.637,1.29 19.34,-1.74 26.524,-8.28l56.043,-71.6l17.488,153.18zm4056.269,0l123.48,141.53c29.1,33.37 72.46,50.71 116.55,46.62l504.5,0c30.59,0 59.34,-14.57 77.42,-39.24c18.1,-24.66 23.34,-56.47 14.15,-85.64c-43.31,-137.44 -168.97,-232.35 -313.01,-236.42l-244.77,0c-62.73,0 -121.12,32.01 -154.84,84.91c-5.23,8.19 -13.8,13.66 -23.43,14.94c-9.63,1.29 -19.35,-1.74 -26.52,-8.28l-56.05,-71.6l-17.48,153.18l0,0" fill="#ffaa56" fill-rule="evenodd" id="path66"/>
   <path d="m1425.954826,4091.689307c1212.29,0 1693.71,0 2906,0c214.94,0 423.11,-175.85 462.61,-390.78l186.28,-1013.6c39.49,-214.93 -104.04,-390.79 -318.97,-390.79c-1432.23,0 -2133.6,0 -3565.82,0c-214.944,0 -358.475,175.85 -318.983,390.79l186.285,1013.6c39.496,214.93 247.668,390.78 462.598,390.78" fill="#ff7f00" fill-rule="evenodd" id="path68"/>
   <path d="m1388.154826,3986.569307c993.87,0 1987.74,0 2981.61,0c176.2,0 346.86,-144.17 379.26,-320.37l152.71,-830.98c32.38,-176.21 -85.3,-320.38 -261.5,-320.38c-1174.19,0 -2348.37,0 -3522.54,0c-176.209,0 -293.889,144.17 -261.502,320.38l152.711,830.98c32.381,176.2 203.041,320.37 379.251,320.37" fill="#46454b" fill-rule="evenodd" id="path70"/>
   <path d="m2136.994826,3889.699307c494.64,0 989.29,0 1483.94,0c87.69,0 172.63,-71.76 188.74,-159.46l76.02,-413.57c16.1,-87.7 -42.47,-159.44 -130.16,-159.44c-584.39,0 -1168.77,0 -1753.15,0c-87.7,0 -146.27,71.74 -130.15,159.44l76.01,413.57c16.11,87.7 101.05,159.46 188.75,159.46" fill="#7f7e86" fill-rule="evenodd" id="path72"/>
   <path d="m3359.074826,3351.809307l15.45,4.29c13,3.61 23.95,12.36 30.33,24.23c6.37,11.88 7.63,25.84 3.46,38.66l0.31,-0.94l106.78,7.51l106.76,-7.51l0.32,0.94c-4.17,-12.82 -2.91,-26.78 3.47,-38.66c6.38,-11.87 17.33,-20.62 30.32,-24.23l15.45,-4.29l3.32,-123.05l0.64,-1.25l-160.28,-23.15l-160.27,23.15l0.62,1.25l3.32,123.05" fill="#ffaaaa" fill-rule="evenodd" id="path74"/>
   <path d="m3359.074826,3351.809307l-296.75,-67.17c-46.27,-10.49 -85.91,-40.2 -108.92,-81.7c-20.25,-36.54 -25.95,-79.16 -16.35,-119.41l-44.75,-298.74l59.19,0l152.14,0l411.77,0l411.76,0l152.15,0l59.19,0l-44.76,298.74c9.6,40.25 3.91,82.87 -16.35,119.41c-23,41.5 -62.63,71.21 -108.91,81.7l-296.76,67.17c-16.26,-71.34 -80.08,-124.57 -156.32,-124.57c-76.25,0 -140.08,53.23 -156.33,124.57" fill="#d4ffaa" fill-rule="evenodd" id="path76"/>
   <path d="m1139.404826,2772.689307l217.9,1072.93l-225.89,-40.15c-39.82,-31.71 -69.05,-68.75 -80.33,-109.57l-160.556,-868.52c-4.125,-39.99 14.293,-78.83 47.805,-100.8c33.504,-21.97 76.561,-23.42 111.741,-3.77l89.33,49.88zm3479.11,0l-217.91,1072.93l225.91,-40.15c39.8,-31.71 69.04,-68.75 80.33,-109.57l160.54,-868.52c4.14,-39.99 -14.29,-78.83 -47.8,-100.8c-33.5,-21.97 -76.57,-23.42 -111.75,-3.77l-89.32,49.88zm-505.37,1005.81l116.41,-613.22c19.42,-102.33 74.01,-194.85 154.29,-261.52l118.26,-66.06l-201.23,1025.63l-148.34,26.37c-33.98,-22.91 -50.66,-59.2 -39.39,-111.2zm-2468.36,0l-116.42,-613.22c-19.43,-102.33 -74.02,-194.85 -154.3,-261.52l-118.27,-66.06l201.24,1025.63l148.34,26.37c33.99,-22.91 50.68,-59.2 39.41,-111.2l0,0" fill="#7f7e86" fill-rule="evenodd" id="path78"/>
   <path d="m3175.934826,3094.129307l0.02,0c29.86,15.56 67.03,3.84 82.59,-26.03l56.3,-108.12c15.55,-29.87 3.85,-67.04 -26.03,-82.59l0,0c-29.88,-15.56 -67.02,-3.85 -82.6,26.02l-56.3,108.12c-15.55,29.88 -3.84,67.04 26.02,82.6" fill="#ffaaaa" fill-rule="evenodd" id="path80"/>
   <path d="m3853.494854,3094.129307l0,0c-29.88,15.56 -67.05,3.84 -82.6,-26.03l-56.3,-108.12c-15.56,-29.87 -3.85,-67.04 26.02,-82.59l0,0c29.89,-15.56 67.04,-3.85 82.59,26.02l56.31,108.12c15.57,29.88 3.85,67.04 -26.02,82.6" fill="#ffaaaa" fill-rule="evenodd" id="path82"/>
   <path d="m3515.404826,3129.029307c278.91,0 505.02,-226.1 505.02,-505.01c0,-21 -1.31,-41.69 -3.8,-62.01l-130.33,0c3.36,20.18 5.12,40.89 5.12,62.01c0,207.66 -168.35,376.01 -376.01,376.01c-207.66,0 -376.01,-168.35 -376.01,-376.01c0,-21.12 1.75,-41.83 5.1,-62.01l-130.31,0c-2.5,20.32 -3.81,41.01 -3.81,62.01c0,278.91 226.11,505.01 505.03,505.01" fill="#2d2a2d" fill-rule="evenodd" id="path84"/>
   <path d="m3129.604826,2662.129307c114.78,0 208.37,93.6 208.37,208.36c0,114.77 -93.59,208.38 -208.37,208.38c-114.77,0 -208.37,-93.61 -208.37,-208.38c0,-114.76 93.6,-208.36 208.37,-208.36" fill="#ffaaaa" fill-rule="evenodd" id="path86"/>
   <path d="m3901.204826,2662.129307c114.76,0 208.37,93.6 208.37,208.36c0,114.77 -93.61,208.38 -208.37,208.38c-114.77,0 -208.38,-93.61 -208.38,-208.38c0,-114.76 93.61,-208.36 208.38,-208.36" fill="#ffaaaa" fill-rule="evenodd" id="path88"/>
   <path d="m1117.694826,2514.839307l108.1,124.78c91.82,105.98 229.75,160.21 369.16,145.17l1284,0l1284.01,0c139.42,15.04 277.34,-39.19 369.16,-145.17l108.11,-124.78l-1761.28,0l-1761.26,0" fill="#2d2a2d" fill-rule="evenodd" id="path90"/>
   <path d="m3703.494826,3684.599307c-31.8,0 -62.45,-33.62 -68.48,-75.09c-6.01,-41.47 14.87,-75.09 46.66,-75.09c31.81,0 62.45,33.62 68.47,75.09c6.03,41.47 -14.87,75.09 -46.65,75.09zm-376.17,0c31.79,0 62.45,-33.62 68.46,-75.09c6.03,-41.47 -14.87,-75.09 -46.66,-75.09c-31.8,0 -62.45,33.62 -68.46,75.09c-6.02,41.47 14.86,75.09 46.66,75.09l0,0" fill="#ffaaaa" fill-rule="evenodd" id="path92"/>
   <path d="m4732.814826,2352.399307l10.01,-145.17c12.41,-179.69 -55.42,-355.66 -185.21,-480.56c-196.18,-188.8 -440.26,-320.36 -705.83,-380.45l75.09,40.05c207.05,110.42 390,261.04 538.13,443.03c113.93,139.94 142.69,330.77 75.09,498.07l192.72,25.03zm-3707.72,0l-10.01,-145.17c-12.388,-179.69 55.43,-355.66 185.21,-480.56c196.2,-188.8 440.28,-320.36 705.84,-380.45l-75.09,40.05c-207.05,110.42 -390,261.04 -538.13,443.03c-113.92,139.94 -142.68,330.77 -75.09,498.07l-192.73,25.03l0,0" fill="#ffaa56" fill-rule="evenodd" id="path94"/>
   <path d="m3307.924826,3806.209307l414.95,0l0,-246.93c0,-114.1 -93.36,-207.47 -207.47,-207.47l0,0c-114.12,0 -207.48,93.37 -207.48,207.47l0,246.93" fill="#ffaaaa" fill-rule="evenodd" id="path96"/>
   <path d="m3607.604826,3495.929307c-1.88,-49.13 -42.64,-88.73 -92.2,-88.73l0,0c-49.57,0 -90.32,39.6 -92.21,88.73l184.41,0" fill="#ffffff" fill-rule="evenodd" id="path98"/>
   <path d="m3722.874826,3620.779307l29.91,152.05c15.62,79.38 -1.99,147.44 -71.28,105.68l-10.64,11.26c-41.84,44.31 -106.01,59.55 -163.31,38.8l-202.79,-44.36c-22.84,-6.29 -40.44,-24.54 -45.92,-47.6c-5.47,-23.05 2.06,-47.27 19.64,-63.15l29.44,-162.7l29.32,120.89l274.13,22.41c24.33,1.99 47.16,12.65 64.31,30.03l47.19,-163.31" fill="#7f3f00" fill-rule="evenodd" id="path100"/>
   <path d="m3577.324826,3670.009307l72.16,-3.91c7.04,-0.38 13.1,-5.06 15.27,-11.75c2.16,-6.69 -0.01,-14.04 -5.49,-18.46c-5.47,-4.43 -13.11,-5.03 -19.2,-1.51l-62.51,3.45c-8.5,0.47 -15.18,7.46 -15.23,15.98c-0.06,8.51 6.58,16.65 15,16.2" fill="#7f3f00" fill-rule="evenodd" id="path102"/>
   <path d="m3606.454854,3621.299307l0.01,0c13.17,0 23.94,-10.77 23.94,-23.95l0,-8.24c0,-13.18 -10.77,-23.95 -23.94,-23.95l-0.01,0c-13.17,0 -23.94,10.77 -23.94,23.95l0,8.24c0,13.18 10.77,23.95 23.94,23.95" fill="#7f3f00" fill-rule="evenodd" id="path104"/>
   <path d="m3453.484826,3670.009307l-72.17,-3.91c-7.03,-0.38 -13.1,-5.06 -15.26,-11.75c-2.16,-6.69 0.01,-14.04 5.48,-18.46c5.47,-4.43 13.11,-5.03 19.2,-1.51l62.51,3.45c8.5,0.47 15.16,7.46 15.22,15.98c0.08,8.51 -6.56,16.65 -14.98,16.2" fill="#7f3f00" fill-rule="evenodd" id="path106"/>
   <path d="m3422.964826,3621.299307l0,0c-13.16,0 -23.94,-10.77 -23.94,-23.95l0,-8.24c0,-13.18 10.78,-23.95 23.94,-23.95l0,0c13.18,0 23.96,10.77 23.96,23.95l0,8.24c0,13.18 -10.78,23.95 -23.96,23.95" fill="#7f3f00" fill-rule="evenodd" id="path108"/>
   <path d="m1388.154826,3838.029307c-106.29,0 -214.07,-94.82 -233.16,-198.68l-60.26,-327.9c210.31,258.6 495.96,441.79 813.75,526.58l-520.33,0" fill="#ffffff" fill-rule="evenodd" id="path110"/>
  </g>
  <ellipse cx="596.893951" cy="1021.314301" fill="#7f3f00" id="svg_1" rx="204.125862" ry="82.198334" stroke-dasharray="null" stroke-linecap="null" stroke-linejoin="null" stroke-width="null"/>
  <ellipse cx="583.194229" cy="1030.904106" fill="#7f3f00" id="svg_2" rx="76.718445" ry="46.579056" stroke-dasharray="null" stroke-linecap="null" stroke-linejoin="null" stroke-width="null"/>
  <rect fill="#7f3f00" height="69.868584" id="svg_3" stroke-dasharray="null" stroke-linecap="null" stroke-linejoin="null" stroke-width="null" width="257.554779" x="431.127312" y="1029.534134"/>
  <rect fill="#7f3f00" height="35.619278" id="svg_4" stroke-dasharray="null" stroke-linecap="null" stroke-linejoin="null" stroke-width="null" width="75.348473" x="621.553452" y="1019.944328"/>
  <ellipse cx="495.516006" cy="1008.98455" fill="#7f3f00" id="svg_5" rx="94.528084" ry="52.058945" stroke-dasharray="null" stroke-linecap="null" stroke-linejoin="null" stroke-width="null"/>
  <ellipse cx="518.805534" cy="985.695023" fill="#7f3f00" id="svg_6" rx="1.369972" ry="1.369972" stroke-dasharray="null" stroke-linecap="null" stroke-linejoin="null" stroke-width="null"/>
  <ellipse cx="350.29895" cy="933.636078" fill="#7f3f00" id="svg_7" rx="147.957001" ry="102.747917" stroke-dasharray="null" stroke-linecap="null" stroke-linejoin="null" stroke-width="null"/>
  <ellipse cx="500.995895" cy="1032.274078" fill="#7f3f00" id="svg_8" rx="191.796112" ry="54.798889" stroke-dasharray="null" stroke-linecap="null" stroke-linejoin="null" stroke-width="null"/>
  <rect fill="#7f3f00" height="78.088417" id="svg_9" stroke-dasharray="null" stroke-linecap="null" stroke-linejoin="null" stroke-width="null" width="139.737167" x="495.516006" y="1004.874634"/>
  <rect fill="#7f3f00" height="0" id="svg_10" stroke-dasharray="null" stroke-linecap="null" stroke-linejoin="null" stroke-width="null" width="4.109917" x="451.676895" y="680.191216"/>
  <rect fill="#7f3f00" height="4.109917" id="svg_11" stroke-dasharray="null" stroke-linecap="null" stroke-linejoin="null" stroke-width="null" width="0" x="559.904701" y="800.748772"/>
  <rect fill="#7f3f00" height="28.769417" id="svg_12" stroke-dasharray="null" stroke-linecap="null" stroke-linejoin="null" stroke-width="null" width="4.109917" x="684.572174" y="966.515411"/>
  <rect fill="#7f3f00" height="0" id="svg_13" stroke-dasharray="null" stroke-linecap="null" stroke-linejoin="null" stroke-width="null" width="1.369972" x="655.802757" y="1069.263329"/>
  <rect fill="#ff7f00" height="1.369972" id="svg_14" stroke-dasharray="null" stroke-linecap="null" stroke-linejoin="null" stroke-width="null" width="6.849861" x="428.387367" y="469.215492"/>
 </g>
</svg>