<?xml version="1.0"?>
<svg width="2979.9211" height="2104.7244" xmlns="http://www.w3.org/2000/svg" xmlns:svg="http://www.w3.org/2000/svg">

 <metadata id="metadata7">image/svg+xml</metadata>
 <g class="layer">
  <title>Layer 1</title>
  <g id="layer1">
   <rect fill="#ffffff" height="2104.7244" id="rect4076" transform="translate(0, -1052.36)" width="2979.9211" x="0" y="1052.362183"/>
   <g id="g4044" transform="matrix(3.20767, 0, 0, 3.20767, -189.667, -2250.37)">
    <path d="m834.46875,964.375824c-5.14795,0.11988 -25.73192,11.69262 -32.71875,20.125c-5.50352,6.64219 -19.36911,44.74978 -26.875,67.8125c-50.862,-19.54706 -139.978,-49.57903 -173.5625,-44.78125c-43.90453,6.27208 -266.75376,123.93854 -296.02345,124.98388c-29.26969,1.04535 -95.62115,12.01671 -93.00202,26.3931c3.2721,17.96056 61.62226,25.87949 125.58797,42.02927c69.63996,17.5824 132.78602,18.81743 178.78125,11.5c45.99523,-7.31742 62.13962,-8.42459 93.5,-20.96875c31.36038,-12.54415 48.66528,-26.08816 108.25,-54.3125c36.29382,-18.20893 69.89024,-37.39747 104.54109,-58.35487c20.48276,-10.8289 20.06084,-41.11922 21.33391,-60.02013c0.26585,-9.3047 -0.85173,-19.40638 -0.5,-24.96875c0,0 -2.42178,-20.59068 -8.25,-29.09375c-0.17026,-0.2484 -0.52995,-0.35615 -1.0625,-0.34375z" fill="#000000" id="path4045"/>
    <path d="m645.48001,1106.500174c0,0 -4.88696,31.01455 -7.56181,42.15974c-5.71667,18.08263 -25.10249,46.73661 -42.79755,47.25563c-9.80777,0 -44.8957,-4.39673 -63.75051,-10.00409c-4.60228,-1.36871 -9.09146,-5.64576 -12.48261,-12.73211c-4.06839,-8.50154 -7.8364,-16.82618 -7.8364,-16.82618c0,0 15.86094,-49.59918 25.66871,-81.25153c9.80777,-31.65235 38.33946,-82.02863 54.83435,-77.12475c16.49489,4.90389 62.69939,37.00614 62.69939,37.00614l-5.38742,72.83099l-3.38615,-1.31384z" fill="#191919" id="path3358"/>
    <path d="m792.64271,1048.707824c0,0 -2.42051,7.63903 -8.85773,9.49109c-6.42813,1.84945 -16.23839,4.201 -20.28747,5.93632c-4.04908,1.73532 -115.01397,47.09803 -115.01397,47.09803c0,0 -1.33877,-33.71336 -1.96645,-40.72234c-2.62558,-22.71842 -11.18357,-52.07107 -35.86328,-50.32428c-46.88526,3.39732 -56.07495,74.04125 -71.69266,124.721c-2.31376,5.20596 -6.94128,16.77476 -9.83348,19.08852c-2.8922,2.31376 -32.42653,7.16331 -52.09349,8.32019c-19.66696,1.15688 -48.01052,4.04908 -67.09904,-0.57844c-71.32368,-11.97458 -192.83388,-36.11734 -200.71866,-54.95179c-3.56815,-8.98377 -6.80319,-37.00069 -1.73532,-55.53024c0.57844,-4.62752 12.14724,-42.22612 14.461,-52.0596c2.31376,-9.83348 26.60823,-46.85363 30.07887,-50.32427c11.46178,-16.33054 37.77578,-25.72029 52.0596,-32.39264c18.51008,-8.6766 38.17704,-16.19632 38.17704,-16.19632c27.09202,-32.7362 81.79491,-72.49548 114.53111,-87.92288c0,0 6.94128,-3.47064 15.03944,-6.36284c8.09816,-2.89219 52.20684,-11.28366 74.18756,-11.28366c71.35328,-3.36064 146.10581,-0.15158 208.58628,18.91444c13.07029,4.14836 17.4365,14.92838 24.95622,28.2325c7.51972,13.30412 16.77476,37.5986 16.77476,37.5986c7.59433,12.0428 16.71423,24.82905 24.29448,37.5986c2.31376,4.04908 16.77476,39.33392 19.66696,43.383c2.8922,4.04908 5.53899,18.1595 5.53899,21.63014c0,1.98963 1.17711,10.05932 1.01487,14.15318c-0.12077,3.04732 -2.58026,3.8655 -2.73121,2.77109c0,0 -1.50889,-21.20122 -2.08733,-24.09342c-0.57844,-2.8922 -3.47064,-12.72567 -3.47064,-12.72567c0,0 -1.15688,-5.7844 -8.09816,-4.04908c-11.90118,3.68575 -18.37946,20.62139 -21.40228,30.65731c-7.27654,19.46572 -6.15072,31.15001 -16.41601,49.92346z" fill="#3f007f" id="path3000"/>
    <path d="m600.82033,918.959654c1.73532,-2.8922 20.36176,-40.06414 27.88148,-52.21138c7.51972,-12.14724 28.80564,-47.85874 28.80564,-47.85874c-67.66404,-8.10213 -130.4855,-3.06482 -197.95384,4.15308c-31.90911,16.67934 -91.74002,58.53001 -114.53565,88.18679c1.73532,0.57844 22.52981,4.25961 89.0504,5.99493c66.5206,1.73532 166.75197,1.73532 166.75197,1.73532z" fill="#1a1a1a" id="path3322"/>
    <path d="m651.99523,913.986524c0,0 -2.85253,-20.61163 -3.4491,-23.6195c-0.59657,-3.00786 -4.17598,-18.0472 -4.17598,-18.0472c0,0 22.69347,-41.17706 26.84559,-45.7196c4.97618,-5.44409 7.307,-6.09419 17.30049,-7.21888c19.61505,-0.9819 52.83552,1.36023 71.58822,13.23462c3.068,1.99762 9.73192,7.60829 13.50654,15.4326c4.71071,9.76473 13.02367,26.55424 15.69283,33.29278c1.12927,2.85094 3.84503,10.15383 -0.33095,11.35697c-4.17598,1.20315 -44.11831,6.27052 -59.56723,9.04641c-25.06905,4.50446 -64.12207,11.07615 -77.41041,12.2418z" fill="#1a1a1a" id="path3301"/>
    <path d="m596.42441,916.761694c1.73532,-2.8922 19.38292,-33.24081 26.12311,-45.83729c13.67401,-25.5548 29.28294,-49.53712 29.28294,-49.53712c-60.35933,-7.16961 -123.05801,-3.2231 -190.52635,3.9948c0,0 -25.09728,12.59597 -51.12708,31.68449c-18.62582,11.86401 -59.9597,48.19424 -61.93063,53.30799c5.2203,1.11864 24.37718,3.09297 90.89777,4.82829c66.5206,1.73532 157.28024,1.55884 157.28024,1.55884z" fill="#000000" id="path2996"/>
    <path d="m656.00526,907.660794c0,0 -2.54689,-13.57406 -3.12533,-16.46626c-0.57844,-2.8922 -4.04908,-17.3532 -4.04908,-17.3532c0,0 22.09163,-39.49404 26.0298,-43.96144c4.42008,-5.01407 7.08496,-5.85984 16.77476,-6.94128c19.01899,-0.94414 51.22995,1.30792 69.41279,12.72568c2.97477,1.9208 7.17609,5.69288 10.82267,13.21933c4.58772,9.46893 12.66722,25.00575 13.66345,27.78189c2.34548,6.53598 5.45915,11.27692 1.29127,11.87871c-8.01227,1.15688 -33.91937,4.83261 -51.98948,7.61262c-15.03943,2.31376 -78.83085,11.50395 -78.83085,11.50395z" fill="#000000" id="path2998"/>
    <path d="m503.79991,989.788924c0,0 101.6792,-24.7071 150.45988,-35.79361c48.78068,-11.08652 157.1118,-37.06065 157.1118,-37.06065l-1.37067,-2.3709c0,0 -117.73021,28.02827 -160.17573,37.531c-42.44553,9.50273 -148.24259,33.89307 -148.24259,33.89307l2.21731,3.80109z" fill="#000000" id="path3006"/>
    <path d="m264.36401,964.349064c0,0 22.83435,3.5992 69.61554,6.4131c46.78119,2.81391 96.36333,3.63083 117.88188,4.5726c-8.11476,3.7326 -11.38822,5.64867 -15.25734,8.81431c-3.86912,3.16565 -6.40957,6.08303 -11.48736,10.65955c-13.71779,-0.70347 -130.53186,-7.16302 -133.34577,-8.56998c-2.8139,-1.40695 -33.25153,-5.98773 -33.25153,-5.98773c3.73006,-7.46012 5.37832,-13.1043 5.84458,-15.90185z" fill="#5f00bf" id="path3364"/>
    <path d="m428.87828,996.582254c0,0 -74.23389,-3.78043 -113.06921,-7.56086c-38.83532,-3.78043 -69.42244,-8.93556 -69.42244,-8.93556l0.68736,-2.06205c0,0 45.70883,6.52983 79.38902,9.27923c33.68019,2.74941 104.47732,6.87351 104.47732,6.87351l-2.06205,2.40573z" fill="#000000" id="path3776"/>
    <path d="m425.23998,1119.093454c0,0 -13.51339,14.34204 -16.91232,18.77213c-4.87637,6.35576 -10.88795,3.68357 -16.70176,3.68357c-62.35416,-9.93369 -125.27783,-20.81127 -167.64914,-33.84013c-1.62189,-0.5191 -2.4357,-2.37634 -3.90233,-4.79629c-5.26077,-8.68028 -9.43439,-22.66934 -9.74968,-25.63304c-0.58211,-2.16967 0.64851,-3.79458 5.18915,-2.68848c67.8207,17.61079 119.83466,22.82847 210.38792,34.01391c8.45829,1.0448 1.59475,7.54485 -0.66184,10.48833z" fill="#000000" id="path3780"/>
    <path d="m485.34721,973.572904c0,0 17.71246,-15.52048 42.13728,-24.04077c24.42482,-8.52029 79.52267,-24.42482 81.79475,-24.42482c2.27207,0 186.31026,-30.10501 186.31026,-30.10501l11.36038,18.17661l-304.6422,70.05031c-4.61795,-5.28698 -9.51278,-8.96259 -16.96047,-9.65632z" fill="#5f00bf" id="path4136"/>
    <path d="m773.363096,945.105714c1.022201,6.07852 -1.509816,11.00613 -5.655409,11.00613c-4.145594,0 -8.334915,-4.92761 -9.357116,-11.00613c-1.022201,-6.07852 1.509803,-11.00614 5.655397,-11.00614c4.145594,0 8.334927,4.92762 9.357129,11.00614z" fill="#5f00bf" id="path3226"/>
    <path d="m775.17692,944.899814c0,0 -13.53995,4.53066 -17.5495,5.33257c-2.04137,0.40828 -2.82123,-0.061 -2.86853,-1.18104c-0.0495,-1.17196 -0.22085,-2.59128 -0.21357,-3.56323c0.003,-0.37113 -0.10594,-1.63406 1.28284,-2.00371c1.3654,-0.36342 12.10879,-3.12505 17.0262,-4.97289c1.86783,-0.70189 2.40384,1.36898 2.40384,1.36898l1.08657,2.62955c0,0 0.67264,1.83762 -1.16785,2.38977z" fill="#000000" id="path3788"/>
    <path d="m503.4882,1007.130257c-6.431044,18.463704 -29.995016,33.431496 -52.631611,33.431496c-22.636587,0 -35.773776,-14.967792 -29.342732,-33.431496c6.43104,-18.463695 29.995012,-33.431487 52.6316,-33.431487c22.636595,0 35.773784,14.967792 29.342743,33.431487z" fill="#ffffaa" id="path3166"/>
    <path d="m342.92782,966.811894c0,0 8.42018,-9.68319 31.99666,-23.36597c23.57648,-13.68278 47.36347,-23.78699 47.36347,-23.78699c0,0 -30.10212,15.36681 -44.41641,23.99749c-14.31429,8.63068 -34.94372,23.15547 -34.94372,23.15547z" fill="#000000" id="path3174"/>
    <path d="m640.580259,1113.322475c-4.38987,36.972586 -24.06244,66.944786 -43.939901,66.944786c-19.87747,0 -32.432645,-29.9722 -28.042775,-66.944786c4.38987,-36.972586 24.062431,-66.944786 43.939901,-66.944786c19.877461,0 32.432645,29.9722 28.042775,66.944786z" fill="#333333" id="path3944"/>
    <path d="m657.06748,868.946214c0,0 -7.53782,19.43967 57.52557,-1.19018c13.24147,-4.19852 -18.24949,-5.5542 -2.38037,-6.34765c15.86912,-0.79346 63.47648,15.07566 55.93865,1.58691c-7.53783,-13.48875 3.96728,-20.62986 -11.90184,-26.18405c-15.86912,-5.55419 -53.55828,-14.28221 -64.66667,-9.9182c-11.10838,4.36401 -13.09202,1.19018 -16.26585,8.33129c-3.17382,7.1411 -18.24949,33.72188 -18.24949,33.72188z" fill="#333333" id="path4042"/>
    <path d="m750.17178,896.083224c0,0 -5.25562,-29.56237 -9.34969,-43.10429c-4.09407,-13.54192 -8.57267,-29.0379 -8.57267,-29.0379c3.86307,0.80046 7.47263,1.85306 11.09209,2.79272c0,0 8.29619,20.15883 13.54193,39.7871c4.29219,16.0603 7.16389,27.5207 7.16389,27.5207l-13.87555,2.04167z" fill="#1a1a1a" id="path3211"/>
    <path d="m798.55445,1019.326834c0,0 -20.27134,5.1857 -34.41414,10.84282c-14.1428,5.65711 -113.61381,34.41414 -113.61381,40.07126c0,5.65711 0.87327,17.86202 0.87327,17.86202c0,0 8.08383,-0.41924 38.25514,-12.67633c30.1713,-12.25709 99.47101,-32.52844 100.41386,-34.41414c0.94285,-1.88571 8.48568,-21.68563 8.48568,-21.68563z" fill="#5f00bf" id="path3356"/>
    <path d="m655.70552,923.829644l6.7362,-1.30879c0,0 0.5317,1.32925 2.65848,-0.26585c2.12679,-1.59509 9.30471,-10.63394 9.30471,-10.63394c0,0 -3.93457,-7.33743 -4.51943,-15.41923c-1.4877,-17.10045 16.08628,-17.18062 33.76278,-15.15337c14.61635,3.15035 25.90282,14.20448 21.00205,25.78732c-4.38477,9.23552 -20.31477,7.04881 -33.49694,7.70961c0,0 -13.02658,14.62168 -13.82413,16.48262c-0.79754,1.86094 -1.32924,5.58282 -1.32924,5.58282c0,0 -5.31697,2.92434 -6.38037,4.25358c-1.06339,1.32924 -5.66023,2.41852 -8.773,-2.92433c-7.37015,-12.65031 -5.14111,-14.11044 -5.14111,-14.11044z" fill="#000000" id="path3786"/>
    <path d="m840.316448,1028.569745c-1.721297,23.718955 -9.771603,42.946971 -17.980867,42.946971c-8.209263,0 -13.468796,-19.228016 -11.747499,-42.946971c1.721298,-23.718965 9.771604,-42.946981 17.980867,-42.946981c8.209263,0 13.468796,19.228016 11.747498,42.946981z" fill="#333333" id="path3946"/>
    <path d="m587.90184,914.075044c40.94055,-48.67529 30.54888,-60.46103 40.2863,-85.11247c3.03561,-16.50717 -23.84206,15.34301 -33.66054,32.06544c-2.04499,3.68098 10.14316,-34.06953 -3.35378,-16.07362c-13.49693,17.99591 -19.49471,37.68939 -17.70961,27.19836c5.94195,-34.92073 -39.6319,38.97751 -39.6319,41.4315c0,2.45399 54.06953,0.49079 54.06953,0.49079z" fill="#333333" id="path4134"/>
    <path d="m219.32374,1119.443464c0,0 33.26121,9.85268 66.41573,17.09499c68.64426,14.99474 127.28055,24.90512 143.74117,26.40154c16.46062,1.49642 92.07386,-6.41165 95.0667,-6.41165c2.99284,0 9.97613,-0.99761 3.49164,2.49403c-6.48448,3.49165 -41.8498,9.05882 -51.30628,10.23769c-27.03474,3.37023 -48.56204,5.55021 -101.46319,-5.81385c-15.6058,-3.35238 -16.38646,-1.80906 -48.31009,-9.78997c-31.92362,-7.98091 -48.15917,-7.57538 -100.65239,-26.73068c-5.79605,-2.11504 -6.98329,-7.4821 -6.98329,-7.4821z" fill="#5f00bf" id="path4138"/>
    <path d="m680.34356,906.107764c-5.74233,-1.95092 -8.47086,-4.05517 -8.76074,-8.85889c-0.21319,-3.53285 -1.10429,-6.92024 3.33743,-11.23927c4.8311,-3.16568 12.54724,-5.93354 30.773,-2.6503c9.40131,2.92793 16.77899,7.52263 17.05822,17.71794c-3.67308,14.08272 -26.94926,9.88213 -42.40791,5.03052z" fill="#191919" id="path4140"/>
    <path d="m423.03885,1081.592424c0,0 -0.82234,2.75313 -3.68557,2.52666c-14.57906,-1.15313 -69.5165,-6.80671 -115.48416,-14.08493c-46.2232,-7.31868 -77.03286,-14.51522 -84.55643,-16.33688c-1.18392,-0.28666 -0.87237,-2.27792 -0.87237,-2.27792c0,0 1.756,-9.7533 4.43085,-9.7533c2.67484,0 52.14723,10.03681 79.3415,13.15746c27.19428,3.12066 113.24745,15.82004 119.04295,15.82004c5.7955,0 1.78323,10.94887 1.78323,10.94887z" fill="#000000" id="path3303"/>
    <path d="m254.041437,986.080155c-7.858282,14.367042 -18.284209,26.013833 -23.286957,26.013833c-5.002746,0 -2.687878,-11.646791 5.170405,-26.013833c7.858278,-14.367035 18.284205,-26.013826 23.286951,-26.013826c5.002748,0 2.687879,11.646791 -5.170399,26.013826z" fill="#ffffaa" id="path4073"/>
    <path d="m360.3983,900.821024c0,0 32.13687,-25.99852 38.38081,-30.03871c6.24394,-4.0402 27.5468,-23.50661 24.24118,-13.58976c-3.30561,9.91685 0.3673,6.97852 11.38601,-2.20374c11.01872,-9.18227 42.80456,-25.22046 42.80456,-25.22046c0,0 16.89537,-9.91685 7.34582,3.30561c-9.54956,13.22247 -50.51767,49.82894 -57.1289,53.13455c-6.61123,3.30562 17.99724,-26.81221 -0.36729,-10.65143c-18.36453,16.16079 -30.76668,26.73972 -30.76668,26.73972c0,0 -6.06975,7.6812 -21.55794,7.75703c-22.47105,0.11001 -14.33757,-9.23281 -14.33757,-9.23281z" fill="#333333" id="path3275"/>
    <path d="m550.538719,1091.145019c0,37.62313 -17.7548,68.1227 -39.65644,68.1227c-21.90165,0 -39.65644,-30.49957 -39.65644,-68.1227c0,-37.62313 17.75479,-68.1227 39.65644,-68.1227c21.90164,0 39.65644,30.49957 39.65644,68.1227z" fill="#cccccc" id="path4037" transform="matrix(0.636982, 0, -0.0818916, 0.745197, 371.248, 299.325)"/>
    <path d="m724.783401,1011.353182c0,23.64708 -7.22507,42.81683 -16.13765,42.81683c-8.91258,0 -16.13765,-19.16975 -16.13765,-42.81683c0,-23.64709 7.22507,-42.81684 16.13765,-42.81684c8.91258,0 16.13765,19.16975 16.13765,42.81684z" fill="#cccccc" id="path4039" transform="matrix(0.540161, 0, -0.0426875, 0.740161, 486.365, 279.22)"/>
   </g>
  </g>
 </g>
</svg>