<?xml version="1.0"?>
<svg width="764.9866899999998" height="657.58667" xmlns="http://www.w3.org/2000/svg" xmlns:svg="http://www.w3.org/2000/svg">
 <metadata id="metadata8">image/svg+xml</metadata>

 <g class="layer" display="inline">
  <title>Layer 1</title>
  <g id="g10">
   <g id="g12">
    <path d="m528.460755,867.496051c-0.006235,-1.04538 0.131718,-1.947385 0.423269,-2.686191c0.280858,-0.751389 0.680861,-1.330733 1.197331,-1.741494c0.513891,-0.39823 1.082011,-0.605083 1.709734,-0.609191c0.995333,-0.006515 1.839342,0.427317 2.527887,1.274969c0.68994,0.859044 1.03984,2.11518 1.049791,3.783548c0.009387,1.573882 -0.325719,2.798088 -0.994752,3.664388c-0.679558,0.881579 -1.52098,1.326473 -2.522949,1.333031c-0.5972,0.00391 -1.159702,-0.182501 -1.674274,-0.565836c-0.506567,-0.376311 -0.921369,-0.943329 -1.236418,-1.69674c-0.316455,-0.766429 -0.473193,-1.67892 -0.479621,-2.756486l0.000001,0.000001zm7.040518,-5.799171l0.002835,0.47521c-0.683577,-0.904828 -1.388357,-1.581777 -2.122115,-1.999507c-0.736471,-0.427446 -1.572517,-0.638732 -2.49884,-0.632668c-1.108138,0.007253 -2.129458,0.329554 -3.061334,0.962296c-0.927891,0.633409 -1.660332,1.549038 -2.198555,2.763159c-0.53426,1.210896 -0.79253,2.634382 -0.782686,4.284829c0.007224,1.211134 0.165248,2.339221 0.484424,3.339187c0.317941,1.015713 0.754387,1.873692 1.303927,2.557133c0.550873,0.684517 1.204342,1.214129 1.945724,1.574791c0.752073,0.373077 1.556063,0.550302 2.404088,0.54475c1.036474,-0.006785 1.901733,-0.237842 2.599737,-0.696994c0.704655,-0.456484 1.364272,-1.121229 1.989409,-2.004077l0.035316,5.921338c0.010365,1.737903 0.594153,2.600348 1.748739,2.59279c0.679481,-0.004448 1.130698,-0.230079 1.34171,-0.67627c0.220269,-0.451683 0.325186,-1.107367 0.320088,-1.96219l-0.101632,-17.040103c-0.004476,-0.750493 -0.152491,-1.312766 -0.457277,-1.680609c-0.307433,-0.366298 -0.71731,-0.552566 -1.233555,-0.549186c-0.510937,0.003345 -0.926524,0.195017 -1.245382,0.58335c-0.318881,0.38444 -0.478838,0.935102 -0.474616,1.642774" fill="#100f0d" fill-rule="nonzero" id="path14"/>
    <path d="m512.594217,873.453116l-0.002967,-0.49747c0.437516,0.592382 0.893037,1.088531 1.373201,1.488373c0.478888,0.408554 0.999571,0.703854 1.563418,0.893508c0.57051,0.193963 1.213428,0.289694 1.936703,0.28496c0.86793,-0.005681 1.648413,-0.209572 2.340154,-0.606227c0.69173,-0.398295 1.225952,-0.948167 1.594741,-1.643042c0.451519,-0.842616 0.663304,-2.049177 0.653965,-3.614912l-0.046661,-7.82321c-0.004685,-0.785391 -0.170132,-1.377857 -0.500251,-1.765141c-0.328792,-0.38729 -0.759945,-0.580511 -1.296098,-0.577002c-0.548097,0.003588 -0.984875,0.20249 -1.31958,0.603856c-0.333398,0.39816 -0.495779,0.987351 -0.491159,1.761897l0.037713,6.323195c0.005416,0.908044 -0.058994,1.679692 -0.19201,2.296998c-0.144914,0.624989 -0.394164,1.113251 -0.760969,1.47302c-0.356257,0.348284 -0.854197,0.528066 -1.479267,0.532158c-0.614453,0.004022 -1.18763,-0.192092 -1.723476,-0.582352c-0.545118,-0.386918 -0.941009,-0.898666 -1.188998,-1.534113c-0.206387,-0.558594 -0.314546,-1.781525 -0.325808,-3.669828l-0.028641,-4.802021c-0.00462,-0.774546 -0.175343,-1.361557 -0.516118,-1.755304c-0.334159,-0.396988 -0.765312,-0.590209 -1.306774,-0.586665c-0.538807,0.003527 -0.968949,0.202386 -1.293096,0.59395c-0.320165,0.391539 -0.477205,0.986118 -0.472522,1.771509l0.068195,11.4337c0.00448,0.751091 0.157819,1.316011 0.473229,1.684898c0.312818,0.379221 0.716028,0.560152 1.212368,0.556903c0.492359,-0.003223 0.895932,-0.206273 1.21881,-0.588029c0.3188,-0.39801 0.476154,-0.939992 0.471898,-1.653614" fill="#100f0d" fill-rule="nonzero" id="path16"/>
    <path d="m502.08933,867.824621c0.009362,1.56953 -0.309937,2.774084 -0.959153,3.625044c-0.654567,0.843945 -1.514643,1.276461 -2.582967,1.283454c-0.909072,0.005951 -1.688016,-0.422358 -2.355379,-1.278824c-0.66474,-0.86192 -1.001184,-2.087153 -1.010805,-3.700144c-0.006268,-1.050872 0.126436,-1.94297 0.395352,-2.69428c0.272854,-0.758287 0.658232,-1.341986 1.153479,-1.750938c0.507172,-0.412229 1.084533,-0.627345 1.757378,-0.631749c0.694079,-0.004544 1.297849,0.20284 1.841748,0.608189c0.545208,0.402142 0.966805,0.995713 1.283315,1.771415c0.31381,0.768073 0.470588,1.687056 0.477034,2.767834l-0.000001,0zm0.099898,-11.732979l0.03598,6.032591c-0.673505,-0.773783 -1.373724,-1.353572 -2.080914,-1.767168c-0.708452,-0.402741 -1.585591,-0.605555 -2.623391,-0.598762c-1.201035,0.007862 -2.247572,0.330327 -3.147671,0.950486c-0.898663,0.638502 -1.598016,1.538758 -2.087317,2.72211c-0.495942,1.182422 -0.733097,2.585748 -0.723449,4.203522c0.007143,1.197564 0.150359,2.290447 0.432393,3.29391c0.284615,0.990946 0.689209,1.849133 1.2258,2.586439c0.537846,0.72534 1.183508,1.281059 1.935797,1.690535c0.760119,0.387151 1.590776,0.584834 2.498519,0.578891c0.550751,-0.003605 1.077174,-0.080908 1.568687,-0.225888c0.486178,-0.149269 0.905746,-0.341023 1.240053,-0.586527c0.347702,-0.224958 0.639494,-0.478332 0.880898,-0.724312c0.238682,-0.257363 0.554973,-0.630928 0.946132,-1.135328l0.002303,0.386148c0.004447,0.745656 0.175003,1.304497 0.505079,1.68469c0.323435,0.379151 0.746568,0.562663 1.242906,0.559414c0.514919,-0.00337 0.918577,-0.192295 1.224192,-0.575564c0.298926,-0.392457 0.446908,-0.947947 0.442478,-1.690892l-0.102799,-17.235637c-0.004735,-0.794011 -0.154333,-1.399095 -0.456696,-1.805607c-0.295747,-0.409753 -0.705708,-0.610064 -1.237879,-0.60658c-0.552078,0.003614 -0.980903,0.200795 -1.2745,0.596471c-0.300275,0.388628 -0.450919,0.943121 -0.446602,1.66706" fill="#100f0d" fill-rule="nonzero" id="path18"/>
    <path d="m489.048926,873.437799l-0.10207,-17.113345c-0.004735,-0.794011 -0.16753,-1.386635 -0.487139,-1.791922c-0.330184,-0.398127 -0.764033,-0.598281 -1.310803,-0.594702c-0.54677,0.003579 -0.983548,0.20248 -1.318231,0.607602c-0.326749,0.400203 -0.498323,1.005859 -0.49357,1.802651l0.10207,17.113345c0.004778,0.80106 0.183555,1.403284 0.523045,1.804061c0.339425,0.389904 0.781238,0.590132 1.317391,0.586623c0.529517,-0.003466 0.95295,-0.214794 1.283583,-0.631345c0.327979,-0.416547 0.490344,-1.008519 0.485724,-1.782968" fill="#100f0d" fill-rule="nonzero" id="path20"/>
    <path d="m478.036251,862.110446l0.067988,11.398997c0.004742,0.795082 0.184814,1.391873 0.522986,1.794287c0.348741,0.394182 0.789258,0.599855 1.313468,0.596422c0.530844,-0.003474 0.960912,-0.214846 1.286263,-0.627025c0.325299,-0.420867 0.492972,-1.012874 0.488353,-1.787322l-0.067316,-11.286521c-0.00462,-0.774546 -0.179324,-1.361531 -0.509483,-1.755347c-0.330177,-0.397015 -0.762658,-0.590227 -1.293502,-0.586751c-0.524209,0.003431 -0.962314,0.202341 -1.306309,0.60377c-0.333398,0.39816 -0.506644,0.945712 -0.502448,1.649491zm1.761952,-4.092416c0.501649,-0.003284 0.926647,-0.17444 1.290865,-0.522888c0.344377,-0.337334 0.525976,-0.819731 0.522287,-1.438283c-0.003307,-0.554459 -0.190507,-1.011083 -0.558978,-1.375869c-0.368446,-0.360336 -0.792805,-0.527045 -1.277201,-0.523874c-0.467143,0.003057 -0.88291,0.164421 -1.24061,0.493083c-0.357697,0.329358 -0.537962,0.812857 -0.534279,1.430298c0.003656,0.61313 0.184318,1.086064 0.539334,1.419933c0.355053,0.339846 0.770207,0.520797 1.258584,0.517601" fill="#100f0d" fill-rule="nonzero" id="path22"/>
    <path d="m461.431518,871.133834c0.002922,0.489865 0.138775,1.015802 0.408864,1.573978c0.276712,0.555964 0.68862,1.082805 1.245054,1.586982c0.549779,0.500954 1.247608,0.902639 2.08684,1.202916c0.837969,0.311144 1.785096,0.455397 2.830859,0.44855c2.232201,-0.014613 3.966464,-0.739087 5.212123,-2.165852c1.240332,-1.429984 1.855391,-3.334913 1.841129,-5.72615c-0.009652,-1.6184 -0.302218,-3.052462 -0.880265,-4.2875c-0.579358,-1.232388 -1.421221,-2.196384 -2.505518,-2.864868c-1.085674,-0.676678 -2.388267,-1.007542 -3.88923,-0.997716c-0.938267,0.006143 -1.795996,0.164837 -2.574581,0.464275c-0.777213,0.307076 -1.435808,0.698051 -1.974484,1.168741c-0.53996,0.477652 -0.949673,0.986568 -1.234499,1.517886c-0.286125,0.535777 -0.422486,1.037481 -0.419726,1.500179c0.002779,0.465895 0.168407,0.866212 0.48888,1.193771c0.325791,0.329193 0.711612,0.487395 1.170792,0.484389c0.303909,-0.00199 0.548887,-0.09369 0.75093,-0.263386c0.191462,-0.163649 0.414161,-0.430668 0.661367,-0.816307c0.433593,-0.732784 0.894781,-1.28931 1.37164,-1.666025c0.479584,-0.364914 1.088939,-0.556187 1.822831,-0.56099c1.072306,-0.00702 1.935034,0.450049 2.59074,1.354922c0.659724,0.910825 0.988312,2.15403 0.997742,3.734975c0.004395,0.736967 -0.075092,1.428335 -0.239962,2.045307c-0.162158,0.626729 -0.400546,1.155644 -0.713762,1.599791c-0.315896,0.439826 -0.693477,0.773054 -1.144668,1.003027c-0.447187,0.233743 -0.941545,0.346694 -1.475044,0.350186c-0.728584,0.004769 -1.345433,-0.170426 -1.863869,-0.534174c-0.519779,-0.366451 -0.979649,-0.923942 -1.379555,-1.663754c-0.223012,-0.453136 -0.462612,-0.794809 -0.720264,-1.047839c-0.260279,-0.248674 -0.574191,-0.366109 -0.943127,-0.363694c-0.440602,0.002884 -0.804495,0.183414 -1.096933,0.550844c-0.28309,0.377142 -0.426773,0.763689 -0.424304,1.177531" fill="#100f0d" fill-opacity="0" fill-rule="nonzero" id="path24"/>
    <path d="m455.46722,868.014117c0.006385,1.070434 -0.140844,1.97514 -0.438912,2.733662c-0.30207,0.755268 -0.708804,1.318431 -1.234731,1.701501c-0.529865,0.390173 -1.107353,0.584045 -1.727112,0.588102c-0.637014,0.00417 -1.216735,-0.176691 -1.741739,-0.528994c-0.530357,-0.359874 -0.946423,-0.916025 -1.269374,-1.659053c-0.317633,-0.74145 -0.478486,-1.676188 -0.48513,-2.790069c-0.0063,-1.056294 0.143615,-1.955596 0.452274,-2.718567c0.313989,-0.759669 0.729916,-1.339118 1.25833,-1.749957c0.532471,-0.398352 1.112534,-0.605281 1.746893,-0.609434c0.659574,-0.004317 1.250072,0.203153 1.775392,0.608624c0.518666,0.402316 0.930967,0.994835 1.219536,1.758763c0.288582,0.766153 0.438494,1.646529 0.444571,2.665423l0.000001,0zm-7.060201,5.836909l-0.002303,-0.386148c0.489347,0.604543 0.970042,1.093462 1.448714,1.465619c0.466786,0.382009 0.982095,0.666484 1.534031,0.861653c0.550567,0.188115 1.152364,0.287369 1.803976,0.283104c0.862622,-0.005646 1.666968,-0.214031 2.397195,-0.610939c0.730094,-0.419179 1.363749,-0.986539 1.898137,-1.730842c0.531715,-0.747553 0.93394,-1.62188 1.207964,-2.628982c0.275394,-1.000049 0.404294,-2.084938 0.3973,-3.257518c-0.014677,-2.460724 -0.578273,-4.388402 -1.687994,-5.758997c-1.113708,-1.371681 -2.564363,-2.050281 -4.359944,-2.038527c-1.039129,0.006802 -1.91649,0.211369 -2.626777,0.613526c-0.710369,0.388671 -1.40485,0.993302 -2.078135,1.813998l-0.034759,-5.827936c-0.004841,-0.811807 -0.154465,-1.42134 -0.454203,-1.832735c-0.297106,-0.415167 -0.715036,-0.616538 -1.263133,-0.61295c-0.545443,0.00357 -0.964995,0.19791 -1.261352,0.575807c-0.291031,0.380921 -0.44029,0.945137 -0.435861,1.687568l0.103819,17.406647c0.00448,0.751091 0.168435,1.315941 0.489155,1.684794c0.320781,0.379168 0.727988,0.562784 1.234944,0.559467c0.48705,-0.003188 0.899946,-0.200863 1.220121,-0.590748c0.316177,-0.39257 0.473464,-0.945938 0.469111,-1.675856" fill="#100f0d" fill-rule="nonzero" id="path26"/>
    <path d="m431.448024,868.203393c-0.009562,-1.603177 0.312059,-2.863151 0.950367,-3.763007c0.643642,-0.895442 1.514187,-1.353012 2.605072,-1.360153c0.708678,-0.00464 1.328313,0.192909 1.868174,0.588551c0.539899,0.402177 0.956139,0.987579 1.252764,1.767167c0.29392,0.770984 0.447955,1.675248 0.454191,2.720767c0.006161,1.032965 -0.137118,1.932209 -0.413889,2.701451c-0.280727,0.773592 -0.689933,1.367178 -1.22364,1.780735c-0.528405,0.412424 -1.158919,0.616417 -1.876885,0.621116c-1.090886,0.007141 -1.966787,-0.433574 -2.621116,-1.329765c-0.649001,-0.892987 -0.985577,-2.140479 -0.995038,-3.72686l0,-0.000001zm-3.62036,0.023698c0.006974,1.169286 0.181986,2.252728 0.521051,3.249839c0.341632,0.982439 0.831126,1.834092 1.465777,2.5463c0.64392,0.708907 1.404885,1.237801 2.287089,1.622526c0.883475,0.375485 1.883902,0.555218 2.980096,0.548042c1.089558,-0.007132 2.074491,-0.199862 2.941416,-0.596579c0.870943,-0.390779 1.626769,-0.945896 2.262139,-1.67077c0.631401,-0.722664 1.109446,-1.568164 1.439374,-2.547936c0.323251,-0.986778 0.481406,-2.062098 0.474306,-3.252559c-0.007123,-1.194311 -0.18351,-2.28585 -0.519856,-3.272064c-0.341713,-0.99605 -0.824501,-1.835873 -1.456444,-2.539298c-0.630581,-0.697593 -1.390272,-1.235283 -2.288335,-1.608976c-0.894099,-0.3765 -1.871996,-0.56183 -2.948284,-0.554785c-1.094867,0.007167 -2.086403,0.20539 -2.973254,0.598971c-0.88422,0.389808 -1.643999,0.949819 -2.274115,1.665397c-0.634094,0.71616 -1.109416,1.573099 -1.428695,2.558183c-0.331239,0.98252 -0.489335,2.067629 -0.482262,3.253709" fill="#100f0d" fill-rule="nonzero" id="path28"/>
    <path d="m412.56502,865.066717c0.274712,0.66572 0.410454,1.840669 0.420574,3.537233l0.031278,5.244113c0.004917,0.824416 0.177207,1.451668 0.527383,1.863776c0.344866,0.412129 0.805291,0.617671 1.367985,0.613988c0.542788,-0.003554 0.983472,-0.214993 1.318087,-0.631571c0.337269,-0.416609 0.49941,-1.046049 0.494493,-1.870465l-0.037549,-6.29557c-0.005904,-0.990046 0.025351,-1.757597 0.084401,-2.315245c0.059137,-0.543049 0.220988,-0.998621 0.493605,-1.351754c0.265961,-0.356425 0.69888,-0.534724 1.286791,-0.538573c1.18113,-0.007732 1.960135,0.430837 2.342357,1.320677c0.383484,0.878986 0.568913,2.151354 0.578826,3.813284l0.031825,5.335889c0.004908,0.822776 0.183795,1.443477 0.520673,1.851321c0.346267,0.42462 0.793421,0.630248 1.342845,0.626652c0.550751,-0.003605 1.002052,-0.215116 1.344556,-0.644243c0.349239,-0.412335 0.510092,-1.03526 0.505191,-1.856952l-0.067348,-11.29193c-0.004435,-0.743543 -0.15644,-1.307456 -0.467943,-1.688743c-0.320797,-0.381921 -0.733377,-0.576375 -1.248296,-0.573004c-0.492359,0.003223 -0.905348,0.185145 -1.229663,0.548487c-0.328303,0.362117 -0.489895,0.861206 -0.486089,1.499362l0.002232,0.374274c-0.628637,-0.816622 -1.30508,-1.415476 -2.017356,-1.791637c-0.714955,-0.380314 -1.519011,-0.568451 -2.384287,-0.562787c-0.90509,0.005924 -1.681592,0.209831 -2.33216,0.611598c-0.651936,0.394823 -1.183187,0.99783 -1.599129,1.797375c-0.613932,-0.798783 -1.270486,-1.400548 -1.970869,-1.785407c-0.699068,-0.386953 -1.469946,-0.575307 -2.312663,-0.569791c-0.995333,0.006515 -1.842114,0.220614 -2.548229,0.654861c-0.71411,0.428877 -1.24135,1.036724 -1.590968,1.830412c-0.306291,0.715127 -0.45089,1.838105 -0.441726,3.374545l0.045964,7.706465c0.004917,0.824416 0.179862,1.451651 0.520747,1.863819c0.354156,0.412068 0.803964,0.61768 1.369312,0.613979c0.548097,-0.003588 0.992762,-0.215054 1.336593,-0.644192c0.349239,-0.412335 0.520709,-1.035329 0.515801,-1.858106l-0.039612,-6.641481c-0.00506,-0.848372 0.022751,-1.525805 0.083396,-2.038832c0.064605,-0.51639 0.241252,-0.938968 0.532463,-1.28958c0.287238,-0.349473 0.729446,-0.527834 1.314702,-0.531664c0.475106,-0.00311 0.929908,0.149774 1.352399,0.448441c0.437151,0.30886 0.763438,0.721194 1.00941,1.240974l0,0" fill="#100f0d" fill-rule="nonzero" id="path30"/>
    <path d="m392.144744,868.535627c0.533467,0.213753 1.304484,0.42541 2.314523,0.659388c1.011341,0.229632 1.711755,0.397218 2.099945,0.507643c0.389524,0.111503 0.761064,0.323062 1.110676,0.640671c0.358975,0.330033 0.539477,0.776384 0.542927,1.354771c0.003599,0.603385 -0.20441,1.1082 -0.610649,1.531781c-0.4155,0.428521 -0.957072,0.636271 -1.627263,0.640657c-0.712659,0.004665 -1.377251,-0.164781 -1.979146,-0.502998c-0.605857,-0.334937 -1.055756,-0.778427 -1.336316,-1.312107c-0.330052,-0.598521 -0.503111,-1.57717 -0.511349,-2.958257l-0.00335,-0.561549l0.000001,0zm-0.199482,5.717031c0.879004,0.738318 1.725021,1.286218 2.542046,1.646385c0.814447,0.37267 1.735223,0.549128 2.743828,0.542525c0.931632,-0.006098 1.735978,-0.214483 2.439662,-0.611217c0.702293,-0.407596 1.233877,-0.954727 1.610634,-1.648583c0.370174,-0.685109 0.560883,-1.420114 0.556082,-2.224968c-0.006446,-1.080764 -0.333072,-1.994854 -0.961365,-2.75382c-0.62428,-0.753555 -1.485972,-1.259545 -2.581073,-1.514182c-0.22861,-0.05662 -0.802666,-0.177718 -1.704986,-0.374946c-0.919599,-0.201424 -1.690401,-0.377266 -2.348323,-0.540778c-0.64331,-0.161383 -1.350568,-0.36378 -2.111104,-0.598223c0.040214,-1.045823 0.226773,-1.808969 0.560892,-2.30877c0.340853,-0.483301 1.046785,-0.725815 2.107146,-0.732755c0.922342,-0.006038 1.607938,0.124618 2.0794,0.40072c0.460832,0.273945 0.862813,0.693849 1.191337,1.258692c0.33907,0.552956 0.569546,0.922398 0.707284,1.096823c0.141759,0.181072 0.43686,0.26006 0.878789,0.257167c0.411405,-0.002693 0.758269,-0.145669 1.048559,-0.428286c0.296893,-0.288221 0.442061,-0.648165 0.439375,-1.098351c-0.004123,-0.691405 -0.233785,-1.369378 -0.68488,-2.013226c-0.45382,-0.655788 -1.159062,-1.187856 -2.111855,-1.614441c-0.954066,-0.417401 -2.144409,-0.619695 -3.56442,-0.610399c-1.581917,0.010355 -2.830802,0.228616 -3.741425,0.641956c-0.90267,0.41162 -1.533187,1.059906 -1.906084,1.956217c-0.372969,0.883937 -0.550398,2.065386 -0.541666,3.529531c0.005506,0.923171 0.010223,1.713984 0.019354,2.354789c0.010526,0.652211 0.018776,1.367976 0.031452,2.158125c0.004402,0.738065 -0.10244,1.515969 -0.324598,2.318514c-0.214173,0.806289 -0.323877,1.326769 -0.322526,1.553238c0.002423,0.406237 0.181141,0.776019 0.529493,1.105037c0.34304,0.328511 0.743505,0.494248 1.180125,0.491391c0.376899,-0.002468 0.732781,-0.191079 1.098117,-0.574738c0.358693,-0.3847 0.737595,-0.941703 1.140729,-1.663429" fill="#100f0d" fill-rule="nonzero" id="path32"/>
    <path d="m381.293819,862.743721l0.067988,11.398997c0.004742,0.795082 0.18216,1.391892 0.522986,1.794287c0.346087,0.394199 0.779969,0.599915 1.310813,0.59644c0.526863,-0.003449 0.962239,-0.214854 1.284936,-0.627015c0.333261,-0.42092 0.495626,-1.012892 0.491008,-1.787341l-0.067316,-11.286521c-0.00462,-0.774546 -0.174016,-1.361565 -0.512137,-1.755329c-0.327523,-0.397033 -0.765312,-0.590209 -1.292175,-0.586761c-0.530844,0.003474 -0.962314,0.202341 -1.303655,0.603752c-0.336052,0.398178 -0.506644,0.945712 -0.502448,1.649491zm1.760625,-4.092408c0.49634,-0.003249 0.922666,-0.174413 1.278921,-0.52281c0.354995,-0.337403 0.537921,-0.819809 0.534231,-1.438361c-0.003307,-0.554459 -0.193161,-1.011066 -0.56296,-1.375843c-0.364465,-0.360362 -0.795459,-0.527027 -1.27322,-0.5239c-0.469797,0.003075 -0.886891,0.164447 -1.247246,0.493126c-0.353715,0.329331 -0.529999,0.812806 -0.526316,1.430246c0.003656,0.61313 0.180337,1.086091 0.53668,1.41995c0.353726,0.339855 0.774188,0.520771 1.259911,0.517592" fill="#100f0d" fill-rule="nonzero" id="path34"/>
    <path d="m374.279696,862.73263l0.002812,0.471456c-0.635826,-0.909451 -1.332585,-1.576718 -2.083629,-1.999759c-0.758999,-0.421875 -1.626888,-0.631841 -2.608951,-0.625414c-0.94623,0.006194 -1.800873,0.237168 -2.551945,0.699379c-0.73917,0.455041 -1.298066,1.095769 -1.659422,1.924294c-0.237315,0.486515 -0.384143,1.013177 -0.456465,1.570911c-0.061734,0.552799 -0.098614,1.267275 -0.093422,2.137753l0.043774,7.339407c0.004742,0.795082 0.179506,1.391908 0.509715,1.794373c0.334143,0.394277 0.765371,0.600011 1.290906,0.596571c0.53748,-0.003519 0.97551,-0.214942 1.294199,-0.631414c0.337269,-0.416609 0.50627,-1.008623 0.50165,-1.783072l-0.039188,-6.570283c-0.007804,-1.308429 0.146856,-2.302167 0.471881,-2.991417c0.332983,-0.690275 0.991795,-1.044822 1.979166,-1.051286c0.640995,-0.004196 1.227521,0.204831 1.758221,0.622223c0.530662,0.410996 0.921628,0.986832 1.171524,1.719453c0.180014,0.587089 0.279429,1.679131 0.289088,3.298629l0.029437,4.93563c0.004778,0.80106 0.174265,1.403344 0.519063,1.804087c0.342079,0.389888 0.781238,0.590132 1.317391,0.586623c0.516246,-0.00338 0.946314,-0.21475 1.276973,-0.626964c0.337243,-0.420947 0.49828,-1.012908 0.493662,-1.787357l-0.067988,-11.398997c-0.004503,-0.754942 -0.155129,-1.310106 -0.462579,-1.679462c-0.295514,-0.370686 -0.715992,-0.554243 -1.233566,-0.550855c-0.310543,0.002033 -0.601987,0.091394 -0.851872,0.25056c-0.261799,0.164109 -0.45803,0.418441 -0.612747,0.735069c-0.146638,0.33604 -0.230513,0.736878 -0.227692,1.209863" fill="#100f0d" fill-rule="nonzero" id="path36"/>
    <path d="m359.012897,863.103549l-2.860899,8.97851l-3.203673,-9.329229c-0.253993,-0.752198 -0.498664,-1.276434 -0.742079,-1.590317c-0.24339,-0.309572 -0.600003,-0.46588 -1.081743,-0.462726c-0.45918,0.003006 -0.84702,0.173918 -1.174096,0.519343c-0.312537,0.335457 -0.472154,0.720523 -0.469443,1.175018c0.001021,0.171149 0.03273,0.369764 0.09114,0.594761c0.053166,0.235876 0.120813,0.452054 0.201684,0.66008c0.075472,0.192906 0.155173,0.427496 0.261558,0.68541l3.517138,9.371753c0.098479,0.267641 0.229272,0.612752 0.381718,1.027781c0.160389,0.411724 0.336306,0.757067 0.522599,1.061632c0.196818,0.289271 0.427736,0.510442 0.703433,0.673745c0.283653,0.162166 0.622565,0.243577 1.019371,0.24098c0.510937,-0.003345 0.916279,-0.132536 1.222669,-0.386004c0.301046,-0.259412 0.525004,-0.537868 0.667811,-0.848369c0.140225,-0.298554 0.387442,-0.905194 0.721834,-1.804062l3.384447,-9.315433c0.078276,-0.227004 0.161819,-0.460994 0.246695,-0.69402c0.076924,-0.231305 0.140574,-0.462523 0.201482,-0.709019c0.054277,-0.245339 0.084894,-0.452427 0.083907,-0.618014c-0.001643,-0.275422 -0.077551,-0.541598 -0.231743,-0.804482c-0.152885,-0.266229 -0.361223,-0.484266 -0.624973,-0.64716c-0.26907,-0.164945 -0.549613,-0.250562 -0.865465,-0.248495c-0.593218,0.003883 -1.004839,0.192888 -1.229485,0.57838c-0.223397,0.372414 -0.473118,1.004027 -0.743883,1.889937" fill="#100f0d" fill-rule="nonzero" id="path38"/>
    <path d="m344.276994,867.485139l-6.540005,0.04281c0.074261,-1.345116 0.3987,-2.355259 0.977324,-3.026009c0.574646,-0.670167 1.333083,-1.010211 2.277986,-1.016397c0.893146,-0.005846 1.637025,0.328673 2.214367,1.000477c0.581323,0.671916 0.933695,1.674849 1.070328,2.999118zm-7.046841,2.291427l7.060232,-0.046216c0.00404,0.899921 -0.163785,1.689068 -0.475523,2.380872c-0.322424,0.68046 -0.744016,1.200257 -1.278076,1.554613c-0.528755,0.353765 -1.118325,0.524359 -1.763301,0.52858c-0.429984,0.002814 -0.829769,-0.048876 -1.180765,-0.153568c-0.356363,-0.114445 -0.70775,-0.284857 -1.046219,-0.514542c-0.330542,-0.235729 -0.638572,-0.479739 -0.925576,-0.758646c-0.280303,-0.268106 -0.658013,-0.624086 -1.104048,-1.087149c-0.188208,-0.180712 -0.455447,-0.26098 -0.79386,-0.258766c-0.376899,0.002468 -0.67088,0.111394 -0.900437,0.341002c-0.228265,0.22362 -0.333918,0.53335 -0.331506,0.937947c0.002131,0.357367 0.129368,0.773647 0.389703,1.254221c0.254947,0.467039 0.637261,0.927267 1.164116,1.367541c0.520158,0.430002 1.168593,0.783125 1.95071,1.075642c0.778077,0.282756 1.672077,0.420279 2.693953,0.413589c2.313155,-0.015142 4.115006,-0.755797 5.388422,-2.201751c1.275979,-1.461181 1.905316,-3.419969 1.890571,-5.892137c-0.007039,-1.180171 -0.176676,-2.252707 -0.49315,-3.244613c-0.323149,-0.998814 -0.788743,-1.848482 -1.403457,-2.555911c-0.613423,-0.713417 -1.35989,-1.259257 -2.255273,-1.628658c-0.896753,-0.376482 -1.879952,-0.560667 -2.968183,-0.553542c-1.400102,0.009165 -2.612475,0.341337 -3.617177,1.002361c-1.008707,0.657158 -1.75752,1.497953 -2.253033,2.529793c-0.496789,1.04061 -0.741376,2.087771 -0.73495,3.165267c0.005873,0.984623 0.261863,1.626523 0.789141,1.915273c0.525991,0.295265 1.254109,0.434972 2.197685,0.428795" fill="#100f0d" fill-rule="nonzero" id="path40"/>
    <path d="m318.281331,872.070893c0.002922,0.489865 0.140102,1.015793 0.418153,1.573917c0.272731,0.555991 0.676675,1.082883 1.235764,1.587043c0.551106,0.500944 1.254244,0.902596 2.09613,1.202855c0.833988,0.31117 1.782442,0.455415 2.822898,0.448603c2.237509,-0.014647 3.9731,-0.73913 5.21345,-2.165861c1.239005,-1.429974 1.858045,-3.334931 1.843784,-5.726167c-0.009652,-1.6184 -0.302218,-3.052462 -0.886901,-4.287457c-0.582012,-1.23237 -1.407949,-2.196471 -2.50021,-2.864903c-1.084347,-0.676687 -2.385613,-1.00756 -3.895866,-0.997673c-0.932959,0.006108 -1.786706,0.164775 -2.571927,0.464257c-0.774558,0.307059 -1.429173,0.698006 -1.975811,1.168751c-0.538633,0.477643 -0.944364,0.986534 -1.231845,1.517869c-0.280817,0.535742 -0.421159,1.037472 -0.418399,1.50017c0.002779,0.465895 0.163099,0.866246 0.496843,1.19372c0.319155,0.329237 0.708958,0.487412 1.168138,0.484406c0.298601,-0.001955 0.54756,-0.09368 0.740314,-0.263316c0.202079,-0.163719 0.420797,-0.430711 0.668003,-0.81635c0.436247,-0.732801 0.8908,-1.289284 1.368986,-1.666008c0.478256,-0.364906 1.087611,-0.556177 1.830794,-0.561042c1.060361,-0.006941 1.924417,0.450119 2.58145,1.354982c0.663705,0.910799 0.996275,2.153979 1.005705,3.734924c0.004395,0.736967 -0.081728,1.428378 -0.238635,2.045298c-0.164812,0.626747 -0.405854,1.155679 -0.723052,1.599852c-0.313242,0.439809 -0.697458,0.773081 -1.144668,1.003027c-0.440551,0.233699 -0.936237,0.346659 -1.477698,0.350203c-0.720621,0.004717 -1.344106,-0.170434 -1.861214,-0.534192c-0.515799,-0.366477 -0.979649,-0.923942 -1.380882,-1.663746c-0.224339,-0.453127 -0.458631,-0.794835 -0.720264,-1.047839c-0.253644,-0.248718 -0.563574,-0.366178 -0.940473,-0.36371c-0.433966,0.00284 -0.804495,0.183414 -1.082335,0.550748c-0.296362,0.37723 -0.442698,0.763793 -0.44023,1.177635" fill="#100f0d" fill-rule="nonzero" id="path42"/>
    <path d="m314.865822,861.269575l-0.396806,0.002597l-0.014149,-2.372301c-0.003764,-0.631065 -0.024025,-1.135499 -0.058017,-1.494271c-0.032687,-0.362534 -0.112795,-0.665111 -0.264342,-0.929681c-0.136949,-0.264665 -0.342643,-0.484388 -0.613072,-0.654746c-0.262419,-0.162346 -0.557521,-0.241335 -0.88399,-0.239196c-0.456526,0.002988 -0.870808,0.190899 -1.23619,0.566883c-0.240025,0.254759 -0.398803,0.557786 -0.463021,0.916645c-0.065519,0.363178 -0.091612,0.883626 -0.087673,1.544026l0.016021,2.686234l-1.327111,0.008687c-0.510937,0.003345 -0.901638,0.139517 -1.168132,0.406822c-0.271802,0.26734 -0.40118,0.604379 -0.398709,1.018694c0.003168,0.531241 0.196521,0.906906 0.586599,1.111239c0.382125,0.206055 0.932186,0.309374 1.644846,0.304708l0.679481,-0.004448l0.043344,7.26718c0.003699,0.620207 -0.016034,1.094481 -0.051178,1.43253c-0.04446,0.333758 -0.154327,0.604404 -0.320342,0.806984c-0.165972,0.209642 -0.445354,0.318474 -0.836853,0.321036c-0.209684,0.001372 -0.495236,-0.034243 -0.860713,-0.11929c-0.353484,-0.076979 -0.637743,-0.118025 -0.843445,-0.116679c-0.289311,0.001894 -0.559244,0.137276 -0.787387,0.381541c-0.226695,0.264348 -0.345613,0.575248 -0.343349,0.954861c0.003773,0.632706 0.318547,1.117276 0.958903,1.450903c0.644337,0.333601 1.554412,0.496004 2.739523,0.488246c1.128044,-0.007384 1.985442,-0.221553 2.564245,-0.639729c0.576149,-0.418171 0.960265,-0.990962 1.129698,-1.732875c0.180106,-0.732751 0.264521,-1.710374 0.257223,-2.933951l-0.045235,-7.584354l0.479087,-0.003137c0.510937,-0.003345 0.908269,-0.140533 1.18269,-0.413453c0.273102,-0.27166 0.403799,-0.610376 0.40131,-1.027471c-0.002471,-0.414315 -0.143823,-0.749581 -0.429409,-1.013274c-0.292221,-0.263648 -0.70575,-0.394556 -1.253846,-0.390968" fill="#100f0d" fill-rule="nonzero" id="path44"/>
    <path d="m295.642071,869.092377c-0.009562,-1.603177 0.309406,-2.863134 0.947713,-3.762991c0.650277,-0.895485 1.508878,-1.352977 2.605072,-1.360153c0.707351,-0.00463 1.328313,0.192909 1.865521,0.588568c0.543881,0.40215 0.96012,0.987554 1.254092,1.767157c0.295247,0.770976 0.449282,1.675238 0.455519,2.720759c0.006161,1.032965 -0.137118,1.932209 -0.41787,2.701476c-0.280727,0.773592 -0.684625,1.367143 -1.21435,1.780674c-0.528405,0.412424 -1.157591,0.616408 -1.882194,0.621151c-1.096194,0.007176 -1.960152,-0.433618 -2.621116,-1.329765c-0.649001,-0.892987 -0.982923,-2.140495 -0.992384,-3.726877l-0.000001,0.000001zm-3.623014,0.023717c0.006974,1.169286 0.179332,2.252745 0.525033,3.249813c0.33765,0.982465 0.831126,1.834092 1.465777,2.5463c0.641266,0.708925 1.403558,1.237809 2.283107,1.622553c0.887457,0.375459 1.873285,0.555287 2.980096,0.548042c1.097521,-0.007184 2.081126,-0.199905 2.946725,-0.596614c0.868289,-0.390761 1.624115,-0.94588 2.258157,-1.670743c0.631401,-0.722664 1.113427,-1.56819 1.432739,-2.547893c0.323251,-0.986778 0.478751,-2.062081 0.471651,-3.252541c-0.007123,-1.194311 -0.175548,-2.285903 -0.510567,-3.272125c-0.348348,-0.996007 -0.828483,-1.835847 -1.456444,-2.539298c-0.63589,-0.697559 -1.394253,-1.235257 -2.284355,-1.609002c-0.902062,-0.376447 -1.882613,-0.561761 -2.953593,-0.554751c-1.096194,0.007176 -2.081094,0.205355 -2.973254,0.598971c-0.886874,0.389826 -1.642672,0.94981 -2.275442,1.665406c-0.62215,0.716082 -1.109416,1.573099 -1.432676,2.558209c-0.324603,0.982476 -0.484027,2.067594 -0.476953,3.253674" fill="#100f0d" fill-rule="nonzero" id="path46"/>
    <path d="m285.603084,871.48534l0.019587,3.284085c0.004778,0.80106 0.182228,1.403292 0.528353,1.804026c0.347387,0.389853 0.782565,0.590124 1.317391,0.586623c0.512264,-0.003354 0.94366,-0.214733 1.274399,-0.613363c0.332019,-0.4068 0.493014,-1.005825 0.488272,-1.800906l-0.0655,-10.981902c-0.010588,-1.775297 -0.599785,-2.654605 -1.77295,-2.646926c-0.593218,0.003883 -1.02593,0.21694 -1.292889,0.628709c-0.257642,0.416018 -0.393332,1.030199 -0.423021,1.837921c-0.434801,-0.804682 -0.887021,-1.415016 -1.343365,-1.826359c-0.456318,-0.407033 -1.06008,-0.613306 -1.815206,-0.608362c-0.764416,0.005004 -1.4944,0.220007 -2.209922,0.634711c-0.707534,0.418963 -1.065216,0.973143 -1.061154,1.654259c0.002871,0.481189 0.161882,0.884746 0.46763,1.19113c0.301778,0.308217 0.631879,0.47012 0.9902,0.467775c0.12873,-0.000843 0.450664,-0.095827 0.953877,-0.281677c0.509894,-0.178246 0.956583,-0.272936 1.346755,-0.275489c0.522881,-0.003423 0.955065,0.139876 1.288698,0.448858c0.33893,0.306862 0.603014,0.748244 0.791039,1.343345c0.188067,0.602191 0.326326,1.308985 0.397625,2.13732c0.071241,0.81856 0.113042,1.819243 0.120182,3.016225" fill="#100f0d" fill-rule="nonzero" id="path48"/>
    <path d="m266.381717,872.142327c0.006511,1.091623 0.25492,2.02035 0.74925,2.792678c0.491702,0.776697 1.209147,1.352036 2.160444,1.750435c0.953868,0.384257 2.103031,0.579853 3.468628,0.570913c1.283316,-0.0084 2.399459,-0.231326 3.324499,-0.675125c0.923742,-0.438911 1.603998,-0.98105 2.036743,-1.633436c0.442046,-0.650835 0.665084,-1.30566 0.661194,-1.957912c-0.002585,-0.43339 -0.149462,-0.805007 -0.440606,-1.110498c-0.281903,-0.313713 -0.641094,-0.457449 -1.068424,-0.454651c-0.38088,0.002493 -0.674888,0.107055 -0.875439,0.304438c-0.200442,0.215847 -0.388559,0.495152 -0.57615,0.86298c-0.366059,0.707356 -0.803524,1.235948 -1.324344,1.585323c-0.504864,0.354165 -1.207196,0.532559 -2.10565,0.53844c-0.719294,0.004709 -1.313586,-0.171177 -1.78017,-0.519525c-0.46128,-0.348911 -0.702547,-0.747607 -0.705258,-1.202171c-0.004157,-0.696799 0.23567,-1.207261 0.711558,-1.524293c0.485106,-0.329052 1.270285,-0.63561 2.370081,-0.929032c1.238824,-0.347554 2.25195,-0.708843 3.031428,-1.081101c0.776785,-0.378775 1.404225,-0.875492 1.863766,-1.485676c0.464911,-0.59993 0.69665,-1.353639 0.69136,-2.240522c-0.004742,-0.795123 -0.226842,-1.540439 -0.663652,-2.237076c-0.432858,-0.701529 -1.083832,-1.257866 -1.923742,-1.672121c-0.842582,-0.417019 -1.859075,-0.620589 -3.054803,-0.612761c-0.928977,0.006081 -1.768392,0.120163 -2.516949,0.336401c-0.740605,0.214516 -1.369266,0.506439 -1.856872,0.861533c-0.495529,0.361682 -0.876709,0.759042 -1.131597,1.192004c-0.262812,0.43941 -0.387685,0.864429 -0.385229,1.276104c0.002711,0.454496 0.14024,0.816482 0.426043,1.1166c0.280352,0.276239 0.679356,0.419616 1.182331,0.416324c0.374245,-0.00245 0.686764,-0.118506 0.952104,-0.356468c0.252118,-0.22981 0.552642,-0.57659 0.8817,-1.034926c0.272406,-0.388585 0.589056,-0.701823 0.961925,-0.935066c0.368914,-0.228906 0.869839,-0.353287 1.501544,-0.357422c0.654265,-0.004282 1.201939,0.143682 1.627111,0.446643c0.438421,0.299119 0.658337,0.678363 0.661042,1.131886c0.002478,0.415427 -0.156078,0.755854 -0.467702,1.021926c-0.319577,0.267653 -0.742941,0.490382 -1.283359,0.668828c-0.540425,0.177334 -1.275685,0.397795 -2.217778,0.652699c-1.120968,0.303904 -2.030588,0.662874 -2.739426,1.0856c-0.706228,0.415339 -1.239447,0.910826 -1.602371,1.476415c-0.3682,0.571045 -0.547512,1.214182 -0.543233,1.931614" fill="#100f0d" fill-rule="nonzero" id="path50"/>
    <path d="m262.315674,877.324722c0.54677,-0.003579 1.018111,-0.192947 1.407276,-0.586537c0.401146,-0.387703 0.592998,-0.930982 0.588893,-1.619078c-0.003492,-0.585449 -0.190986,-1.091499 -0.570425,-1.514818c-0.382074,-0.420033 -0.853098,-0.622794 -1.409158,-0.619154c-0.552078,0.003614 -1.027284,0.21257 -1.408305,0.636513c-0.394344,0.415355 -0.589007,0.932583 -0.585482,1.523468c0.004072,0.68266 0.205012,1.217945 0.604147,1.605832c0.385848,0.385263 0.844865,0.57723 1.373055,0.573773" fill="#100f0d" fill-rule="nonzero" id="path52"/>
    <path d="m246.308036,869.415317c-0.009562,-1.603177 0.308079,-2.863126 0.951694,-3.763017c0.642314,-0.895434 1.506224,-1.352959 2.598436,-1.36011c0.707351,-0.00463 1.323006,0.192944 1.865521,0.588568c0.541226,0.402169 0.958793,0.987562 1.251437,1.767175c0.292593,0.770992 0.445301,1.675265 0.451537,2.720784c0.006161,1.032965 -0.126501,1.932139 -0.407253,2.701406c-0.291342,0.773662 -0.691261,1.367188 -1.224968,1.780743c-0.528405,0.412424 -1.15361,0.616382 -1.875558,0.621108c-1.092213,0.007149 -1.96148,-0.433608 -2.61448,-1.32981c-0.654309,-0.892952 -0.986904,-2.14047 -0.996365,-3.72685l-0.000001,0.000003zm-3.625668,0.023733c0.006974,1.169286 0.179332,2.252745 0.525033,3.249813c0.342959,0.982431 0.827145,1.834119 1.467104,2.546291c0.645247,0.708898 1.396923,1.237854 2.283107,1.622553c0.880821,0.375502 1.873285,0.555287 2.978769,0.548051c1.092213,-0.007149 2.073163,-0.199852 2.942744,-0.596587c0.870943,-0.390779 1.620133,-0.945853 2.252849,-1.670709c0.644671,-0.72275 1.12139,-1.568243 1.449992,-2.548005c0.317942,-0.986743 0.477424,-2.062073 0.470324,-3.252532c-0.007123,-1.194311 -0.179528,-2.285877 -0.52251,-3.272047c-0.347021,-0.996016 -0.824501,-1.835873 -1.451136,-2.539332c-0.630581,-0.697593 -1.392926,-1.235265 -2.288335,-1.608976c-0.891445,-0.376517 -1.868016,-0.561857 -2.949611,-0.554777c-1.092213,0.007149 -2.082422,0.205364 -2.971927,0.598961c-0.892183,0.389861 -1.647981,0.949845 -2.279423,1.665432c-0.626131,0.716109 -1.102781,1.573056 -1.431349,2.558201c-0.323277,0.982468 -0.4827,2.067585 -0.475626,3.253666" fill="#100f0d" fill-rule="nonzero" id="path54"/>
    <path d="m236.267721,871.808289l0.019587,3.284085c0.004778,0.80106 0.180901,1.403301 0.527026,1.804034c0.340752,0.389896 0.783892,0.590115 1.308101,0.586684c0.526863,-0.003449 0.947641,-0.21476 1.282362,-0.613415c0.337328,-0.406835 0.498323,-1.005859 0.493581,-1.800941l-0.0655,-10.981902c-0.010588,-1.775297 -0.610402,-2.654535 -1.775605,-2.646908c-0.601181,0.003935 -1.028584,0.216958 -1.288908,0.628682c-0.257642,0.416018 -0.409257,1.030303 -0.434964,1.838001c-0.428165,-0.804725 -0.87375,-1.415102 -1.330094,-1.826445c-0.458972,-0.407017 -1.066716,-0.613262 -1.817861,-0.608346c-0.771052,0.005047 -1.505017,0.220076 -2.208595,0.634702c-0.711515,0.418989 -1.069197,0.97317 -1.065135,1.654286c0.002871,0.481189 0.157901,0.884773 0.462322,1.191165c0.308412,0.308173 0.631879,0.47012 0.994181,0.467748c0.127403,-0.000834 0.444028,-0.095784 0.949896,-0.281651c0.50724,-0.17823 0.95393,-0.272918 1.345428,-0.27548c0.525536,-0.00344 0.955065,0.139876 1.301969,0.448772c0.330967,0.306913 0.593724,0.748305 0.78573,1.34338c0.184086,0.602217 0.317037,1.309046 0.390989,2.137363c0.075222,0.818534 0.11835,1.819209 0.12549,3.01619" fill="#100f0d" fill-rule="nonzero" id="path56"/>
    <path d="m225.832551,869.413094c0.009529,1.597713 -0.304412,2.810365 -0.940496,3.637893c-0.62951,0.817169 -1.459144,1.235902 -2.465095,1.242486c-0.5972,0.00391 -1.171591,-0.173176 -1.704534,-0.521633c-0.535594,-0.347883 -0.972721,-0.875101 -1.312707,-1.581646c-0.343981,-0.708687 -0.510986,-1.562451 -0.517014,-2.573143c-0.009604,-1.610294 0.309411,-2.86205 0.950383,-3.760255c0.640913,-0.907937 1.491551,-1.365378 2.547931,-1.372292c1.028511,-0.006732 1.859249,0.427188 2.482766,1.275265c0.63021,0.857767 0.949337,2.072254 0.958766,3.653323zm-10.491461,-4.935135l0.068386,11.465816c0.007845,1.315367 0.151252,2.440309 0.407674,3.377132c0.261798,0.948189 0.675209,1.727025 1.241567,2.337584c0.56769,0.611087 1.313599,1.063506 2.22047,1.356283c0.916129,0.287286 2.053049,0.433001 3.409357,0.424122c1.244831,-0.008149 2.357175,-0.20009 3.327674,-0.587707c0.978413,-0.395817 1.730637,-0.887373 2.253885,-1.496918c0.524633,-0.599764 0.787684,-1.221733 0.783868,-1.861488c-0.002883,-0.483358 -0.151187,-0.871802 -0.462213,-1.172826c-0.296468,-0.308169 -0.661001,-0.457318 -1.081695,-0.454565c-0.530844,0.003474 -0.985829,0.264979 -1.387572,0.774873c-0.192158,0.269557 -0.393654,0.53103 -0.59249,0.793569c-0.205436,0.268561 -0.434967,0.50252 -0.683372,0.687174c-0.252331,0.193913 -0.555411,0.334934 -0.907875,0.429019c-0.344501,0.094047 -0.755633,0.142357 -1.216142,0.145372c-0.926323,0.006063 -1.661087,-0.135226 -2.175027,-0.412649c-0.516609,-0.280116 -0.88261,-0.675282 -1.095329,-1.182795c-0.200791,-0.510301 -0.336754,-1.054687 -0.36146,-1.636744c-0.046017,-0.594959 -0.076766,-1.5224 -0.108389,-2.819146c0.559782,0.843058 1.215249,1.485068 1.93718,1.92244c0.72992,0.441657 1.600464,0.651577 2.597124,0.645054c1.218288,-0.007975 2.271369,-0.345625 3.16444,-1.031446c0.903731,-0.678842 1.593514,-1.626197 2.06932,-2.846973c0.470536,-1.214233 0.711673,-2.617585 0.702188,-4.207776c-0.007116,-1.193171 -0.158156,-2.26263 -0.465107,-3.215945c-0.294967,-0.946443 -0.717813,-1.749534 -1.277789,-2.402542c-0.544048,-0.652556 -1.181356,-1.143078 -1.896008,-1.472507c-0.719923,-0.323276 -1.495968,-0.487683 -2.35859,-0.482036c-1.017894,0.006663 -1.901785,0.229208 -2.64637,0.666349c-0.757915,0.427495 -1.441294,1.113529 -2.082173,2.027029l-0.003152,-0.528461c-0.00411,-0.68918 -0.1665,-1.213956 -0.472714,-1.598615c-0.307449,-0.368939 -0.708036,-0.555268 -1.191104,-0.552106c-0.698061,0.00457 -1.159764,0.25202 -1.389039,0.751551c-0.221315,0.498924 -0.335117,1.222524 -0.329526,2.159877" fill="#100f0d" fill-rule="nonzero" id="path58"/>
    <path d="m371.538512,825.027957l-5.352239,0.035035c0.396262,3.021467 1.591466,5.373522 3.569704,7.059469c1.829395,1.652161 4.03862,2.458298 6.613216,2.441445c3.496939,-0.022891 6.280172,-1.328873 8.348423,-3.910291c1.958852,-2.454595 2.926081,-5.615404 2.903103,-9.467976c-0.023542,-3.947253 -1.021774,-7.096725 -2.98821,-9.474181c-1.966374,-2.367028 -4.732571,-3.54478 -8.301174,-3.521421c-2.652895,0.017365 -4.893882,0.784227 -6.704454,2.287948c-1.919992,1.62679 -3.087614,3.899213 -3.48702,6.803674l5.352239,-0.035035c0.44806,-2.53494 1.914979,-3.802413 4.425874,-3.818849c4.136606,-0.027078 6.224859,2.525462 6.255508,7.664218c0.014362,2.408031 -0.506093,4.375895 -1.561305,5.913882c-1.055174,1.544382 -2.550221,2.323321 -4.48515,2.335988c-2.88514,0.018886 -4.415985,-1.421251 -4.588516,-4.313905l0.000001,0zm21.053424,-3.676175c0.029936,5.019328 -1.464266,9.277809 -4.477392,12.759977c-3.018438,3.481508 -6.724017,5.238309 -11.136662,5.267193c-4.392738,0.028755 -8.122965,-1.67937 -11.17606,-5.121134c-3.062389,-3.442398 -4.597982,-7.681047 -4.627918,-12.700375c-0.029911,-5.014879 1.455019,-9.270658 4.47611,-12.752322c3.011757,-3.489112 6.721337,-5.242601 11.114076,-5.271356c4.412645,-0.028884 8.138869,1.675929 11.198646,5.125297c3.054423,3.441895 4.599289,7.677841 4.6292,12.692719zm5.438502,-0.0356c-0.038093,-6.386705 -2.134265,-11.824774 -6.289911,-16.325041c-4.160917,-4.494115 -9.165675,-6.723491 -15.007619,-6.685249c-5.828672,0.038154 -10.798484,2.332823 -14.909452,6.881087c-4.104295,4.554337 -6.142074,10.019466 -6.103982,16.406172c0.038129,6.392822 2.140979,11.837799 6.299226,16.32929c4.164921,4.497982 9.161727,6.729077 14.990399,6.690923c5.841944,-0.038241 10.819707,-2.334631 14.92667,-6.886761c4.101693,-4.545561 6.132795,-10.017597 6.094666,-16.410421" fill="#100f0d" fill-rule="nonzero" id="path60"/>
    <path d="m389.55832,836.3073l-3.070499,2.763444l-22.86901,-30.373428l3.067871,-2.758978l22.871638,30.368961" fill="#100f0d" fill-rule="nonzero" id="path62"/>
    <path d="m664.885404,400.251189l21.228151,57.750595c16.757804,45.590462 -2.807609,95.304785 -51.107554,119.542316c-75.302824,37.785506 -161.550389,51.490493 -248.573058,52.060141c-87.022669,0.56965 -173.428303,-12.005152 -249.176621,-48.801879c-48.584885,-23.603325 -68.740843,-73.057633 -52.528026,-118.863919l20.536837,-58.023987l279.933882,18.804857l279.686389,-22.468124" fill="#ff7f00" fill-rule="evenodd" id="path64"/>
    <path d="m653.997618,361.154273l16.269411,-19.784443c3.834886,-4.664776 9.575393,-7.11326 15.428956,-6.582914l66.953747,-0.438279c4.058571,-0.026567 7.887134,1.974143 10.307273,5.388351c2.421179,3.41281 3.144808,7.830848 1.948678,11.894396c-5.635115,19.146169 -22.231354,32.450834 -41.346212,33.141841l-32.481049,0.21262c-8.324439,0.054492 -16.100648,-4.345188 -20.620861,-11.67067c-0.700472,-1.13413 -1.841812,-1.887192 -3.120748,-2.056788c-1.280007,-0.170979 -2.56519,0.258717 -3.513164,1.174226l-7.378157,10.003366l-2.447874,-21.281704l0.000001,-0.000001zm-538.31204,3.523783l-16.504531,-19.569905c-3.889566,-4.614212 -9.658299,-6.987356 -15.506141,-6.380415l-66.952765,0.438272c-4.059633,0.026574 -7.862997,2.077244 -10.241957,5.522866c-2.381622,3.444249 -3.050652,7.871403 -1.806847,11.918978c5.861689,19.070911 22.616871,32.157258 41.735957,32.597987l32.483704,-0.212638c8.32497,-0.054495 16.047428,-4.55563 20.478581,-11.939707c0.687287,-1.143214 1.820086,-1.911163 3.097033,-2.09749c1.276938,-0.187717 2.569403,0.225105 3.526365,1.128144l7.497831,9.905987l2.192769,-21.312081l0,0" fill="#ffaa56" fill-rule="evenodd" id="path66"/>
    <path d="m576.680063,195.409369c-160.884375,1.053146 -224.774166,1.471368 -385.658542,2.524516c-28.52493,0.186723 -56.005586,24.816313 -61.069449,54.732741l-23.88092,141.084492c-5.062536,29.916418 14.131321,54.241868 42.654924,54.055153c190.07286,-1.244215 283.152465,-1.853511 473.224,-3.097717c28.525461,-0.186728 47.427802,-24.760164 42.008539,-54.609359l-25.562601,-140.760835c-5.419785,-29.847801 -33.192347,-54.115704 -61.715949,-53.928989" fill="#ff7f00" fill-rule="evenodd" id="path68"/>
    <path d="m581.783712,209.991558c-131.89761,0.8634 -263.795221,1.726799 -395.69283,2.5902c-23.383701,0.153069 -45.912632,20.345545 -50.066362,44.871101l-19.577243,115.665335c-4.151067,24.526928 11.585929,44.468916 34.969629,44.315847c155.828081,-1.020048 311.654834,-2.040089 467.480262,-3.060118c23.384895,-0.153077 38.88279,-20.299529 34.438557,-44.770193l-20.955524,-115.400008c-4.443429,-24.469279 -27.211461,-44.365242 -50.596489,-44.212164" fill="#46454b" fill-rule="evenodd" id="path70"/>
    <path d="m482.484638,224.110107c-65.644233,0.429706 -131.289793,0.859421 -196.935353,1.289135c-11.637439,0.076178 -22.850417,10.126892 -24.915669,22.33398l-9.745755,57.565436c-2.063925,12.207079 5.768455,22.130341 17.405893,22.054163c77.555057,-0.507675 155.108786,-1.01534 232.662516,-1.523005c11.638766,-0.076187 19.352168,-10.101211 17.140141,-22.2803l-10.430317,-57.433363c-2.2107,-12.179097 -13.542689,-22.082231 -25.181455,-22.006044" fill="#7f7e86" fill-rule="evenodd" id="path72"/>
    <path d="m306.148546,309.688009l-2.053944,-0.583025c-1.728238,-0.490611 -3.188681,-1.697627 -4.04522,-3.342393c-0.855222,-1.646165 -1.034014,-3.585954 -0.491239,-5.371965l-0.040361,0.130959l-14.177122,-0.951366l-14.162012,1.136874l-0.043247,-0.130412c0.564036,1.778765 0.408396,3.720745 -0.428449,5.377985c-0.836854,1.65585 -2.282785,2.881891 -4.003709,3.39508l-2.046829,0.609868l-0.338565,17.110751l-0.083899,0.174345l21.290136,3.079348l21.250416,-3.357818l-0.083318,-0.173251l-0.542637,-17.104983" fill="#ffaa56" fill-rule="evenodd" id="path74"/>
    <path d="m304.821409,309.688009l39.437727,9.080975c6.149242,1.418248 11.434548,5.514448 14.522645,11.26428c2.717701,5.062632 3.509496,10.983216 2.268846,16.587587l6.186547,41.495494l-7.855172,0.051419l-20.190671,0.132168l-54.646462,0.357715l-54.645135,0.357707l-20.191998,0.132176l-7.855172,0.051419l5.692426,-41.573254c-1.307404,-5.587691 -0.587619,-11.518171 2.070809,-16.615995c3.017943,-5.789802 8.252649,-9.954865 14.385821,-11.453514l39.327656,-9.596572c2.21704,9.904405 10.730804,17.249628 20.848701,17.183396c10.119223,-0.06624 18.546035,-7.522356 20.643433,-17.455003" fill="#000000" fill-rule="evenodd" id="path76"/>
    <path d="m615.802192,378.543423l-29.807461,-148.982128l30.01141,5.385892c5.310853,4.374107 9.220713,9.498454 10.751544,15.163933l22.027771,120.612448c0.580595,5.5563 -1.831472,10.972296 -6.260669,14.055938c-4.428135,3.083635 -10.141076,3.322636 -14.826148,0.621222l-11.896447,-6.857305l-0.000001,0zm-461.716618,3.02239l28.029376,-149.360728l-29.947478,5.778381c-5.255608,4.443274 -9.105366,9.618415 -10.569826,15.303503l-20.585241,120.891393c-0.516263,5.56348 1.96181,10.947465 6.427178,13.972884c4.464041,3.025426 10.181112,3.189607 14.833595,0.42707l11.812395,-7.012502l0,-0.000001zm66.234174,-140.278635l-14.940402,85.358229c-2.492395,14.243999 -9.660375,27.154646 -20.259139,36.49364l-15.639639,9.287178l25.854976,-142.770032l19.664502,-3.795136c4.528523,3.1557 6.772236,8.186675 5.319702,15.42612zm327.578843,-2.144326l15.95873,85.155964c2.663433,14.210248 9.984853,27.026049 20.694188,36.22556l15.750524,9.081699l-27.557272,-142.420396l-19.708235,-3.537403c-4.491854,3.214747 -6.676709,8.274712 -5.137935,15.494577l0,0" fill="#7f7e86" fill-rule="evenodd" id="path78"/>
    <path d="m515.273034,301.865798l-2.053944,-0.583025c-1.728238,-0.490611 -3.188681,-1.697627 -4.04522,-3.342393c-0.855222,-1.646165 -1.034014,-3.585954 -0.491239,-5.371965l-0.040361,0.130959l-14.177122,-0.951366l-14.162012,1.136874l-0.043247,-0.130412c0.564036,1.778765 0.408396,3.720745 -0.428449,5.377985c-0.836854,1.65585 -2.282785,2.881891 -4.003709,3.39508l-2.046829,0.609868l-0.338565,17.110751l-0.083899,0.174345l21.290136,3.079348l21.250416,-3.357818l-0.083318,-0.173251l-0.542637,-17.104983" fill="#ffaaaa" fill-rule="evenodd" id="svg_9"/>
    <path d="m516.232382,302.128099l39.437727,9.080975c6.149242,1.418248 11.434548,5.514448 14.522645,11.26428c2.717701,5.062632 3.509496,10.983216 2.268846,16.587587l6.186547,41.495494l-7.855172,0.051419l-20.190671,0.132168l-54.646462,0.357715l-54.645135,0.357707l-20.191998,0.132176l-7.855172,0.051419l5.692426,-41.573254c-1.307404,-5.587691 -0.587619,-11.518171 2.070809,-16.615995c3.017943,-5.789802 8.252649,-9.954865 14.385821,-11.453514l39.327656,-9.596572c2.21704,9.904405 10.730804,17.249628 20.848701,17.183396c10.119223,-0.06624 18.546035,-7.522356 20.643433,-17.455003" fill="#d4ffaa" fill-rule="evenodd" id="svg_8"/>
    <path d="m548.317437,341.183597l-0.002654,0.000017c-3.975657,-2.137395 -8.898812,-0.475651 -10.939028,3.690747l-7.38198,15.081031c-2.038889,4.16639 -0.455346,9.324039 3.522957,11.460027l0,0c3.978311,2.137378 8.897493,0.477051 10.940363,-3.689365l7.38198,-15.081031c2.038881,-4.16778 0.454019,-9.324031 -3.521638,-11.461425" fill="#ffaaaa" fill-rule="evenodd" id="path80"/>
    <path d="m443.617361,338.992709l0,0c3.952505,-2.189292 8.895097,-0.59213 10.983524,3.547243l7.561292,14.983212c2.089754,4.139363 0.56653,9.31735 -3.384658,11.505243l0,0c-3.953832,2.189302 -8.893762,0.593512 -10.982189,-3.545861l-7.56262,-14.983204c-2.091089,-4.140745 -0.56653,-9.31735 3.38465,-11.506634" fill="#ffaaaa" fill-rule="evenodd" id="path82"/>
    <path d="m493.947089,324.113184c-37.014461,0.242296 -66.834286,31.873821 -66.603004,70.651189c0.017413,2.919668 0.208422,5.795099 0.555723,8.618063l17.296242,-0.113221c-0.462643,-2.802743 -0.713388,-5.680564 -0.730902,-8.616916c-0.172199,-28.87135 22.030119,-52.423609 49.588912,-52.604009c27.558793,-0.1804 50.040313,23.079359 50.212511,51.950709c0.017513,2.936353 -0.197558,5.817222 -0.625407,8.625795l17.293588,-0.113203c0.314928,-2.827298 0.471622,-5.705006 0.454209,-8.624674c-0.23128,-38.777368 -30.426084,-70.016038 -67.441872,-69.773734" fill="#2d2a2d" fill-rule="evenodd" id="path84"/>
    <path d="m278.779637,447.086501c-15.232583,0.099713 -27.730634,-12.832363 -27.825796,-28.787656c-0.09517,-15.956683 12.247639,-29.052757 27.480223,-29.15247c15.231256,-0.099703 27.730643,12.833753 27.825813,28.790437c0.095162,15.955293 -12.248984,29.049985 -27.48024,29.149689" fill="#ff7f00" fill-rule="evenodd" id="path86"/>
    <path d="m259.989372,443.585772c-15.229929,0.099695 -27.730634,-12.832363 -27.825796,-28.787656c-0.09517,-15.956683 12.250294,-29.052775 27.480223,-29.15247c15.231256,-0.099703 27.73197,12.833745 27.82714,28.790428c0.095162,15.955293 -12.25031,29.049995 -27.481567,29.149698" fill="#ff7f00" fill-rule="evenodd" id="path88"/>
    <path d="m547.862103,401.4413c-13.039478,0.087749 -23.738127,-11.292751 -23.819588,-25.333747c-0.081469,-14.042219 10.484291,-25.567042 23.523769,-25.65479c13.038342,-0.087742 23.738134,11.293975 23.819603,25.336194c0.081461,14.040996 -10.48544,25.564602 -23.523783,25.652343" fill="#ffaaaa" fill-rule="evenodd" id="svg_6"/>
    <path d="m443.685979,397.270277c-13.404996,0.085356 -24.403544,-10.984829 -24.487289,-24.642965c-0.083753,-13.659326 10.778181,-24.869899 24.183177,-24.955255c13.403828,-0.085349 24.403552,10.986019 24.487304,24.645345c0.083745,13.658136 -10.779364,24.867525 -24.183192,24.952875" fill="#ffaaaa" fill-rule="evenodd" id="svg_7"/>
    <path d="m618.897169,414.373921l-14.449544,-17.254483c-12.273418,-14.654828 -30.623233,-22.074701 -49.11202,-19.862553l-170.401089,1.115444l-170.402417,1.115452c-18.515057,-1.969921 -36.773607,5.68959 -48.871261,20.50395l-14.243928,17.44231l233.741457,-1.530068l233.738804,-1.53005" fill="#2d2a2d" fill-rule="evenodd" id="path90"/>
    <path d="m260.16422,266.499503c4.220214,-0.027625 8.315689,4.619998 9.150326,10.380409c0.831982,5.760429 -1.911148,10.452819 -6.130035,10.480435c-4.221541,0.027635 -8.315689,-4.619998 -9.148998,-10.380419c-0.834637,-5.760411 1.911148,-10.452819 6.128708,-10.480427l0,0.000001zm49.921945,-0.326788c-4.218887,0.027616 -8.259932,4.728502 -9.023137,10.499373c-0.76586,5.770889 2.035681,10.426982 6.254568,10.399365c4.220214,-0.027625 8.259932,-4.728502 9.023137,-10.499373c0.764533,-5.77088 -2.034354,-10.426992 -6.254568,-10.399365l0,0" fill="#ffaa56" fill-rule="evenodd" id="path92"/>
    <path d="m139.26521,440.098797l-1.208058,20.191947c-1.497941,24.993411 7.649775,49.399916 24.977924,66.65224c26.191829,26.078783 58.693055,44.157773 93.986978,52.281488l-9.99849,-5.502993c-27.569404,-15.172025 -51.973803,-35.954066 -71.783214,-61.127786c-15.235821,-19.357141 -19.210836,-45.863601 -10.378294,-69.182352l-25.596845,-3.312547l-0.000001,0.000003zm492.055709,-3.22099l1.448818,20.174555c1.79303,24.971868 -7.061254,49.496214 -24.180933,66.974034c-25.881365,26.419654 -58.164404,44.92272 -93.357343,53.507842l9.932068,-5.633457c27.386276,-15.531764 51.540877,-36.631672 71.048465,-62.06276c15.00241,-19.555079 18.66094,-46.111509 9.552264,-69.312818l25.556661,-3.647396l0,0" fill="#ffaa56" fill-rule="evenodd" id="path94"/>
    <path d="m469.660857,256.908673c4.220214,-0.027625 8.315689,4.619998 9.150326,10.380409c0.831982,5.760429 -1.911148,10.452819 -6.130035,10.480435c-4.221541,0.027635 -8.315689,-4.619998 -9.148998,-10.380419c-0.834637,-5.760411 1.911148,-10.452819 6.128708,-10.480427l0,0.000001zm49.921945,-0.326788c-4.218887,0.027616 -8.259932,4.728502 -9.023137,10.499373c-0.76586,5.770889 2.035681,10.426982 6.254568,10.399365c4.220214,-0.027625 8.259932,-4.728502 9.023137,-10.499373c0.764533,-5.77088 -2.034354,-10.426992 -6.254568,-10.399365l0,0" fill="#ffaaaa" fill-rule="evenodd" id="svg_13"/>
    <path d="m518.290829,245.077166l-48.457443,0.305103l0.18018,29.057434c0.083257,13.426692 11.053873,24.345341 24.379525,24.261439l0,0c13.326818,-0.08391 24.161175,-11.13985 24.077918,-24.566542l-0.18018,-29.057434" fill="#ffaaaa" fill-rule="evenodd" id="path96"/>
    <path d="m482.734015,278.743881c0.290237,6.829 5.732381,12.299252 12.309544,12.256198l0,0c6.57849,-0.043063 11.953632,-5.584124 12.163715,-12.416399l-24.473259,0.160201" fill="#ffffff" fill-rule="evenodd" id="path98"/>
    <path d="m487.935293,258.685952l-9.573193,0.606302c-0.933971,0.058948 -1.73432,0.714881 -2.016755,1.646889c-0.281109,0.932 0.01297,1.951998 0.743892,2.561759c0.729603,0.61116 1.744014,0.687942 2.549306,0.193258l8.292911,-0.533964c1.127655,-0.072729 2.008369,-1.050364 2.00794,-2.234959c0.000906,-1.183213 -0.887047,-2.309164 -2.004101,-2.239285" fill="#7f3f00" fill-rule="evenodd" id="path102"/>
    <path d="m483.927996,265.484688l-0.001327,0.000008c-1.747805,0.011441 -3.168174,1.51817 -3.157245,3.35061l0.006833,1.145622c0.010929,1.832439 1.449159,3.320456 3.196965,3.309015l0.001327,-0.000008c1.747805,-0.011441 3.168174,-1.51817 3.157245,-3.35061l-0.006833,-1.145622c-0.010929,-1.832439 -1.449159,-3.320456 -3.196965,-3.309015" fill="#7f3f00" fill-rule="evenodd" id="path104"/>
    <path d="m500.388828,258.578369l9.581004,0.480919c0.933275,0.046725 1.742712,0.692121 2.034915,1.620367c0.292204,0.928246 0.010316,1.952016 -0.711949,2.571288c-0.722256,0.620663 -1.735672,0.71072 -2.546801,0.226618l-8.298634,-0.425355c-1.128434,-0.057961 -2.018087,-1.024007 -2.033114,-2.208507c-0.017673,-1.183091 0.856779,-2.320578 1.97458,-2.265329" fill="#7f3f00" fill-rule="evenodd" id="path106"/>
    <path d="m504.479563,265.324096l0,0c1.746478,-0.011433 3.186036,1.476576 3.196965,3.309015l0.006833,1.145622c0.010929,1.832439 -1.410765,3.339177 -3.157245,3.35061l0,0c-1.749132,0.011449 -3.18869,-1.476558 -3.199619,-3.308997l-0.006833,-1.145622c-0.010929,-1.832439 1.410765,-3.339177 3.159899,-3.350627" fill="#7f3f00" fill-rule="evenodd" id="path108"/>
    <path d="m581.906887,230.643346c14.105866,-0.092337 28.4881,12.99703 31.107679,27.420293l8.269077,45.536188c-28.124917,-35.77093 -66.185758,-60.99202 -108.430338,-72.504457l69.053582,-0.452024" fill="#ffffff" fill-rule="evenodd" id="path110"/>
    <path d="m309.738066,251.810624l-49.779654,0.313014l0.185096,29.810821c0.085529,13.774813 11.35549,24.976555 25.044744,24.890477l0,0c13.690454,-0.086086 24.820437,-11.428678 24.734908,-25.203491l-0.185096,-29.810821" fill="#ffaa56" fill-rule="evenodd" id="svg_10"/>
    <path d="m518.72511,266.355015l3.752374,-21.113807c1.959596,-11.022777 -0.129951,-20.500582 -8.586872,-14.754807l-1.285197,-1.574741c-5.053794,-6.196848 -12.844852,-8.37144 -19.827909,-5.536307l-24.691589,5.991284c-2.781968,0.854669 -4.935874,3.37671 -5.619725,6.578023c-0.682628,3.199931 0.214568,6.573824 2.340112,8.796921l3.456091,22.646055l3.656961,-16.782087l33.349373,-2.87756c2.959874,-0.255537 5.743947,-1.717783 7.842474,-4.119258l5.613907,22.746284" fill="#7f3f00" fill-rule="evenodd" id="svg_11"/>
    <path d="m294.91682,273.005475l0,0c1.746478,-0.011433 3.186036,1.476576 3.196965,3.309015l0.006833,1.145622c0.010929,1.832439 -1.410765,3.339177 -3.157245,3.35061l0,0c-1.749132,0.011449 -3.18869,-1.476558 -3.199619,-3.308997l-0.006833,-1.145622c-0.010929,-1.832439 1.410765,-3.339177 3.159899,-3.350627" fill="#333333" fill-rule="evenodd" id="svg_14"/>
    <path d="m272.355489,273.005475l0,0c1.746478,-0.011433 3.186036,1.476576 3.196965,3.309015l0.006833,1.145622c0.010929,1.832439 -1.410765,3.339177 -3.157245,3.35061l0,0c-1.749132,0.011449 -3.18869,-1.476558 -3.199619,-3.308997l-0.006833,-1.145622c-0.010929,-1.832439 1.410765,-3.339177 3.159899,-3.350627" fill="#333333" fill-rule="evenodd" id="svg_15"/>
    <path d="m292.715619,265.96266l9.581004,0.480919c0.933275,0.046725 1.742712,0.692121 2.034915,1.620367c0.292204,0.928246 0.010316,1.952016 -0.711949,2.571288c-0.722256,0.620663 -1.735672,0.71072 -2.546801,0.226618l-8.298634,-0.425355c-1.128434,-0.057961 -2.018087,-1.024007 -2.033114,-2.208507c-0.017673,-1.183091 0.856779,-2.320578 1.97458,-2.265329" fill="#2d2a2d" fill-rule="evenodd" id="svg_17"/>
    <path d="m274.568696,265.901338l-9.573193,0.606302c-0.933971,0.058948 -1.73432,0.714881 -2.016755,1.646889c-0.281109,0.932 0.01297,1.951998 0.743892,2.561759c0.729603,0.61116 1.744014,0.687942 2.549306,0.193258l8.292911,-0.533964c1.127655,-0.072729 2.008369,-1.050364 2.00794,-2.234959c0.000906,-1.183213 -0.887047,-2.309164 -2.004101,-2.239285" fill="#2d2a2d" fill-rule="evenodd" id="svg_18"/>
    <path d="m272.08509,287.544113c0.290237,6.829 5.732381,12.299252 12.309544,12.256198l0,0c6.57849,-0.043063 11.953632,-5.584124 12.163715,-12.416399l-24.473259,0.160201" fill="#ffffff" fill-rule="evenodd" id="svg_82"/>
    <path d="m261.005541,275.542173l-3.768482,-21.113807c-1.968008,-11.022777 0.130509,-20.500582 8.623731,-14.754807l1.290714,-1.574741c5.075488,-6.196848 12.899987,-8.37144 19.913017,-5.536307l24.797575,5.991284c2.793909,0.854669 4.95706,3.37671 5.643847,6.578023c0.685558,3.199931 -0.215489,6.573824 -2.350157,8.796921l-3.470926,22.646055l-3.672657,-16.782087l-33.49252,-2.87756c-2.972579,-0.255537 -5.768602,-1.717783 -7.876137,-4.119258l-5.638004,22.746284" fill="#191919" fill-rule="evenodd" id="path100"/>
   </g>
  </g>
 </g>
</svg>