<?xml version="1.0"?>
<svg width="764.9866899999998" height="657.58667" xmlns="http://www.w3.org/2000/svg" xmlns:svg="http://www.w3.org/2000/svg">
 <metadata id="metadata8">image/svg+xml</metadata>

 <g class="layer" display="inline">
  <title>Layer 1</title>
  <g id="g10">
   <g id="g12">
    <path d="m527.090783,831.850033c-0.006235,-1.136967 0.131718,-2.117998 0.423269,-2.921531c0.280858,-0.817219 0.680861,-1.44732 1.197331,-1.894068c0.513891,-0.433119 1.082011,-0.658095 1.709734,-0.662563c0.995333,-0.007086 1.839342,0.464755 2.527887,1.38667c0.68994,0.934306 1.03984,2.300493 1.049791,4.115029c0.009387,1.711772 -0.325719,3.043232 -0.994752,3.985429c-0.679558,0.958815 -1.52098,1.442687 -2.522949,1.449819c-0.5972,0.004253 -1.159702,-0.19849 -1.674274,-0.61541c-0.506567,-0.40928 -0.921369,-1.025975 -1.236418,-1.845393c-0.316455,-0.833577 -0.473193,-1.826012 -0.479621,-2.997985l0.000001,0.000001l0.000001,0.000001zm7.040518,-6.307243l0.002835,0.516844c-0.683577,-0.984101 -1.388357,-1.720358 -2.122115,-2.174686c-0.736471,-0.464895 -1.572517,-0.694692 -2.49884,-0.688097c-1.108138,0.007888 -2.129458,0.358427 -3.061334,1.046604c-0.927891,0.688903 -1.660332,1.684751 -2.198555,3.005242c-0.53426,1.316984 -0.79253,2.865183 -0.782686,4.660227c0.007224,1.317243 0.165248,2.544163 0.484424,3.631737c0.317941,1.104701 0.754387,2.037848 1.303927,2.781166c0.550873,0.744488 1.204342,1.3205 1.945724,1.71276c0.752073,0.405763 1.556063,0.598515 2.404088,0.592476c1.036474,-0.007379 1.901733,-0.25868 2.599737,-0.758058c0.704655,-0.496477 1.364272,-1.219461 1.989409,-2.179656l0.035316,6.440113c0.010365,1.890163 0.594153,2.828167 1.748739,2.819947c0.679481,-0.004838 1.130698,-0.250236 1.34171,-0.735519c0.220269,-0.491255 0.325186,-1.204385 0.320088,-2.1341l-0.101632,-18.533005c-0.004476,-0.816245 -0.152491,-1.427779 -0.457277,-1.827849c-0.307433,-0.39839 -0.71731,-0.600977 -1.233555,-0.597301c-0.510937,0.003638 -0.926524,0.212103 -1.245382,0.634458c-0.318881,0.418121 -0.478838,1.017027 -0.474616,1.786699" fill="#100f0d" fill-rule="nonzero" id="path14"/>
    <path d="m511.224245,838.329003l-0.002967,-0.541054c0.437516,0.644281 0.893037,1.183898 1.373201,1.618771c0.478888,0.444348 0.999571,0.765519 1.563418,0.971789c0.57051,0.210956 1.213428,0.315074 1.936703,0.309926c0.86793,-0.006179 1.648413,-0.227933 2.340154,-0.659339c0.69173,-0.43319 1.225952,-1.031237 1.594741,-1.786991c0.451519,-0.916438 0.663304,-2.228708 0.653965,-3.931618l-0.046661,-8.50861c-0.004685,-0.8542 -0.170132,-1.498573 -0.500251,-1.919787c-0.328792,-0.421221 -0.759945,-0.63137 -1.296098,-0.627554c-0.548097,0.003902 -0.984875,0.22023 -1.31958,0.65676c-0.333398,0.433043 -0.495779,1.073854 -0.491159,1.916259l0.037713,6.877177c0.005416,0.987599 -0.058994,1.826852 -0.19201,2.49824c-0.144914,0.679745 -0.394164,1.210784 -0.760969,1.602073c-0.356257,0.378798 -0.854197,0.57433 -1.479267,0.578781c-0.614453,0.004374 -1.18763,-0.208921 -1.723476,-0.633372c-0.545118,-0.420816 -0.941009,-0.977399 -1.188998,-1.668518c-0.206387,-0.607533 -0.314546,-1.937606 -0.325808,-3.991346l-0.028641,-5.222731c-0.00462,-0.842405 -0.175343,-1.480844 -0.516118,-1.909088c-0.334159,-0.431769 -0.765312,-0.641918 -1.306774,-0.638063c-0.538807,0.003836 -0.968949,0.220117 -1.293096,0.645987c-0.320165,0.425842 -0.477205,1.072513 -0.472522,1.926713l0.068195,12.435419c0.00448,0.816895 0.157819,1.431308 0.473229,1.832514c0.312818,0.412445 0.716028,0.609228 1.212368,0.605694c0.492359,-0.003505 0.895932,-0.224345 1.21881,-0.639547c0.3188,-0.43288 0.476154,-1.022346 0.471898,-1.798489" fill="#100f0d" fill-rule="nonzero" id="path16"/>
    <path d="m500.719358,832.207389c0.009362,1.707038 -0.309937,3.017124 -0.959153,3.942638c-0.654567,0.917884 -1.514643,1.388293 -2.582967,1.395899c-0.909072,0.006472 -1.688016,-0.459361 -2.355379,-1.390863c-0.66474,-0.937434 -1.001184,-2.270011 -1.010805,-4.024318c-0.006268,-1.14294 0.126436,-2.113196 0.395352,-2.930329c0.272854,-0.824721 0.658232,-1.459559 1.153479,-1.90434c0.507172,-0.448345 1.084533,-0.682307 1.757378,-0.687097c0.694079,-0.004942 1.297849,0.220611 1.841748,0.661473c0.545208,0.437374 0.966805,1.082948 1.283315,1.926611c0.31381,0.835365 0.470588,1.834861 0.477034,3.010327l-0.000001,0l-0.000001,-0.000001zm0.099898,-12.760918l0.03598,6.561113c-0.673505,-0.841575 -1.373724,-1.47216 -2.080914,-1.921991c-0.708452,-0.438026 -1.585591,-0.658608 -2.623391,-0.65122c-1.201035,0.008551 -2.247572,0.359267 -3.147671,1.033759c-0.898663,0.694442 -1.598016,1.67357 -2.087317,2.960597c-0.495942,1.286015 -0.733097,2.812288 -0.723449,4.571797c0.007143,1.302484 0.150359,2.491116 0.432393,3.582493c0.284615,1.077764 0.689209,2.011138 1.2258,2.81304c0.537846,0.788888 1.183508,1.393294 1.935797,1.838645c0.760119,0.42107 1.590776,0.636072 2.498519,0.629608c0.550751,-0.003921 1.077174,-0.087996 1.568687,-0.245678c0.486178,-0.162347 0.905746,-0.3709 1.240053,-0.637913c0.347702,-0.244667 0.639494,-0.520239 0.880898,-0.78777c0.238682,-0.279911 0.554973,-0.686204 0.946132,-1.234795l0.002303,0.419979c0.004447,0.810984 0.175003,1.418785 0.505079,1.832288c0.323435,0.412369 0.746568,0.611959 1.242906,0.608425c0.514919,-0.003665 0.918577,-0.209142 1.224192,-0.62599c0.298926,-0.426841 0.446908,-1.030998 0.442478,-1.839033l-0.102799,-18.74567c-0.004735,-0.863575 -0.154333,-1.521671 -0.456696,-1.963798c-0.295747,-0.445652 -0.705708,-0.663512 -1.237879,-0.659723c-0.552078,0.003931 -0.980903,0.218387 -1.2745,0.648728c-0.300275,0.422676 -0.450919,1.025749 -0.446602,1.813113" fill="#100f0d" fill-rule="nonzero" id="path18"/>
    <path d="m487.678954,838.312344l-0.10207,-18.612664c-0.004735,-0.863575 -0.16753,-1.50812 -0.487139,-1.948914c-0.330184,-0.433007 -0.764033,-0.650697 -1.310803,-0.646804c-0.54677,0.003893 -0.983548,0.220219 -1.318231,0.660835c-0.326749,0.435265 -0.498323,1.093983 -0.49357,1.960583l0.10207,18.612664c0.004778,0.871242 0.183555,1.526227 0.523045,1.962117c0.339425,0.424064 0.781238,0.641834 1.317391,0.638018c0.529517,-0.00377 0.95295,-0.233612 1.283583,-0.686658c0.327979,-0.453041 0.490344,-1.096876 0.485724,-1.939176" fill="#100f0d" fill-rule="nonzero" id="path20"/>
    <path d="m476.666279,825.992589l0.067988,12.397675c0.004742,0.86474 0.184814,1.513816 0.522986,1.951486c0.348741,0.428717 0.789258,0.652409 1.313468,0.648675c0.530844,-0.003778 0.960912,-0.233669 1.286263,-0.681959c0.325299,-0.45774 0.492972,-1.101613 0.488353,-1.943911l-0.067316,-12.275345c-0.00462,-0.842405 -0.179324,-1.480816 -0.509483,-1.909135c-0.330177,-0.431798 -0.762658,-0.641937 -1.293502,-0.638157c-0.524209,0.003732 -0.962314,0.220068 -1.306309,0.656667c-0.333398,0.433043 -0.506644,1.028567 -0.502448,1.794005l0,-0.000001zm1.761952,-4.450957c0.501649,-0.003572 0.926647,-0.189723 1.290865,-0.568699c0.344377,-0.366888 0.525976,-0.891549 0.522287,-1.564293c-0.003307,-0.603036 -0.190507,-1.099665 -0.558978,-1.49641c-0.368446,-0.391905 -0.792805,-0.57322 -1.277201,-0.569771c-0.467143,0.003325 -0.88291,0.178826 -1.24061,0.536283c-0.357697,0.358213 -0.537962,0.884072 -0.534279,1.555608c0.003656,0.666847 0.184318,1.181215 0.539334,1.544335c0.355053,0.36962 0.770207,0.566425 1.258584,0.562949" fill="#100f0d" fill-rule="nonzero" id="path22"/>
    <path d="m460.061546,835.806526c0.002922,0.532783 0.138775,1.104798 0.408864,1.711876c0.276712,0.604673 0.68862,1.177671 1.245054,1.726019c0.549779,0.544843 1.247608,0.98172 2.08684,1.308305c0.837969,0.338404 1.785096,0.495295 2.830859,0.487848c2.232201,-0.015893 3.966464,-0.803839 5.212123,-2.355605c1.240332,-1.555266 1.855391,-3.627088 1.841129,-6.227824c-0.009652,-1.76019 -0.302218,-3.319891 -0.880265,-4.663133c-0.579358,-1.340359 -1.421221,-2.388812 -2.505518,-3.115862c-1.085674,-0.735962 -2.388267,-1.095814 -3.88923,-1.085127c-0.938267,0.006681 -1.795996,0.179279 -2.574581,0.504951c-0.777213,0.333979 -1.435808,0.759208 -1.974484,1.271136c-0.53996,0.5195 -0.949673,1.073002 -1.234499,1.65087c-0.286125,0.582717 -0.422486,1.128376 -0.419726,1.631611c0.002779,0.506713 0.168407,0.942102 0.48888,1.298359c0.325791,0.358034 0.711612,0.530096 1.170792,0.526827c0.303909,-0.002164 0.548887,-0.101898 0.75093,-0.286462c0.191462,-0.177986 0.414161,-0.468399 0.661367,-0.887825c0.433593,-0.796984 0.894781,-1.402268 1.37164,-1.811987c0.479584,-0.396885 1.088939,-0.604915 1.822831,-0.610139c1.072306,-0.007635 1.935034,0.489478 2.59074,1.473628c0.659724,0.990623 0.988312,2.342747 0.997742,4.0622c0.004395,0.801533 -0.075092,1.553473 -0.239962,2.224499c-0.162158,0.681637 -0.400546,1.256891 -0.713762,1.73995c-0.315896,0.47836 -0.693477,0.840782 -1.144668,1.090903c-0.447187,0.254221 -0.941545,0.377068 -1.475044,0.380866c-0.728584,0.005187 -1.345433,-0.185357 -1.863869,-0.580974c-0.519779,-0.398556 -0.979649,-1.00489 -1.379555,-1.809517c-0.223012,-0.492836 -0.462612,-0.864443 -0.720264,-1.139641c-0.260279,-0.270461 -0.574191,-0.398184 -0.943127,-0.395558c-0.440602,0.003137 -0.804495,0.199483 -1.096933,0.599104c-0.28309,0.410184 -0.426773,0.830597 -0.424304,1.280696" fill="#100f0d" fill-opacity="0" fill-rule="nonzero" id="path24"/>
    <path d="m454.097248,832.413487c0.006385,1.164216 -0.140844,2.148184 -0.438912,2.973161c-0.30207,0.821438 -0.708804,1.43394 -1.234731,1.850571c-0.529865,0.424356 -1.107353,0.635214 -1.727112,0.639626c-0.637014,0.004535 -1.216735,-0.192171 -1.741739,-0.57534c-0.530357,-0.391403 -0.946423,-0.996279 -1.269374,-1.804404c-0.317633,-0.806409 -0.478486,-1.823041 -0.48513,-3.03451c-0.0063,-1.148837 0.143615,-2.126928 0.452274,-2.956744c0.313989,-0.826224 0.729916,-1.45644 1.25833,-1.903273c0.532471,-0.433252 1.112534,-0.65831 1.746893,-0.662827c0.659574,-0.004695 1.250072,0.220951 1.775392,0.661946c0.518666,0.437563 0.930967,1.081994 1.219536,1.91285c0.288582,0.833276 0.438494,1.790783 0.444571,2.898944l0.000001,0l0.000001,-0.000001zm-7.060201,6.348287l-0.002303,-0.419979c0.489347,0.657508 0.970042,1.189261 1.448714,1.594023c0.466786,0.415477 0.982095,0.724875 1.534031,0.937143c0.550567,0.204596 1.152364,0.312546 1.803976,0.307907c0.862622,-0.006141 1.666968,-0.232782 2.397195,-0.664464c0.730094,-0.455904 1.363749,-1.072971 1.898137,-1.882483c0.531715,-0.813047 0.93394,-1.763975 1.207964,-2.85931c0.275394,-1.087664 0.404294,-2.267602 0.3973,-3.542913c-0.014677,-2.676311 -0.578273,-4.772875 -1.687994,-6.263549c-1.113708,-1.491855 -2.564363,-2.229908 -4.359944,-2.217125c-1.039129,0.007398 -1.91649,0.229887 -2.626777,0.667278c-0.710369,0.422723 -1.40485,1.080326 -2.078135,1.972924l-0.034759,-6.338528c-0.004841,-0.88293 -0.154465,-1.545865 -0.454203,-1.993303c-0.297106,-0.45154 -0.715036,-0.670554 -1.263133,-0.666651c-0.545443,0.003883 -0.964995,0.215249 -1.261352,0.626254c-0.291031,0.414294 -0.44029,1.027941 -0.435861,1.835418l0.103819,18.931662c0.00448,0.816895 0.168435,1.431232 0.489155,1.832401c0.320781,0.412387 0.727988,0.61209 1.234944,0.608483c0.48705,-0.003467 0.899946,-0.218461 1.220121,-0.642504c0.316177,-0.426963 0.473464,-1.028813 0.469111,-1.82268" fill="#100f0d" fill-rule="nonzero" id="path26"/>
    <path d="m430.078052,832.619346c-0.009562,-1.743633 0.312059,-3.113995 0.950367,-4.092688c0.643642,-0.973893 1.514187,-1.471551 2.605072,-1.479317c0.708678,-0.005047 1.328313,0.20981 1.868174,0.640115c0.539899,0.437412 0.956139,1.074102 1.252764,1.92199c0.29392,0.838531 0.447955,1.822018 0.454191,2.959136c0.006161,1.123464 -0.137118,2.101492 -0.413889,2.938128c-0.280727,0.841367 -0.689933,1.486958 -1.22364,1.936747c-0.528405,0.448557 -1.158919,0.670422 -1.876885,0.675533c-1.090886,0.007767 -1.966787,-0.47156 -2.621116,-1.446267c-0.649001,-0.971223 -0.985577,-2.328009 -0.995038,-4.053374l0,-0.000001l0,-0.000001zm-3.62036,0.025774c0.006974,1.271728 0.181986,2.450092 0.521051,3.534561c0.341632,1.068512 0.831126,1.994779 1.465777,2.769384c0.64392,0.771015 1.404885,1.346246 2.287089,1.764677c0.883475,0.408382 1.883902,0.603861 2.980096,0.596057c1.089558,-0.007757 2.074491,-0.217372 2.941416,-0.648846c0.870943,-0.425016 1.626769,-1.028767 2.262139,-1.817148c0.631401,-0.785977 1.109446,-1.705553 1.439374,-2.771163c0.323251,-1.073231 0.481406,-2.242761 0.474306,-3.537519c-0.007123,-1.298946 -0.18351,-2.486116 -0.519856,-3.558733c-0.341713,-1.083315 -0.824501,-1.996716 -1.456444,-2.761769c-0.630581,-0.75871 -1.390272,-1.343507 -2.288335,-1.74994c-0.894099,-0.409486 -1.871996,-0.611053 -2.948284,-0.60339c-1.094867,0.007795 -2.086403,0.223384 -2.973254,0.651447c-0.88422,0.423959 -1.643999,1.033034 -2.274115,1.811304c-0.634094,0.778904 -1.109416,1.71092 -1.428695,2.782308c-0.331239,1.0686 -0.489335,2.248776 -0.482262,3.53877" fill="#100f0d" fill-rule="nonzero" id="path28"/>
    <path d="m411.195048,829.207862c0.274712,0.724044 0.410454,2.001932 0.420574,3.847134l0.031278,5.703555c0.004917,0.896644 0.177207,1.57885 0.527383,2.027063c0.344866,0.448236 0.805291,0.671786 1.367985,0.66778c0.542788,-0.003865 0.983472,-0.233829 1.318087,-0.686904c0.337269,-0.453109 0.49941,-1.137694 0.494493,-2.034338l-0.037549,-6.847132c-0.005904,-1.076785 0.025351,-1.911582 0.084401,-2.518086c0.059137,-0.590626 0.220988,-1.086111 0.493605,-1.470183c0.265961,-0.387652 0.69888,-0.581572 1.286791,-0.585758c1.18113,-0.008409 1.960135,0.468583 2.342357,1.436383c0.383484,0.955995 0.568913,2.339836 0.578826,4.14737l0.031825,5.803372c0.004908,0.89486 0.183795,1.569942 0.520673,2.013517c0.346267,0.461821 0.793421,0.685465 1.342845,0.681554c0.550751,-0.003921 1.002052,-0.233963 1.344556,-0.700686c0.349239,-0.44846 0.510092,-1.12596 0.505191,-2.019642l-0.067348,-12.281228c-0.004435,-0.808686 -0.15644,-1.422004 -0.467943,-1.836696c-0.320797,-0.415382 -0.733377,-0.626872 -1.248296,-0.623205c-0.492359,0.003505 -0.905348,0.201366 -1.229663,0.596541c-0.328303,0.393842 -0.489895,0.936657 -0.486089,1.630723l0.002232,0.407065c-0.628637,-0.888167 -1.30508,-1.539487 -2.017356,-1.948604c-0.714955,-0.413634 -1.519011,-0.618254 -2.384287,-0.612093c-0.90509,0.006443 -1.681592,0.228215 -2.33216,0.665181c-0.651936,0.429414 -1.183187,1.085251 -1.599129,1.954845c-0.613932,-0.868765 -1.270486,-1.523252 -1.970869,-1.941828c-0.699068,-0.420854 -1.469946,-0.62571 -2.312663,-0.619711c-0.995333,0.007086 -1.842114,0.239942 -2.548229,0.712234c-0.71411,0.466451 -1.24135,1.127553 -1.590968,1.990776c-0.306291,0.77778 -0.45089,1.999143 -0.441726,3.670193l0.045964,8.381637c0.004917,0.896644 0.179862,1.578832 0.520747,2.02711c0.354156,0.44817 0.803964,0.671796 1.369312,0.66777c0.548097,-0.003902 0.992762,-0.233895 1.336593,-0.70063c0.349239,-0.44846 0.520709,-1.126035 0.515801,-2.020897l-0.039612,-7.223348c-0.00506,-0.922699 0.022751,-1.659482 0.083396,-2.217456c0.064605,-0.561631 0.241252,-1.021232 0.532463,-1.402561c0.287238,-0.380091 0.729446,-0.574078 1.314702,-0.578244c0.475106,-0.003382 0.929908,0.162896 1.352399,0.487729c0.437151,0.33592 0.763438,0.784379 1.00941,1.349697l0,0" fill="#100f0d" fill-rule="nonzero" id="path30"/>
    <path d="m390.774772,832.980687c0.533467,0.23248 1.304484,0.462681 2.314523,0.717158c1.011341,0.24975 1.711755,0.432019 2.099945,0.552118c0.389524,0.121272 0.761064,0.351366 1.110676,0.696801c0.358975,0.358948 0.539477,0.844404 0.542927,1.473464c0.003599,0.656248 -0.20441,1.205291 -0.610649,1.665982c-0.4155,0.466064 -0.957072,0.692015 -1.627263,0.696786c-0.712659,0.005074 -1.377251,-0.179218 -1.979146,-0.547066c-0.605857,-0.364281 -1.055756,-0.846626 -1.336316,-1.427062c-0.330052,-0.650958 -0.503111,-1.715348 -0.511349,-3.217433l-0.00335,-0.610747l0.000001,0l0.000001,0zm-0.199482,6.217906c0.879004,0.803003 1.725021,1.398905 2.542046,1.790627c0.814447,0.40532 1.735223,0.597238 2.743828,0.590056c0.931632,-0.006632 1.735978,-0.233274 2.439662,-0.664766c0.702293,-0.443306 1.233877,-1.038372 1.610634,-1.793017c0.370174,-0.745132 0.560883,-1.544532 0.556082,-2.4199c-0.006446,-1.175451 -0.333072,-2.169625 -0.961365,-2.995085c-0.62428,-0.819575 -1.485972,-1.369895 -2.581073,-1.646841c-0.22861,-0.061581 -0.802666,-0.193288 -1.704986,-0.407795c-0.919599,-0.219071 -1.690401,-0.410319 -2.348323,-0.588156c-0.64331,-0.175522 -1.350568,-0.395651 -2.111104,-0.650634c0.040214,-1.137449 0.226773,-1.967455 0.560892,-2.511044c0.340853,-0.525644 1.046785,-0.789404 2.107146,-0.796952c0.922342,-0.006567 1.607938,0.135536 2.0794,0.435828c0.460832,0.297946 0.862813,0.754638 1.191337,1.368967c0.33907,0.601401 0.569546,1.00321 0.707284,1.192917c0.141759,0.196936 0.43686,0.282844 0.878789,0.279698c0.411405,-0.002929 0.758269,-0.158431 1.048559,-0.465809c0.296893,-0.313472 0.442061,-0.704951 0.439375,-1.194579c-0.004123,-0.75198 -0.233785,-1.489351 -0.68488,-2.189607c-0.45382,-0.713242 -1.159062,-1.291925 -2.111855,-1.755884c-0.954066,-0.45397 -2.144409,-0.673987 -3.56442,-0.663877c-1.581917,0.011262 -2.830802,0.248645 -3.741425,0.698198c-0.90267,0.447682 -1.533187,1.152766 -1.906084,2.127603c-0.372969,0.96138 -0.550398,2.246337 -0.541666,3.838757c0.005506,1.004051 0.010223,1.864148 0.019354,2.561095c0.010526,0.709352 0.018776,1.487826 0.031452,2.347201c0.004402,0.802728 -0.10244,1.648785 -0.324598,2.521642c-0.214173,0.876929 -0.323877,1.443009 -0.322526,1.689319c0.002423,0.441828 0.181141,0.844007 0.529493,1.20185c0.34304,0.357292 0.743505,0.53755 1.180125,0.534442c0.376899,-0.002684 0.732781,-0.20782 1.098117,-0.625091c0.358693,-0.418404 0.737595,-1.024207 1.140729,-1.809164" fill="#100f0d" fill-rule="nonzero" id="path32"/>
    <path d="m379.923847,826.681346l0.067988,12.397675c0.004742,0.86474 0.18216,1.513837 0.522986,1.951486c0.346087,0.428735 0.779969,0.652474 1.310813,0.648695c0.526863,-0.003751 0.962239,-0.233678 1.284936,-0.681948c0.333261,-0.457797 0.495626,-1.101633 0.491008,-1.943932l-0.067316,-12.275345c-0.00462,-0.842405 -0.174016,-1.480853 -0.512137,-1.909115c-0.327523,-0.431817 -0.765312,-0.641918 -1.292175,-0.638168c-0.530844,0.003778 -0.962314,0.220068 -1.303655,0.656647c-0.336052,0.433063 -0.506644,1.028567 -0.502448,1.794005zm1.760625,-4.450948c0.49634,-0.003534 0.922666,-0.189694 1.278921,-0.568614c0.354995,-0.366963 0.537921,-0.891633 0.534231,-1.564377c-0.003307,-0.603036 -0.193161,-1.099647 -0.56296,-1.496382c-0.364465,-0.391934 -0.795459,-0.5732 -1.27322,-0.569799c-0.469797,0.003344 -0.886891,0.178854 -1.247246,0.536329c-0.353715,0.358184 -0.529999,0.884017 -0.526316,1.555551c0.003656,0.666847 0.180337,1.181245 0.53668,1.544353c0.353726,0.36963 0.774188,0.566396 1.259911,0.562939" fill="#100f0d" fill-rule="nonzero" id="path34"/>
    <path d="m372.909724,826.669284l0.002812,0.512761c-0.635826,-0.989129 -1.332585,-1.714856 -2.083629,-2.17496c-0.758999,-0.458836 -1.626888,-0.687197 -2.608951,-0.680207c-0.94623,0.006737 -1.800873,0.257947 -2.551945,0.760652c-0.73917,0.494908 -1.298066,1.191771 -1.659422,2.092883c-0.237315,0.529139 -0.384143,1.101943 -0.456465,1.70854c-0.061734,0.60123 -0.098614,1.378302 -0.093422,2.325044l0.043774,7.98242c0.004742,0.86474 0.179506,1.513855 0.509715,1.95158c0.334143,0.42882 0.765371,0.652579 1.290906,0.648837c0.53748,-0.003827 0.97551,-0.233773 1.294199,-0.686733c0.337269,-0.453109 0.50627,-1.09699 0.50165,-1.939289l-0.039188,-7.145913c-0.007804,-1.423062 0.146856,-2.503862 0.471881,-3.253498c0.332983,-0.750751 0.991795,-1.13636 1.979166,-1.14339c0.640995,-0.004564 1.227521,0.222776 1.758221,0.676737c0.530662,0.447004 0.921628,1.073289 1.171524,1.870096c0.180014,0.638525 0.279429,1.826241 0.289088,3.587625l0.029437,5.368046c0.004778,0.871242 0.174265,1.526292 0.519063,1.962145c0.342079,0.424047 0.781238,0.641834 1.317391,0.638018c0.516246,-0.003676 0.946314,-0.233564 1.276973,-0.681893c0.337243,-0.457827 0.49828,-1.10165 0.493662,-1.943949l-0.067988,-12.397675c-0.004503,-0.821083 -0.155129,-1.424886 -0.462579,-1.826601c-0.295514,-0.403162 -0.715992,-0.602801 -1.233566,-0.599116c-0.310543,0.002211 -0.601987,0.099401 -0.851872,0.272512c-0.261799,0.178487 -0.45803,0.455101 -0.612747,0.799469c-0.146638,0.365481 -0.230513,0.801437 -0.227692,1.31586" fill="#100f0d" fill-rule="nonzero" id="path36"/>
    <path d="m357.642925,827.072699l-2.860899,9.765127l-3.203673,-10.146573c-0.253993,-0.818099 -0.498664,-1.388264 -0.742079,-1.729646c-0.24339,-0.336694 -0.600003,-0.506696 -1.081743,-0.503266c-0.45918,0.003269 -0.84702,0.189155 -1.174096,0.564843c-0.312537,0.364847 -0.472154,0.783649 -0.469443,1.277963c0.001021,0.186144 0.03273,0.402159 0.09114,0.646869c0.053166,0.256541 0.120813,0.491659 0.201684,0.71791c0.075472,0.209807 0.155173,0.464949 0.261558,0.74546l3.517138,10.192822c0.098479,0.291089 0.229272,0.666436 0.381718,1.117826c0.160389,0.447796 0.336306,0.823394 0.522599,1.154643c0.196818,0.314614 0.427736,0.555162 0.703433,0.732773c0.283653,0.176374 0.622565,0.264917 1.019371,0.262093c0.510937,-0.003638 0.916279,-0.144148 1.222669,-0.419822c0.301046,-0.282139 0.525004,-0.584991 0.667811,-0.922696c0.140225,-0.324711 0.387442,-0.984499 0.721834,-1.962118l3.384447,-10.131568c0.078276,-0.246892 0.161819,-0.501382 0.246695,-0.754824c0.076924,-0.25157 0.140574,-0.503045 0.201482,-0.771137c0.054277,-0.266833 0.084894,-0.492065 0.083907,-0.672159c-0.001643,-0.299552 -0.077551,-0.589048 -0.231743,-0.874964c-0.152885,-0.289554 -0.361223,-0.526693 -0.624973,-0.703858c-0.26907,-0.179396 -0.549613,-0.272514 -0.865465,-0.270266c-0.593218,0.004223 -1.004839,0.209787 -1.229485,0.629052c-0.223397,0.405042 -0.473118,1.091991 -0.743883,2.055516" fill="#100f0d" fill-rule="nonzero" id="path38"/>
    <path d="m342.907022,831.838165l-6.540005,0.046561c0.074261,-1.462963 0.3987,-2.561606 0.977324,-3.291121c0.574646,-0.728881 1.333083,-1.098717 2.277986,-1.105445c0.893146,-0.006358 1.637025,0.357468 2.214367,1.08813c0.581323,0.730783 0.933695,1.821584 1.070328,3.261874l0,0.000001zm-7.046841,2.492181l7.060232,-0.050265c0.00404,0.978764 -0.163785,1.837049 -0.475523,2.589463c-0.322424,0.740076 -0.744016,1.305413 -1.278076,1.690814c-0.528755,0.384759 -1.118325,0.570299 -1.763301,0.574889c-0.429984,0.003061 -0.829769,-0.053158 -1.180765,-0.167022c-0.356363,-0.124472 -0.70775,-0.309814 -1.046219,-0.559622c-0.330542,-0.256381 -0.638572,-0.521769 -0.925576,-0.825112c-0.280303,-0.291595 -0.658013,-0.678763 -1.104048,-1.182395c-0.188208,-0.196544 -0.455447,-0.283845 -0.79386,-0.281437c-0.376899,0.002684 -0.67088,0.121153 -0.900437,0.370878c-0.228265,0.243212 -0.333918,0.580077 -0.331506,1.020122c0.002131,0.388676 0.129368,0.841427 0.389703,1.364105c0.254947,0.507957 0.637261,1.008506 1.164116,1.487353c0.520158,0.467675 1.168593,0.851735 1.95071,1.16988c0.778077,0.307529 1.672077,0.4571 2.693953,0.449824c2.313155,-0.016469 4.115006,-0.822013 5.388422,-2.394649c1.275979,-1.589197 1.905316,-3.719596 1.890571,-6.408353c-0.007039,-1.283567 -0.176676,-2.450069 -0.49315,-3.528877c-0.323149,-1.086321 -0.788743,-2.01043 -1.403457,-2.779837c-0.613423,-0.77592 -1.35989,-1.369582 -2.255273,-1.771346c-0.896753,-0.409466 -1.879952,-0.609788 -2.968183,-0.602038c-1.400102,0.009968 -2.612475,0.371242 -3.617177,1.090179c-1.008707,0.714732 -1.75752,1.62919 -2.253033,2.751431c-0.496789,1.131779 -0.741376,2.270683 -0.73495,3.442579c0.005873,1.070887 0.261863,1.769024 0.789141,2.083072c0.525991,0.321133 1.254109,0.47308 2.197685,0.466362" fill="#100f0d" fill-rule="nonzero" id="path40"/>
    <path d="m316.911359,836.825682c0.002922,0.532783 0.140102,1.104788 0.418153,1.71181c0.272731,0.604702 0.676675,1.177756 1.235764,1.726086c0.551106,0.544832 1.254244,0.981673 2.09613,1.308238c0.833988,0.338432 1.782442,0.495314 2.822898,0.487906c2.237509,-0.01593 3.9731,-0.803886 5.21345,-2.355614c1.239005,-1.555256 1.858045,-3.627108 1.843784,-6.227843c-0.009652,-1.76019 -0.302218,-3.319891 -0.886901,-4.663086c-0.582012,-1.340339 -1.407949,-2.388906 -2.50021,-3.1159c-1.084347,-0.735972 -2.385613,-1.095833 -3.895866,-1.08508c-0.932959,0.006643 -1.786706,0.179211 -2.571927,0.504931c-0.774558,0.333961 -1.429173,0.759159 -1.975811,1.271147c-0.538633,0.51949 -0.944364,1.072965 -1.231845,1.650851c-0.280817,0.582679 -0.421159,1.128366 -0.418399,1.631602c0.002779,0.506713 0.163099,0.942139 0.496843,1.298303c0.319155,0.358082 0.708958,0.530115 1.168138,0.526845c0.298601,-0.002126 0.54756,-0.101887 0.740314,-0.286385c0.202079,-0.178063 0.420797,-0.468446 0.668003,-0.887871c0.436247,-0.797002 0.8908,-1.40224 1.368986,-1.811969c0.478256,-0.396876 1.087611,-0.604904 1.830794,-0.610195c1.060361,-0.007549 1.924417,0.489554 2.58145,1.473693c0.663705,0.990595 0.996275,2.342691 1.005705,4.062145c0.004395,0.801533 -0.081728,1.55352 -0.238635,2.224489c-0.164812,0.681657 -0.405854,1.256929 -0.723052,1.740017c-0.313242,0.478341 -0.697458,0.840811 -1.144668,1.090903c-0.440551,0.254174 -0.936237,0.37703 -1.477698,0.380885c-0.720621,0.00513 -1.344106,-0.185366 -1.861214,-0.580993c-0.515799,-0.398584 -0.979649,-1.00489 -1.380882,-1.809509c-0.224339,-0.492826 -0.458631,-0.864471 -0.720264,-1.139641c-0.253644,-0.270508 -0.563574,-0.398259 -0.940473,-0.395575c-0.433966,0.003089 -0.804495,0.199483 -1.082335,0.599c-0.296362,0.41028 -0.442698,0.83071 -0.44023,1.280809" fill="#100f0d" fill-rule="nonzero" id="path42"/>
    <path d="m313.49585,825.078049l-0.396806,0.002825l-0.014149,-2.580141c-0.003764,-0.686353 -0.024025,-1.234981 -0.058017,-1.625186c-0.032687,-0.394296 -0.112795,-0.723382 -0.264342,-1.011131c-0.136949,-0.287853 -0.342643,-0.526826 -0.613072,-0.712109c-0.262419,-0.176569 -0.557521,-0.262479 -0.88399,-0.260152c-0.456526,0.00325 -0.870808,0.207624 -1.23619,0.616548c-0.240025,0.277079 -0.398803,0.606654 -0.463021,0.996953c-0.065519,0.394996 -0.091612,0.961041 -0.087673,1.6793l0.016021,2.921578l-1.327111,0.009448c-0.510937,0.003638 -0.901638,0.15174 -1.168132,0.442464c-0.271802,0.290762 -0.40118,0.657329 -0.398709,1.107943c0.003168,0.577784 0.196521,0.986361 0.586599,1.208596c0.382125,0.224108 0.932186,0.336479 1.644846,0.331404l0.679481,-0.004838l0.043344,7.903865c0.003699,0.674544 -0.016034,1.19037 -0.051178,1.558035c-0.04446,0.362999 -0.154327,0.657356 -0.320342,0.877685c-0.165972,0.228009 -0.445354,0.346376 -0.836853,0.349162c-0.209684,0.001492 -0.495236,-0.037243 -0.860713,-0.129741c-0.353484,-0.083723 -0.637743,-0.128365 -0.843445,-0.126901c-0.289311,0.00206 -0.559244,0.149303 -0.787387,0.414968c-0.226695,0.287508 -0.345613,0.625646 -0.343349,1.038517c0.003773,0.688138 0.318547,1.215162 0.958903,1.578018c0.644337,0.362828 1.554412,0.539459 2.739523,0.531022c1.128044,-0.008031 1.985442,-0.240963 2.564245,-0.695776c0.576149,-0.454807 0.960265,-1.077781 1.129698,-1.884694c0.180106,-0.796948 0.264521,-1.860222 0.257223,-3.190998l-0.045235,-8.248827l0.479087,-0.003412c0.510937,-0.003638 0.908269,-0.152845 1.18269,-0.449676c0.273102,-0.29546 0.403799,-0.663852 0.40131,-1.117489c-0.002471,-0.450614 -0.143823,-0.815253 -0.429409,-1.102048c-0.292221,-0.286746 -0.70575,-0.429123 -1.253846,-0.425221" fill="#100f0d" fill-rule="nonzero" id="path44"/>
    <path d="m294.272099,833.586215c-0.009562,-1.743633 0.309406,-3.113976 0.947713,-4.092671c0.650277,-0.973939 1.508878,-1.471513 2.605072,-1.479317c0.707351,-0.005036 1.328313,0.20981 1.865521,0.640133c0.543881,0.437383 0.96012,1.074075 1.254092,1.92198c0.295247,0.838522 0.449282,1.822007 0.455519,2.959128c0.006161,1.123464 -0.137118,2.101492 -0.41787,2.938155c-0.280727,0.841367 -0.684625,1.48692 -1.21435,1.936681c-0.528405,0.448557 -1.157591,0.670412 -1.882194,0.675571c-1.096194,0.007805 -1.960152,-0.471608 -2.621116,-1.446267c-0.649001,-0.971223 -0.982923,-2.328026 -0.992384,-4.053393l-0.000001,0.000001l-0.000002,0zm-3.623014,0.025795c0.006974,1.271728 0.179332,2.45011 0.525033,3.534533c0.33765,1.06854 0.831126,1.994779 1.465777,2.769384c0.641266,0.771035 1.403558,1.346255 2.283107,1.764707c0.887457,0.408353 1.873285,0.603936 2.980096,0.596057c1.097521,-0.007813 2.081126,-0.217419 2.946725,-0.648884c0.868289,-0.424996 1.624115,-1.02875 2.258157,-1.817119c0.631401,-0.785977 1.113427,-1.705581 1.432739,-2.771117c0.323251,-1.073231 0.478751,-2.242742 0.471651,-3.5375c-0.007123,-1.298946 -0.175548,-2.486173 -0.510567,-3.558799c-0.348348,-1.083268 -0.828483,-1.996688 -1.456444,-2.761769c-0.63589,-0.758673 -1.394253,-1.343479 -2.284355,-1.749968c-0.902062,-0.409428 -1.882613,-0.610977 -2.953593,-0.603353c-1.096194,0.007805 -2.081094,0.223346 -2.973254,0.651447c-0.886874,0.423979 -1.642672,1.033024 -2.275442,1.811314c-0.62215,0.778819 -1.109416,1.71092 -1.432676,2.782336c-0.324603,1.068552 -0.484027,2.248738 -0.476953,3.538732" fill="#100f0d" fill-rule="nonzero" id="path46"/>
    <path d="m284.233112,836.188828l0.019587,3.571807c0.004778,0.871242 0.182228,1.526236 0.528353,1.962079c0.347387,0.424008 0.782565,0.641825 1.317391,0.638018c0.512264,-0.003648 0.94366,-0.233546 1.274399,-0.6671c0.332019,-0.44244 0.493014,-1.093946 0.488272,-1.958685l-0.0655,-11.944038c-0.010588,-1.930833 -0.599785,-2.887178 -1.77295,-2.878826c-0.593218,0.004223 -1.02593,0.235946 -1.292889,0.683791c-0.257642,0.452466 -0.393332,1.120456 -0.423021,1.998943c-0.434801,-0.875181 -0.887021,-1.538987 -1.343365,-1.986368c-0.456318,-0.442694 -1.06008,-0.667038 -1.815206,-0.661661c-0.764416,0.005442 -1.4944,0.239282 -2.209922,0.690319c-0.707534,0.455669 -1.065216,1.058401 -1.061154,1.79919c0.002871,0.523346 0.161882,0.96226 0.46763,1.295486c0.301778,0.33522 0.631879,0.511308 0.9902,0.508757c0.12873,-0.000917 0.450664,-0.104223 0.953877,-0.306355c0.509894,-0.193862 0.956583,-0.296848 1.346755,-0.299625c0.522881,-0.003723 0.955065,0.152131 1.288698,0.488183c0.33893,0.333747 0.603014,0.813798 0.791039,1.461037c0.188067,0.65495 0.326326,1.423667 0.397625,2.324573c0.071241,0.890275 0.113042,1.978629 0.120182,3.28048" fill="#100f0d" fill-rule="nonzero" id="path48"/>
    <path d="m265.011745,836.903374c0.006511,1.187261 0.25492,2.197355 0.74925,3.037348c0.491702,0.844744 1.209147,1.470489 2.160444,1.903792c0.953868,0.417922 2.103031,0.630655 3.468628,0.620931c1.283316,-0.009136 2.399459,-0.251593 3.324499,-0.734273c0.923742,-0.477364 1.603998,-1.067001 2.036743,-1.776543c0.442046,-0.707855 0.665084,-1.42005 0.661194,-2.129447c-0.002585,-0.47136 -0.149462,-0.875535 -0.440606,-1.20779c-0.281903,-0.341198 -0.641094,-0.497527 -1.068424,-0.494483c-0.38088,0.002711 -0.674888,0.116434 -0.875439,0.33111c-0.200442,0.234758 -0.388559,0.538533 -0.57615,0.938587c-0.366059,0.769328 -0.803524,1.344231 -1.324344,1.724215c-0.504864,0.385194 -1.207196,0.579217 -2.10565,0.585613c-0.719294,0.005122 -1.313586,-0.186174 -1.78017,-0.565041c-0.46128,-0.379479 -0.702547,-0.813106 -0.705258,-1.307494c-0.004157,-0.757846 0.23567,-1.31303 0.711558,-1.657838c0.485106,-0.357881 1.270285,-0.691296 2.370081,-1.010425c1.238824,-0.378004 2.25195,-0.770946 3.031428,-1.175817c0.776785,-0.41196 1.404225,-0.952195 1.863766,-1.615838c0.464911,-0.652491 0.69665,-1.472233 0.69136,-2.436817c-0.004742,-0.864785 -0.226842,-1.675399 -0.663652,-2.433069c-0.432858,-0.762991 -1.083832,-1.368069 -1.923742,-1.818617c-0.842582,-0.453554 -1.859075,-0.674959 -3.054803,-0.666446c-0.928977,0.006614 -1.768392,0.130691 -2.516949,0.365873c-0.740605,0.23331 -1.369266,0.550809 -1.856872,0.937013c-0.495529,0.393369 -0.876709,0.825542 -1.131597,1.296437c-0.262812,0.477907 -0.387685,0.940163 -0.385229,1.387905c0.002711,0.494315 0.14024,0.888015 0.426043,1.214427c0.280352,0.300441 0.679356,0.456379 1.182331,0.452799c0.374245,-0.002665 0.686764,-0.128888 0.952104,-0.387699c0.252118,-0.249944 0.552642,-0.627106 0.8817,-1.125597c0.272406,-0.422629 0.589056,-0.76331 0.961925,-1.016988c0.368914,-0.248961 0.869839,-0.384239 1.501544,-0.388736c0.654265,-0.004657 1.201939,0.15627 1.627111,0.485774c0.438421,0.325325 0.658337,0.737795 0.661042,1.231052c0.002478,0.451823 -0.156078,0.822075 -0.467702,1.111458c-0.319577,0.291102 -0.742941,0.533345 -1.283359,0.727425c-0.540425,0.19287 -1.275685,0.432646 -2.217778,0.709883c-1.120968,0.330529 -2.030588,0.720949 -2.739426,1.180711c-0.706228,0.451727 -1.239447,0.990624 -1.602371,1.605765c-0.3682,0.621075 -0.547512,1.320558 -0.543233,2.100845" fill="#100f0d" fill-rule="nonzero" id="path50"/>
    <path d="m260.945702,842.539805c0.54677,-0.003893 1.018111,-0.209851 1.407276,-0.637924c0.401146,-0.42167 0.592998,-1.012546 0.588893,-1.760927c-0.003492,-0.636741 -0.190986,-1.187126 -0.570425,-1.647533c-0.382074,-0.456833 -0.853098,-0.677358 -1.409158,-0.673399c-0.552078,0.003931 -1.027284,0.231193 -1.408305,0.692279c-0.394344,0.451745 -0.589007,1.014288 -0.585482,1.656941c0.004072,0.742469 0.205012,1.32465 0.604147,1.746521c0.385848,0.419016 0.844865,0.627802 1.373055,0.624042" fill="#100f0d" fill-rule="nonzero" id="path52"/>
    <path d="m244.938064,833.937448c-0.009562,-1.743633 0.308079,-3.113968 0.951694,-4.092699c0.642314,-0.973884 1.506224,-1.471493 2.598436,-1.479271c0.707351,-0.005036 1.323006,0.209848 1.865521,0.640133c0.541226,0.437403 0.958793,1.074083 1.251437,1.921999c0.292593,0.838539 0.445301,1.822037 0.451537,2.959155c0.006161,1.123464 -0.126501,2.101416 -0.407253,2.938079c-0.291342,0.841443 -0.691261,1.486969 -1.224968,1.936756c-0.528405,0.448557 -1.15361,0.670384 -1.875558,0.675524c-1.092213,0.007775 -1.96148,-0.471597 -2.61448,-1.446316c-0.654309,-0.971184 -0.986904,-2.327999 -0.996365,-4.053363l-0.000001,0.000003zm-3.625668,0.025812c0.006974,1.271728 0.179332,2.45011 0.525033,3.534533c0.342959,1.068503 0.827145,1.994808 1.467104,2.769374c0.645247,0.771005 1.396923,1.346304 2.283107,1.764707c0.880821,0.4084 1.873285,0.603936 2.978769,0.596066c1.092213,-0.007775 2.073163,-0.217361 2.942744,-0.648855c0.870943,-0.425016 1.620133,-1.02872 2.252849,-1.817082c0.644671,-0.786071 1.12139,-1.705638 1.449992,-2.771238c0.317942,-1.073193 0.477424,-2.242733 0.470324,-3.53749c-0.007123,-1.298946 -0.179528,-2.486145 -0.52251,-3.558715c-0.347021,-1.083278 -0.824501,-1.996716 -1.451136,-2.761806c-0.630581,-0.75871 -1.392926,-1.343488 -2.288335,-1.74994c-0.891445,-0.409504 -1.868016,-0.611082 -2.949611,-0.603382c-1.092213,0.007775 -2.082422,0.223356 -2.971927,0.651437c-0.892183,0.424017 -1.647981,1.033062 -2.279423,1.811342c-0.626131,0.778848 -1.102781,1.710873 -1.431349,2.782328c-0.323277,1.068543 -0.4827,2.248728 -0.475626,3.538723" fill="#100f0d" fill-rule="nonzero" id="path54"/>
    <path d="m234.897749,836.540071l0.019587,3.571807c0.004778,0.871242 0.180901,1.526246 0.527026,1.962087c0.340752,0.424055 0.783892,0.641816 1.308101,0.638084c0.526863,-0.003751 0.947641,-0.233575 1.282362,-0.667157c0.337328,-0.442478 0.498323,-1.093983 0.493581,-1.958723l-0.0655,-11.944038c-0.010588,-1.930833 -0.610402,-2.887102 -1.775605,-2.878806c-0.601181,0.00428 -1.028584,0.235966 -1.288908,0.683762c-0.257642,0.452466 -0.409257,1.120569 -0.434964,1.99903c-0.428165,-0.875228 -0.87375,-1.539081 -1.330094,-1.986462c-0.458972,-0.442676 -1.066716,-0.666991 -1.817861,-0.661644c-0.771052,0.005489 -1.505017,0.239357 -2.208595,0.690309c-0.711515,0.455697 -1.069197,1.05843 -1.065135,1.79922c0.002871,0.523346 0.157901,0.962289 0.462322,1.295524c0.308412,0.335172 0.631879,0.511308 0.994181,0.508728c0.127403,-0.000907 0.444028,-0.104176 0.949896,-0.306327c0.50724,-0.193845 0.95393,-0.296829 1.345428,-0.299615c0.525536,-0.003741 0.955065,0.152131 1.301969,0.488089c0.330967,0.333802 0.593724,0.813865 0.78573,1.461075c0.184086,0.654978 0.317037,1.423733 0.390989,2.32462c0.075222,0.890247 0.11835,1.978592 0.12549,3.280442" fill="#100f0d" fill-rule="nonzero" id="path56"/>
    <path d="m224.462579,833.93503c0.009529,1.73769 -0.304412,3.056584 -0.940496,3.956613c-0.62951,0.888762 -1.459144,1.344181 -2.465095,1.351342c-0.5972,0.004253 -1.171591,-0.188348 -1.704534,-0.567334c-0.535594,-0.378361 -0.972721,-0.95177 -1.312707,-1.720216c-0.343981,-0.770776 -0.510986,-1.699339 -0.517014,-2.798579c-0.009604,-1.751374 0.309411,-3.112797 0.950383,-4.089695c0.640913,-0.987482 1.491551,-1.485 2.547931,-1.49252c1.028511,-0.007322 1.859249,0.464614 2.482766,1.386992c0.63021,0.932917 0.949337,2.253806 0.958766,3.973395l0,0.000002zm-10.491461,-5.367508l0.068386,12.470349c0.007845,1.430608 0.151252,2.654107 0.407674,3.673006c0.261798,1.031261 0.675209,1.878332 1.241567,2.542382c0.56769,0.664625 1.313599,1.156681 2.22047,1.475108c0.916129,0.312455 2.053049,0.470937 3.409357,0.46128c1.244831,-0.008863 2.357175,-0.21762 3.327674,-0.639197c0.978413,-0.430495 1.730637,-0.965117 2.253885,-1.628065c0.524633,-0.65231 0.787684,-1.32877 0.783868,-2.024575c-0.002883,-0.525706 -0.151187,-0.948182 -0.462213,-1.275579c-0.296468,-0.335168 -0.661001,-0.497384 -1.081695,-0.49439c-0.530844,0.003778 -0.985829,0.288194 -1.387572,0.84276c-0.192158,0.293173 -0.393654,0.577554 -0.59249,0.863094c-0.205436,0.29209 -0.434967,0.546546 -0.683372,0.747378c-0.252331,0.210902 -0.555411,0.364278 -0.907875,0.466606c-0.344501,0.102287 -0.755633,0.154829 -1.216142,0.158108c-0.926323,0.006594 -1.661087,-0.147073 -2.175027,-0.448802c-0.516609,-0.304657 -0.88261,-0.734444 -1.095329,-1.286421c-0.200791,-0.555009 -0.336754,-1.147089 -0.36146,-1.780141c-0.046017,-0.647084 -0.076766,-1.655779 -0.108389,-3.066134c0.559782,0.916919 1.215249,1.615176 1.93718,2.090867c0.72992,0.480351 1.600464,0.708662 2.597124,0.701568c1.218288,-0.008674 2.271369,-0.375906 3.16444,-1.121812c0.903731,-0.738316 1.593514,-1.76867 2.06932,-3.096399c0.470536,-1.320613 0.711673,-2.846914 0.702188,-4.576424c-0.007116,-1.297706 -0.158156,-2.460861 -0.465107,-3.497697c-0.294967,-1.029362 -0.717813,-1.902813 -1.277789,-2.613031c-0.544048,-0.709727 -1.181356,-1.243224 -1.896008,-1.601515c-0.719923,-0.351599 -1.495968,-0.530409 -2.35859,-0.524268c-1.017894,0.007247 -1.901785,0.249289 -2.64637,0.724729c-0.757915,0.464948 -1.441294,1.211086 -2.082173,2.204619l-0.003152,-0.57476c-0.00411,-0.74956 -0.1665,-1.320312 -0.472714,-1.738671c-0.307449,-0.401262 -0.708036,-0.603916 -1.191104,-0.600477c-0.698061,0.00497 -1.159764,0.2741 -1.389039,0.817395c-0.221315,0.542635 -0.335117,1.329631 -0.329526,2.349106" fill="#100f0d" fill-rule="nonzero" id="path58"/>
    <path d="m370.16854,785.661264l-5.352239,0.038104c0.396262,3.286181 1.591466,5.844302 3.569704,7.677957c1.829395,1.796909 4.03862,2.673672 6.613216,2.655343c3.496939,-0.024897 6.280172,-1.445297 8.348423,-4.252876c1.958852,-2.669645 2.926081,-6.107376 2.903103,-10.297476c-0.023542,-4.293076 -1.021774,-7.718477 -2.98821,-10.304224c-1.966374,-2.574406 -4.732571,-3.855342 -8.301174,-3.829936c-2.652895,0.018886 -4.893882,0.852934 -6.704454,2.488398c-1.919992,1.769315 -3.087614,4.240827 -3.48702,7.399751l5.352239,-0.038104c0.44806,-2.757029 1.914979,-4.135547 4.425874,-4.153422c4.136606,-0.02945 6.224859,2.74672 6.255508,8.335688c0.014362,2.619001 -0.506093,4.759272 -1.561305,6.432004c-1.055174,1.679687 -2.550221,2.52687 -4.48515,2.540646c-2.88514,0.020541 -4.415985,-1.545768 -4.588516,-4.691851l0.000001,0l0,-0.000001zm21.053424,-3.998249c0.029936,5.459077 -1.464266,10.090648 -4.477392,13.877892c-3.018438,3.786527 -6.724017,5.697243 -11.136662,5.728657c-4.392738,0.031274 -8.122965,-1.826501 -11.17606,-5.569802c-3.062389,-3.74399 -4.597982,-8.353992 -4.627918,-13.813069c-0.029911,-5.454238 1.455019,-10.08287 4.47611,-13.869567c3.011757,-3.794797 6.721337,-5.701911 11.114076,-5.733185c4.412645,-0.031415 8.138869,1.822759 11.198646,5.57433c3.054423,3.743443 4.599289,8.350505 4.6292,13.804742l0,0.000001zm5.438502,-0.038719c-0.038093,-6.946251 -2.134265,-12.860755 -6.289911,-17.755295c-4.160917,-4.887849 -9.165675,-7.312543 -15.007619,-7.270951c-5.828672,0.041497 -10.798484,2.537204 -14.909452,7.483946c-4.104295,4.953347 -6.142074,10.897282 -6.103982,17.843534c0.038129,6.952904 2.140979,12.874921 6.299226,17.759917c4.164921,4.892055 9.161727,7.318619 14.990399,7.277122c5.841944,-0.041591 10.819707,-2.539171 14.92667,-7.490118c4.101693,-4.943803 6.132795,-10.895249 6.094666,-17.848156" fill="#100f0d" fill-rule="nonzero" id="path60"/>
    <path d="m388.188348,797.928802l-3.070499,3.005552l-22.86901,-33.034477l3.067871,-3.000695l22.871638,33.029618" fill="#100f0d" fill-rule="nonzero" id="path62"/>
    <path d="m663.515432,323.669344l21.228151,62.810187c16.757804,49.584692 -2.807609,103.65454 -51.107554,130.015547c-75.302824,41.095935 -161.550389,56.001631 -248.573058,56.621186c-87.022669,0.619558 -173.428303,-13.056936 -249.176621,-53.077464c-48.584885,-25.671238 -68.740843,-79.458291 -52.528026,-129.277715l20.536837,-63.107531l279.933882,20.452371l279.686389,-24.436581" fill="#ff7f00" fill-rule="evenodd" id="path64"/>
    <path d="m652.627646,281.147105l16.269411,-21.517779c3.834886,-5.073462 9.575393,-7.73646 15.428956,-7.15965l66.953747,-0.476677c4.058571,-0.028895 7.887134,2.1471 10.307273,5.86043c2.421179,3.71181 3.144808,8.516917 1.948678,12.936477c-5.635115,20.823586 -22.231354,35.293887 -41.346212,36.045433l-32.481049,0.231248c-8.324439,0.059266 -16.100648,-4.725875 -20.620861,-12.69315c-0.700472,-1.233492 -1.841812,-2.052531 -3.120748,-2.236985c-1.280007,-0.185959 -2.56519,0.281383 -3.513164,1.277101l-7.378157,10.879772l-2.447874,-23.146217l0.000001,-0.000001l-0.000001,-0.000001zm-538.31204,3.832505l-16.504531,-21.284445c-3.889566,-5.018468 -9.658299,-7.599526 -15.506141,-6.93941l-66.952765,0.476669c-4.059633,0.028902 -7.862997,2.259234 -10.241957,6.00673c-2.381622,3.746003 -3.050652,8.561025 -1.806847,12.963213c5.861689,20.741734 22.616871,34.97459 41.735957,35.453932l32.483704,-0.231267c8.32497,-0.059269 16.047428,-4.954754 20.478581,-12.985758c0.687287,-1.243372 1.820086,-2.078602 3.097033,-2.281253c1.276938,-0.204163 2.569403,0.244827 3.526365,1.226982l7.497831,10.773861l2.192769,-23.179255l0,0" fill="#ffaa56" fill-rule="evenodd" id="path66"/>
    <path d="m575.310091,100.881112c-160.884375,1.145413 -224.774166,1.600276 -385.658542,2.745692c-28.52493,0.203082 -56.005586,26.990497 -61.069449,59.527936l-23.88092,153.445057c-5.062536,32.537428 14.131321,58.994057 42.654924,58.790983c190.07286,-1.353222 283.152465,-2.015899 473.224,-3.369111c28.525461,-0.203087 47.427802,-26.929429 42.008539,-59.393744l-25.562601,-153.093044c-5.419785,-32.462799 -33.192347,-58.856839 -61.715949,-58.653766" fill="#ff7f00" fill-rule="evenodd" id="path68"/>
    <path d="m580.41374,116.740862c-131.89761,0.939043 -263.795221,1.878086 -395.69283,2.81713c-23.383701,0.16648 -45.912632,22.12804 -50.066362,48.802307l-19.577243,125.7989c-4.151067,26.675759 11.585929,48.364886 34.969629,48.198406c155.828081,-1.109416 311.654834,-2.218823 467.480262,-3.328218c23.384895,-0.166488 38.88279,-22.077993 34.438557,-48.692558l-20.955524,-125.510327c-4.443429,-26.613059 -27.211461,-48.252129 -50.596489,-48.085639" fill="#46454b" fill-rule="evenodd" id="path70"/>
    <path d="m481.114666,132.096352c-65.644233,0.467353 -131.289793,0.934716 -196.935353,1.402078c-11.637439,0.082852 -22.850417,11.01412 -24.915669,24.290684l-9.745755,62.608806c-2.063925,13.276554 5.768455,24.069204 17.405893,23.986352c77.555057,-0.552153 155.108786,-1.104295 232.662516,-1.656437c11.638766,-0.082862 19.352168,-10.986189 17.140141,-24.232301l-10.430317,-62.465162c-2.2107,-13.246121 -13.542689,-24.016879 -25.181455,-23.934017" fill="#7f7e86" fill-rule="evenodd" id="path72"/>
    <path d="m304.778574,225.171827l-2.053944,-0.634104c-1.728238,-0.533594 -3.188681,-1.846358 -4.04522,-3.635224c-0.855222,-1.790387 -1.034014,-3.900123 -0.491239,-5.842609l-0.040361,0.142432l-14.177122,-1.034716l-14.162012,1.236477l-0.043247,-0.141838c0.564036,1.934605 0.408396,4.046723 -0.428449,5.849156c-0.836854,1.800921 -2.282785,3.134377 -4.003709,3.692527l-2.046829,0.663299l-0.338565,18.609842l-0.083899,0.18962l21.290136,3.349133l21.250416,-3.652l-0.083318,-0.18843l-0.542637,-18.603569" fill="#ffaa56" fill-rule="evenodd" id="path74"/>
    <path d="m303.451437,225.171827l39.437727,9.876569c6.149242,1.542502 11.434548,5.997575 14.522645,12.251156c2.717701,5.506175 3.509496,11.945467 2.268846,18.040843l6.186547,45.130959l-7.855172,0.055924l-20.190671,0.143747l-54.646462,0.389055l-54.645135,0.389046l-20.191998,0.143756l-7.855172,0.055924l5.692426,-45.215532c-1.307404,-6.077235 -0.587619,-12.52729 2.070809,-18.07174c3.017943,-6.297053 8.252649,-10.827021 14.385821,-12.456969l39.327656,-10.437338c2.21704,10.772141 10.730804,18.760887 20.848701,18.688852c10.119223,-0.072043 18.546035,-8.181398 20.643433,-18.984255" fill="#000000" fill-rule="evenodd" id="path76"/>
    <path d="m614.43222,300.059738l-29.807461,-162.034613l30.01141,5.857756c5.310853,4.757327 9.220713,10.330624 10.751544,16.492462l22.027771,131.179435c0.580595,6.043093 -1.831472,11.933591 -6.260669,15.287394c-4.428135,3.353796 -10.141076,3.613736 -14.826148,0.675648l-11.896447,-7.458081l-0.000001,0l0.000001,0zm-461.716618,3.287185l28.029376,-162.446383l-29.947478,6.284631c-5.255608,4.832554 -9.105366,10.461095 -10.569826,16.644259l-20.585241,131.482818c-0.516263,6.050902 1.96181,11.906584 6.427178,15.197063c4.464041,3.290487 10.181112,3.469052 14.833595,0.464486l11.812395,-7.626875l0,-0.000001l0.000001,0zm66.234174,-152.568598l-14.940402,92.836556c-2.492395,15.491931 -9.660375,29.533694 -20.259139,39.690887l-15.639639,10.100838l25.854976,-155.278269l19.664502,-4.127632c4.528523,3.432174 6.772236,8.903918 5.319702,16.777619l0,0.000001zm327.578843,-2.332193l15.95873,92.61657c2.663433,15.455223 9.984853,29.39383 20.694188,39.39932l15.750524,9.877356l-27.557272,-154.898001l-19.708235,-3.847319c-4.491854,3.496394 -6.676709,8.999668 -5.137935,16.852074l0,0" fill="#7f7e86" fill-rule="evenodd" id="path78"/>
    <path d="m513.903062,216.664303l-2.053944,-0.634104c-1.728238,-0.533594 -3.188681,-1.846358 -4.04522,-3.635224c-0.855222,-1.790387 -1.034014,-3.900123 -0.491239,-5.842609l-0.040361,0.142432l-14.177122,-1.034716l-14.162012,1.236477l-0.043247,-0.141838c0.564036,1.934605 0.408396,4.046723 -0.428449,5.849156c-0.836854,1.800921 -2.282785,3.134377 -4.003709,3.692527l-2.046829,0.663299l-0.338565,18.609842l-0.083899,0.18962l21.290136,3.349133l21.250416,-3.652l-0.083318,-0.18843l-0.542637,-18.603569" fill="#ffaaaa" fill-rule="evenodd" id="svg_9"/>
    <path d="m514.86241,216.949585l39.437727,9.876569c6.149242,1.542502 11.434548,5.997575 14.522645,12.251156c2.717701,5.506175 3.509496,11.945467 2.268846,18.040843l6.186547,45.130959l-7.855172,0.055924l-20.190671,0.143747l-54.646462,0.389055l-54.645135,0.389046l-20.191998,0.143756l-7.855172,0.055924l5.692426,-45.215532c-1.307404,-6.077235 -0.587619,-12.52729 2.070809,-18.07174c3.017943,-6.297053 8.252649,-10.827021 14.385821,-12.456969l39.327656,-10.437338c2.21704,10.772141 10.730804,18.760887 20.848701,18.688852c10.119223,-0.072043 18.546035,-8.181398 20.643433,-18.984255" fill="#d4ffaa" fill-rule="evenodd" id="svg_8"/>
    <path d="m546.947465,259.426777l-0.002654,0.000018c-3.975657,-2.324654 -8.898812,-0.517323 -10.939028,4.014097l-7.38198,16.402296c-2.038889,4.531412 -0.455346,10.140928 3.522957,12.464052l0,0c3.978311,2.324636 8.897493,0.518846 10.940363,-4.012594l7.38198,-16.402296c2.038881,-4.532924 0.454019,-10.140919 -3.521638,-12.465573" fill="#ffaaaa" fill-rule="evenodd" id="path80"/>
    <path d="m442.247389,257.043943l0,0c3.952505,-2.381098 8.895097,-0.644007 10.983524,3.858021l7.561292,16.295907c2.089754,4.502017 0.56653,10.133653 -3.384658,12.51323l0,0c-3.953832,2.381109 -8.893762,0.64551 -10.982189,-3.856518l-7.56262,-16.295899c-2.091089,-4.50352 -0.56653,-10.133653 3.38465,-12.514743" fill="#ffaaaa" fill-rule="evenodd" id="path82"/>
    <path d="m492.577117,240.860807c-37.014461,0.263524 -66.834286,34.666321 -66.603004,76.841016c0.017413,3.175463 0.208422,6.302814 0.555723,9.373101l17.296242,-0.12314c-0.462643,-3.048294 -0.713388,-6.178244 -0.730902,-9.371853c-0.172199,-31.4008 22.030119,-57.016498 49.588912,-57.212703c27.558793,-0.196205 50.040313,25.101367 50.212511,56.502167c0.017513,3.19361 -0.197558,6.326875 -0.625407,9.38151l17.293588,-0.123121c0.314928,-3.075001 0.471622,-6.204828 0.454209,-9.380291c-0.23128,-42.174695 -30.426084,-76.150219 -67.441872,-75.886686" fill="#2d2a2d" fill-rule="evenodd" id="path84"/>
    <path d="m277.409665,374.607949c-15.232583,0.108449 -27.730634,-13.95662 -27.825796,-31.309774c-0.09517,-17.354665 12.247639,-31.5981 27.480223,-31.706549c15.231256,-0.108438 27.730643,13.958132 27.825813,31.312798c0.095162,17.353153 -12.248984,31.595086 -27.48024,31.703525" fill="#ff7f00" fill-rule="evenodd" id="path86"/>
    <path d="m258.6194,370.800517c-15.229929,0.108429 -27.730634,-13.95662 -27.825796,-31.309774c-0.09517,-17.354665 12.250294,-31.59812 27.480223,-31.706549c15.231256,-0.108438 27.73197,13.958123 27.82714,31.312788c0.095162,17.353153 -12.25031,31.595096 -27.481567,31.703535" fill="#ff7f00" fill-rule="evenodd" id="path88"/>
    <path d="m546.492131,324.963722c-13.039478,0.095437 -23.738127,-12.282121 -23.819588,-27.553264c-0.081469,-15.272473 10.484291,-27.806998 23.523769,-27.902434c13.038342,-0.095429 23.738134,12.283452 23.819603,27.555925c0.081461,15.271143 -10.48544,27.804344 -23.523783,27.899772" fill="#ffaaaa" fill-rule="evenodd" id="svg_6"/>
    <path d="m442.316007,320.427272c-13.404996,0.092834 -24.403544,-11.947222 -24.487289,-26.801962c-0.083753,-14.856034 10.778181,-27.048778 24.183177,-27.141612c13.403828,-0.092827 24.403552,11.948516 24.487304,26.80455c0.083745,14.85474 -10.779364,27.046196 -24.183192,27.139023" fill="#ffaaaa" fill-rule="evenodd" id="svg_7"/>
    <path d="m617.527197,339.029384l-14.449544,-18.766167c-12.273418,-15.938753 -30.623233,-24.008689 -49.11202,-21.602733l-170.401089,1.213169l-170.402417,1.213178c-18.515057,-2.142508 -36.773607,6.188061 -48.871261,22.300323l-14.243928,18.97045l233.741457,-1.664119l233.738804,-1.664099" fill="#2d2a2d" fill-rule="evenodd" id="path90"/>
    <path d="m258.794248,178.199529c4.220214,-0.030045 8.315689,5.024761 9.150326,11.289848c0.831982,6.265106 -1.911148,11.368602 -6.130035,11.398637c-4.221541,0.030056 -8.315689,-5.024761 -9.148998,-11.289859c-0.834637,-6.265087 1.911148,-11.368602 6.128708,-11.398629l0,0.000001l-0.000001,0.000001zm49.921945,-0.355418c-4.218887,0.030035 -8.259932,5.142771 -9.023137,11.419234c-0.76586,6.276483 2.035681,11.340501 6.254568,11.310465c4.220214,-0.030045 8.259932,-5.142771 9.023137,-11.419234c0.764533,-6.276473 -2.034354,-11.340512 -6.254568,-11.310465l0,0" fill="#ffaa56" fill-rule="evenodd" id="path92"/>
    <path d="m137.895238,367.008044l-1.208058,21.960985c-1.497941,27.183111 7.649775,53.727896 24.977924,72.491715c26.191829,28.363573 58.693055,48.026483 93.986978,56.861926l-9.99849,-5.985116c-27.569404,-16.501262 -51.973803,-39.104041 -71.783214,-66.483257c-15.235821,-21.053041 -19.210836,-49.881761 -10.378294,-75.243493l-25.596845,-3.602763l-0.000001,0.000003zm492.055709,-3.503184l1.448818,21.94207c1.79303,27.15968 -7.061254,53.832631 -24.180933,72.841701c-25.881365,28.734308 -58.164404,48.858448 -93.357343,58.195722l9.932068,-6.12701c27.386276,-16.892519 51.540877,-39.841012 71.048465,-67.500145c15.00241,-21.268321 18.66094,-50.151388 9.552264,-75.385389l25.556661,-3.966948l0,0" fill="#ffaa56" fill-rule="evenodd" id="path94"/>
    <path d="m468.290885,167.768436c4.220214,-0.030045 8.315689,5.024761 9.150326,11.289848c0.831982,6.265106 -1.911148,11.368602 -6.130035,11.398637c-4.221541,0.030056 -8.315689,-5.024761 -9.148998,-11.289859c-0.834637,-6.265087 1.911148,-11.368602 6.128708,-11.398629l0,0.000001l-0.000001,0.000001zm49.921945,-0.355418c-4.218887,0.030035 -8.259932,5.142771 -9.023137,11.419234c-0.76586,6.276483 2.035681,11.340501 6.254568,11.310465c4.220214,-0.030045 8.259932,-5.142771 9.023137,-11.419234c0.764533,-6.276473 -2.034354,-11.340512 -6.254568,-11.310465l0,0" fill="#ffaaaa" fill-rule="evenodd" id="svg_13"/>
    <path d="m516.920857,154.900358l-48.457443,0.331833l0.18018,31.603187c0.083257,14.603019 11.053873,26.478263 24.379525,26.38701l0,0c13.326818,-0.091261 24.161175,-12.115824 24.077918,-26.718843l-0.18018,-31.603187" fill="#ffaaaa" fill-rule="evenodd" id="path96"/>
    <path d="m481.364043,191.51665c0.290237,7.427296 5.732381,13.376803 12.309544,13.329977l0,0c6.57849,-0.046836 11.953632,-6.073355 12.163715,-13.504213l-24.473259,0.174236" fill="#ffffff" fill-rule="evenodd" id="path98"/>
    <path d="m486.565321,169.701424l-9.573193,0.659421c-0.933971,0.064112 -1.73432,0.777512 -2.016755,1.791175c-0.281109,1.013654 0.01297,2.123015 0.743892,2.786197c0.729603,0.664704 1.744014,0.748213 2.549306,0.21019l8.292911,-0.580745c1.127655,-0.079101 2.008369,-1.142388 2.00794,-2.430766c0.000906,-1.286876 -0.887047,-2.511472 -2.004101,-2.435471" fill="#7f3f00" fill-rule="evenodd" id="path102"/>
    <path d="m482.558024,177.095805l-0.001327,0.000009c-1.747805,0.012443 -3.168174,1.651179 -3.157245,3.644161l0.006833,1.245991c0.010929,1.992981 1.449159,3.611365 3.196965,3.598921l0.001327,-0.000009c1.747805,-0.012443 3.168174,-1.651179 3.157245,-3.644161l-0.006833,-1.245991c-0.010929,-1.992981 -1.449159,-3.611365 -3.196965,-3.598921" fill="#7f3f00" fill-rule="evenodd" id="path104"/>
    <path d="m499.018856,169.584416l9.581004,0.523053c0.933275,0.050819 1.742712,0.752758 2.034915,1.762329c0.292204,1.009571 0.010316,2.123034 -0.711949,2.796561c-0.722256,0.67504 -1.735672,0.772987 -2.546801,0.246472l-8.298634,-0.462621c-1.128434,-0.063039 -2.018087,-1.113721 -2.033114,-2.401997c-0.017673,-1.286743 0.856779,-2.523886 1.97458,-2.463797" fill="#7f3f00" fill-rule="evenodd" id="path106"/>
    <path d="m503.109591,176.921143l0,0c1.746478,-0.012435 3.186036,1.60594 3.196965,3.598921l0.006833,1.245991c0.010929,1.992981 -1.410765,3.631726 -3.157245,3.644161l0,0c-1.749132,0.012452 -3.18869,-1.605921 -3.199619,-3.598902l-0.006833,-1.245991c-0.010929,-1.992981 1.410765,-3.631726 3.159899,-3.644179" fill="#7f3f00" fill-rule="evenodd" id="path108"/>
    <path d="m580.536915,139.201975c14.105866,-0.100427 28.4881,14.135714 31.107679,29.822614l8.269077,49.525663c-28.124917,-38.90486 -66.185758,-66.335597 -108.430338,-78.856651l69.053582,-0.491626" fill="#ffffff" fill-rule="evenodd" id="path110"/>
    <path d="m308.368094,162.223741l-49.779654,0.340437l0.185096,32.422579c0.085529,14.981639 11.35549,27.164778 25.044744,27.071159l0,0c13.690454,-0.093628 24.820437,-12.429957 24.734908,-27.411596l-0.185096,-32.422579" fill="#ffaa56" fill-rule="evenodd" id="svg_10"/>
    <path d="m517.355138,178.042382l3.752374,-22.96361c1.959596,-11.988494 -0.129951,-22.29666 -8.586872,-16.047492l-1.285197,-1.712706c-5.053794,-6.739761 -12.844852,-9.104871 -19.827909,-6.021349l-24.691589,6.516187c-2.781968,0.929547 -4.935874,3.672547 -5.619725,7.154331c-0.682628,3.48028 0.214568,7.149764 2.340112,9.567629l3.456091,24.6301l3.656961,-18.252384l33.349373,-3.129666c2.959874,-0.277925 5.743947,-1.86828 7.842474,-4.480151l5.613907,24.73911" fill="#7f3f00" fill-rule="evenodd" id="svg_11"/>
    <path d="m293.546848,185.275496l0,0c1.746478,-0.012435 3.186036,1.60594 3.196965,3.598921l0.006833,1.245991c0.010929,1.992981 -1.410765,3.631726 -3.157245,3.644161l0,0c-1.749132,0.012452 -3.18869,-1.605921 -3.199619,-3.598902l-0.006833,-1.245991c-0.010929,-1.992981 1.410765,-3.631726 3.159899,-3.644179" fill="#333333" fill-rule="evenodd" id="svg_14"/>
    <path d="m270.985517,185.275496l0,0c1.746478,-0.012435 3.186036,1.60594 3.196965,3.598921l0.006833,1.245991c0.010929,1.992981 -1.410765,3.631726 -3.157245,3.644161l0,0c-1.749132,0.012452 -3.18869,-1.605921 -3.199619,-3.598902l-0.006833,-1.245991c-0.010929,-1.992981 1.410765,-3.631726 3.159899,-3.644179" fill="#333333" fill-rule="evenodd" id="svg_15"/>
    <path d="m291.345647,177.615652l9.581004,0.523053c0.933275,0.050819 1.742712,0.752758 2.034915,1.762329c0.292204,1.009571 0.010316,2.123034 -0.711949,2.796561c-0.722256,0.67504 -1.735672,0.772987 -2.546801,0.246472l-8.298634,-0.462621c-1.128434,-0.063039 -2.018087,-1.113721 -2.033114,-2.401997c-0.017673,-1.286743 0.856779,-2.523886 1.97458,-2.463797" fill="#2d2a2d" fill-rule="evenodd" id="svg_17"/>
    <path d="m273.198724,177.548958l-9.573193,0.659421c-0.933971,0.064112 -1.73432,0.777512 -2.016755,1.791175c-0.281109,1.013654 0.01297,2.123015 0.743892,2.786197c0.729603,0.664704 1.744014,0.748213 2.549306,0.21019l8.292911,-0.580745c1.127655,-0.079101 2.008369,-1.142388 2.00794,-2.430766c0.000906,-1.286876 -0.887047,-2.511472 -2.004101,-2.435471" fill="#2d2a2d" fill-rule="evenodd" id="svg_18"/>
    <path d="m270.715118,201.08788c0.290237,7.427296 5.732381,13.376803 12.309544,13.329977l0,0c6.57849,-0.046836 11.953632,-6.073355 12.163715,-13.504213l-24.473259,0.174236" fill="#ffffff" fill-rule="evenodd" id="svg_82"/>
    <path d="m259.635569,188.034437l-3.768482,-22.96361c-1.968008,-11.988494 0.130509,-22.29666 8.623731,-16.047492l1.290714,-1.712706c5.075488,-6.739761 12.899987,-9.104871 19.913017,-6.021349l24.797575,6.516187c2.793909,0.929547 4.95706,3.672547 5.643847,7.154331c0.685558,3.48028 -0.215489,7.149764 -2.350157,9.567629l-3.470926,24.6301l-3.672657,-18.252384l-33.49252,-3.129666c-2.972579,-0.277925 -5.768602,-1.86828 -7.876137,-4.480151l-5.638004,24.73911" fill="#191919" fill-rule="evenodd" id="path100"/>
   </g>
  </g>
 </g>
</svg>